<svg viewBox="0 0 1427 173" fill="none" xmlns="http://www.w3.org/2000/svg"><g clip-path="url(#clip0_1520_5852)" stroke="#fff" stroke-width="5" stroke-linecap="round"><path opacity=".8" d="M1412.04 144.169c-213.6-53.944-373.22 30.012-530.167 26.007-151.563-3.867-276.842-87.785-425.524-106.601C327.658 47.289 217.971 94.965 3.354 13.963"/><path opacity=".5" d="M24.482 6.953C242.585-12.24 265.544 112.016 470.866 139.828c205.323 27.813 233.07-54.55 430.81-47.732 168.234 5.802 298.944 103.435 521.364 57.662" stroke-linejoin="round"/><path d="M1423.78 132.606c-213.32-55.672-277.37 15.85-484.184 8.883-206.809-6.966-236.389-95.066-443.095-80.655-217.557 15.168-265.004 62.828-479.126-19.898" stroke-linejoin="round"/></g><defs><clipPath id="clip0_1520_5852"><path fill="#fff" d="M0 0H1427V173H0z"/></clipPath></defs></svg>