<svg fill="none" viewBox="0 0 1397 333" xmlns="http://www.w3.org/2000/svg"><g stroke-linecap="round" stroke-width="5"><path d="m3 302.92c205.738-77.898 375.674-18.161 531.491-41.578 150.468-22.613 264.316-117.921 409.964-154.362 126.065-31.5415 241.545 0 444.755-103.70467" stroke="#fff"/><g stroke-linejoin="round"><path d="m3 324.066c205.738-77.754 259.19 30.787 464.424 0 205.235-30.787 211.286-114.557 403.913-162.664 163.883-40.928 314.663 13.357 517.873-90.1563" stroke="#a5a5a5"/><path d="m3 286.645c205.85-77.874 278.503-17.419 483.848-48.253 205.345-30.835 224.013-118.006 431.881-128.517 218.781-11.0624 271.941 28.665 475.271-75.0078" stroke="#ced8db"/></g></g></svg>