<svg viewBox="0 0 209 46" fill="none" xmlns="http://www.w3.org/2000/svg"><path d="M83.36 37.283c-.376 0-.716-.038-1.017-.113-.277-.1-.44-.264-.49-.49l-6.448-24.771a3.678 3.678 0 0 1-.075-.264 1.11 1.11 0 0 1-.038-.264c0-.427.54-.64 1.621-.64h.377c.377 0 .704.05.98.15.302.075.478.226.529.452l4.41 17.193c.152.528.29 1.106.416 1.734.125.604.238 1.182.339 1.735.1.553.163 1.018.189 1.395h.15c.1-.402.189-.805.264-1.207l.302-1.206c.1-.402.2-.805.302-1.207l4.561-18.399c.05-.251.214-.415.49-.49.277-.1.604-.15.981-.15h.603c.377 0 .704.05.98.15.277.075.44.239.49.49l4.337 17.155c.15.528.276 1.093.377 1.697.125.603.238 1.181.339 1.734.1.553.163 1.03.188 1.433h.151c.1-.402.189-.83.264-1.282a50.244 50.244 0 0 1 .566-2.3l4.562-18.475c.05-.226.213-.377.49-.452.301-.1.641-.15 1.018-.15h.226c1.081 0 1.621.213 1.621.64 0 .025-.012.1-.037.226a2.813 2.813 0 0 1-.076.302l-6.522 24.77c-.051.227-.227.39-.528.491a3.758 3.758 0 0 1-.98.113h-1.546c-.377 0-.717-.038-1.018-.113-.277-.1-.44-.264-.49-.49l-3.582-13.385c-.277-1.03-.54-2.199-.792-3.506-.226-1.307-.377-2.426-.453-3.356h-.15a38.596 38.596 0 0 1-.377 2.979c-.151 1.056-.327 1.923-.528 2.601L86.415 36.68c-.05.226-.227.39-.528.49a3.754 3.754 0 0 1-.98.113H83.36zm28.171 0c-1.006 0-1.508-.276-1.508-.83V23.22c0-1.03-.038-1.885-.113-2.564a16.733 16.733 0 0 0-.227-1.546 7.023 7.023 0 0 1-.113-.64c0-.177.076-.315.226-.415a1.64 1.64 0 0 1 .604-.264 3.29 3.29 0 0 1 .678-.151c.227-.025.403-.038.528-.038.302 0 .528.138.679.415.176.276.302.616.377 1.018.1.377.188.729.264 1.056.653-.905 1.345-1.597 2.074-2.074.754-.503 1.52-.754 2.299-.754.729 0 1.27.125 1.622.377.377.226.565.59.565 1.093 0 .226-.038.503-.113.83-.05.327-.138.616-.264.867-.1.226-.226.34-.377.34-.251 0-.503-.064-.754-.19-.226-.15-.666-.225-1.32-.225-.653 0-1.244.188-1.772.565-.527.377-.942.767-1.244 1.169l-.452.565v13.8c0 .553-.503.83-1.508.83h-.151zm11.96 0c-1.006 0-1.508-.276-1.508-.83v-18.21c0-.553.502-.83 1.508-.83h.15c1.006 0 1.509.277 1.509.83v18.21c0 .554-.503.83-1.509.83h-.15zm.075-22.509c-.603 0-1.03-.075-1.282-.226-.251-.15-.377-.352-.377-.603v-2.262c0-.252.126-.453.377-.604.252-.15.679-.226 1.282-.226s1.031.076 1.282.226a.631.631 0 0 1 .377.604v2.262c0 .251-.126.452-.377.603-.251.151-.679.226-1.282.226zm8.131 22.51c-1.006 0-1.508-.277-1.508-.83V9.684c0-.552.502-.829 1.508-.829h.151c1.005 0 1.508.277 1.508.83v16.853h.15l7.202-8.596c.176-.202.452-.34.829-.415a5.95 5.95 0 0 1 1.169-.113h.151c.88 0 1.319.163 1.319.49 0 .226-.125.477-.377.754l-7.842 9.275v-1.96l8.596 10.18c.227.25.34.452.34.602 0 .352-.553.528-1.659.528h-.151c-.402 0-.792-.025-1.169-.075-.377-.05-.666-.189-.867-.415l-7.541-8.936h-.15v8.597c0 .553-.503.83-1.508.83h-.151zm17.663 0c-1.005 0-1.508-.277-1.508-.83v-18.21c0-.554.503-.83 1.508-.83h.151c1.005 0 1.508.276 1.508.83v18.21c0 .553-.503.83-1.508.83h-.151zm.075-22.51c-.603 0-1.03-.075-1.281-.226-.252-.15-.378-.352-.378-.603v-2.262c0-.252.126-.453.378-.604.251-.15.678-.226 1.281-.226.604 0 1.031.076 1.282.226a.63.63 0 0 1 .377.604v2.262c0 .251-.125.452-.377.603-.251.151-.678.226-1.282.226zm8.659 22.51c-1.006 0-1.508-.277-1.508-.83v-16.25h-1.508c-.503 0-.754-.377-.754-1.131v-.453c0-.754.251-1.131.754-1.131h1.508v-3.582c0-1.13.163-2.036.49-2.714.327-.679.741-1.194 1.244-1.546a4.173 4.173 0 0 1 1.584-.754 6.997 6.997 0 0 1 1.545-.189c.352 0 .742.025 1.169.076.428.05.792.15 1.094.301.326.151.49.402.49.754 0 .1-.038.302-.113.604-.051.276-.139.54-.264.791-.101.252-.239.377-.415.377s-.352-.025-.528-.075c-.176-.075-.54-.113-1.093-.113-.352 0-.691.063-1.018.188-.302.126-.553.39-.754.792-.176.377-.264.98-.264 1.81v3.28h9.426c1.005 0 1.508.276 1.508.83v18.135c0 .553-.503.83-1.508.83h-.151c-1.006 0-1.508-.277-1.508-.83v-16.25h-7.767v16.25c0 .553-.503.83-1.508.83h-.151zm10.934-22.51c-.603 0-1.031-.075-1.282-.226-.251-.15-.377-.352-.377-.603v-2.262c0-.252.126-.453.377-.604.251-.15.679-.226 1.282-.226s1.03.076 1.282.226a.631.631 0 0 1 .377.604v2.262c0 .251-.126.452-.377.603-.252.151-.679.226-1.282.226zm14.156 22.66c-3.116 0-5.441-.817-6.975-2.45-1.508-1.635-2.262-4.136-2.262-7.504 0-2.237.327-4.11.98-5.617.679-1.508 1.672-2.652 2.979-3.431 1.307-.78 2.916-1.17 4.826-1.17 1.734 0 3.167.378 4.298 1.132 1.156.754 2.024 1.86 2.602 3.318.578 1.458.867 3.255.867 5.391 0 .151-.076.352-.226.604-.126.226-.289.44-.491.64-.201.202-.377.302-.527.302H177.34c.151 2.086.692 3.62 1.622 4.6.93.98 2.325 1.47 4.185 1.47 1.106 0 2.036-.125 2.79-.377.779-.276 1.395-.54 1.847-.791.453-.277.742-.415.867-.415.176 0 .365.125.566.377.201.251.377.528.528.83.151.301.226.527.226.678 0 .226-.176.478-.528.754-.352.276-.842.54-1.47.792-.604.251-1.32.465-2.149.64-.805.152-1.684.227-2.64.227zm-5.844-11.5h9.803c0-1.985-.377-3.468-1.131-4.448-.754-1.006-1.885-1.509-3.393-1.509-1.634 0-2.891.503-3.77 1.509-.88.98-1.383 2.463-1.509 4.448zm21.879 11.5c-1.508 0-2.815-.427-3.921-1.282-1.08-.88-1.923-2.074-2.526-3.582-.578-1.533-.867-3.267-.867-5.203 0-3.293.716-5.794 2.149-7.503 1.433-1.734 3.268-2.601 5.505-2.601 1.181 0 2.187.176 3.016.528a9.818 9.818 0 0 1 2.375 1.395V9.684c0-.552.503-.829 1.508-.829h.151c1.006 0 1.508.277 1.508.83v21.943c0 1.03.038 1.885.113 2.563.076.68.151 1.194.227 1.546.075.352.113.566.113.641 0 .176-.088.327-.264.453-.151.1-.339.188-.566.264a6.391 6.391 0 0 1-1.206.15c-.302 0-.541-.138-.717-.414a5.238 5.238 0 0 1-.377-1.056c-.075-.427-.15-.817-.226-1.169-.93.955-1.897 1.672-2.903 2.15a7.292 7.292 0 0 1-3.092.678zm.641-2.752c.83 0 1.684-.214 2.564-.641.905-.453 1.747-1.106 2.526-1.96V21.748a6.933 6.933 0 0 0-2.186-1.281 7.281 7.281 0 0 0-2.451-.415c-1.684 0-2.954.616-3.808 1.847-.855 1.207-1.282 2.929-1.282 5.166 0 2.438.402 4.323 1.206 5.655.805 1.307 1.948 1.96 3.431 1.96z" fill="#fff"/><path fill-rule="evenodd" clip-rule="evenodd" d="M55.923 0a3.022 3.022 0 0 1 3.022 3.022v27.15a3.022 3.022 0 1 1-6.044 0V24.91v-.016V3.022A3.022 3.022 0 0 1 55.923 0zM51.39 19.666v-7.438a3.777 3.777 0 0 0-7.554 0v2.888a9.82 9.82 0 0 1 7.554 4.55zm-9.065-4.55v-2.888a3.777 3.777 0 0 0-7.555 0v7.438a9.82 9.82 0 0 1 7.555-4.55zM34.77 30.124a9.82 9.82 0 0 0 7.555 4.55v6.812a3.777 3.777 0 0 1-7.555 0V30.124zm9.066 4.55a9.82 9.82 0 0 0 7.554-4.55v11.362a3.777 3.777 0 0 1-7.554 0v-6.813zm-23.42-29.04a3.777 3.777 0 0 1 3.778 3.777v10.255a9.82 9.82 0 0 0-7.555-4.55V9.411a3.777 3.777 0 0 1 3.778-3.777zm-5.288 9.482V9.411a3.777 3.777 0 1 0-7.554 0v10.255a9.82 9.82 0 0 1 7.554-4.55zM7.574 30.124a9.82 9.82 0 0 0 7.554 4.55v6.812a3.777 3.777 0 1 1-7.554 0V30.124zm9.065 4.55a9.82 9.82 0 0 0 7.555-4.55v11.362a3.777 3.777 0 1 1-7.555 0v-6.813zm9.066-9.758v7.517a3.777 3.777 0 0 0 7.554 0V3.777a3.777 3.777 0 0 0-7.554 0v21.139zM6.063 3.022a3.022 3.022 0 0 0-6.044 0v27.15a3.022 3.022 0 0 0 6.044 0V3.021z" fill="#fff"/><path fill-rule="evenodd" clip-rule="evenodd" d="M43.029 33.228c4.583 0 8.298-3.72 8.298-8.31 0-4.589-3.715-8.31-8.298-8.31s-8.298 3.721-8.298 8.31c0 4.59 3.715 8.31 8.298 8.31zm4.372-12.71l-5.866 5.874-2.879-2.882-1.461 1.463 4.34 4.346 7.328-7.338-1.462-1.463zm-31.415 12.71c4.583 0 8.298-3.72 8.298-8.31 0-4.589-3.715-8.31-8.298-8.31s-8.298 3.721-8.298 8.31c0 4.59 3.715 8.31 8.298 8.31zm4.372-12.71l-5.866 5.874-2.879-2.882-1.461 1.463 4.34 4.346 7.328-7.338-1.462-1.463z" fill="#06D6A0"/></svg>