<svg viewBox="0 0 98 20" fill="none" xmlns="http://www.w3.org/2000/svg"><path d="M58.457 17.333h3.123v-4.965c0-3 2.592-2.947 3.948-2.719V6.263c-2.163-.193-3.45.421-4.033 1.614h-.07l.018-1.561H58.44v11.017h.017zm16.201 0h1.957l3.227-4.158 2.729 4.158h3.638l-4.29-6.386 3.758-4.649h-3.621l-4.291 5.544h-.069L77.731.79h-3.073v16.544zm-35.27 0h2.42l3.708-7.087 3.587 7.087h2.454l5.51-11.035H53.41l-3.381 7.035-3.21-7.035h-2.626l-3.38 7.07-3.21-7.07h-3.656l5.44 11.035zM69.699 4.72c1.062 0 1.923-.88 1.923-1.965S70.76.79 69.699.79c-1.062 0-1.923.88-1.923 1.965 0 1.086.86 1.965 1.922 1.965zm1.545 1.58h-3.09v11.034h3.09V6.298z" fill="#000"/><path d="M7.243 7.246c1.493 0 2.197.28 3.278 1.386l5.801 5.93c.172.175.206.245.24.35.018.035.018.088.018.123s0 .088-.017.123c-.035.105-.069.175-.24.35l-3.965 4.07c-.172.176-.24.212-.344.247-.034.017-.085.017-.12.017-.034 0-.085 0-.12-.017-.103-.035-.171-.07-.343-.246L.189 8.088c-.326-.334-.206-.842.343-.842h6.711zM23.616 0c-1.493 0-2.197.28-3.278 1.386l-5.801 5.93c-.172.175-.206.245-.24.35-.018.036-.018.088-.018.123 0 .036 0 .088.018.123.034.106.068.176.24.351l3.965 4.053c.171.175.24.21.343.245.034.018.086.018.12.018s.086 0 .12-.018c.103-.035.172-.07.343-.245L30.67.825c.326-.334.206-.843-.343-.843h-6.71V0z" fill="#08CF65"/><path d="M94.98 13.667c-.378.579-1.168 1.298-2.49 1.298-1.544 0-2.642-.912-2.882-2.228H98v-.877c0-3.193-2.248-5.755-5.578-5.755-3.26 0-5.784 2.527-5.784 5.755 0 3.21 2.472 5.754 5.784 5.754 2.472 0 3.965-1 4.926-2.28l-2.369-1.667zm-2.73-5.088c1.425 0 2.42.807 2.764 1.965H89.47c.344-1.158 1.322-1.965 2.78-1.965z" fill="#000"/></svg>