<svg viewBox="0 0 173 46" fill="none" xmlns="http://www.w3.org/2000/svg"><path d="M66.168 37.823c-.334 0-.633-.033-.9-.1-.244-.089-.389-.233-.433-.433L59.137 15.4a3.203 3.203 0 0 1-.066-.234.98.98 0 0 1-.034-.233c0-.378.478-.567 1.433-.567h.333c.334 0 .622.045.867.134.266.066.422.2.466.4l3.898 15.193c.134.466.256.977.367 1.533.11.533.21 1.044.3 1.532.089.489.144.9.166 1.233h.134c.088-.355.166-.71.233-1.066l.266-1.066.267-1.067 4.032-16.26c.044-.221.188-.366.433-.432.244-.09.533-.134.866-.134h.533c.333 0 .622.045.866.134.245.066.39.21.433.433l3.832 15.16c.133.466.245.966.333 1.5.112.532.211 1.043.3 1.532.09.489.145.91.167 1.266h.133c.089-.355.167-.733.233-1.133a44.364 44.364 0 0 1 .5-2.032l4.032-16.327c.044-.2.189-.333.433-.4.266-.088.566-.133.9-.133h.2c.955 0 1.432.19 1.432.567 0 .022-.01.089-.033.2-.022.11-.045.2-.067.266l-5.764 21.89c-.044.2-.2.345-.466.434a3.32 3.32 0 0 1-.867.1h-1.366c-.333 0-.633-.033-.9-.1-.244-.089-.388-.233-.433-.433l-3.165-11.828a44.467 44.467 0 0 1-.7-3.1 33.833 33.833 0 0 1-.4-2.964h-.133c-.066.8-.177 1.677-.333 2.632-.133.933-.289 1.699-.466 2.299l-3.465 12.96c-.045.2-.2.345-.467.434-.244.067-.533.1-.866.1h-1.366zm24.094 0c-.888 0-1.333-.244-1.333-.733V25.395c0-.91-.033-1.666-.1-2.266-.066-.6-.133-1.055-.2-1.366a6.082 6.082 0 0 1-.1-.566c0-.156.067-.278.2-.367.156-.11.334-.189.534-.233.2-.067.4-.111.6-.133.2-.022.355-.034.466-.034.266 0 .466.123.6.367.155.244.266.544.333.9.089.333.166.644.233.932.578-.8 1.188-1.41 1.832-1.832.667-.444 1.344-.666 2.033-.666.644 0 1.122.11 1.433.333.333.2.5.522.5.966 0 .2-.034.444-.1.733a2.585 2.585 0 0 1-.234.766c-.089.2-.2.3-.333.3-.222 0-.444-.055-.666-.166-.2-.134-.589-.2-1.166-.2-.578 0-1.1.166-1.566.5-.467.333-.833.677-1.1 1.032l-.4.5V37.09c0 .489-.444.733-1.333.733h-.133zm10.169 0c-.888 0-1.332-.244-1.332-.733V20.997c0-.489.444-.733 1.332-.733h.134c.888 0 1.332.244 1.332.733V37.09c0 .489-.444.733-1.332.733h-.134zm.067-19.892c-.533 0-.91-.066-1.133-.2-.222-.133-.333-.31-.333-.533V15.2c0-.222.111-.4.333-.533.222-.133.6-.2 1.133-.2s.911.067 1.133.2a.557.557 0 0 1 .333.533v2c0 .222-.111.4-.333.532-.222.134-.6.2-1.133.2zm5.985 19.892c-.888 0-1.333-.244-1.333-.733V13.433c0-.488.445-.733 1.333-.733h.133c.889 0 1.333.245 1.333.733v14.894h.133l6.364-7.597c.156-.177.4-.3.733-.366.334-.067.678-.1 1.033-.1h.134c.777 0 1.166.144 1.166.433 0 .2-.111.422-.333.666l-6.931 8.197v-1.733l7.597 8.996c.2.222.3.4.3.533 0 .311-.489.467-1.466.467h-.133c-.356 0-.7-.022-1.033-.067-.334-.044-.589-.166-.767-.366l-6.664-7.897h-.133v7.597c0 .489-.444.733-1.333.733h-.133zm14.81 0c-.889 0-1.333-.244-1.333-.733V20.997c0-.489.444-.733 1.333-.733h.133c.888 0 1.333.244 1.333.733V37.09c0 .489-.445.733-1.333.733h-.133zm.066-19.892c-.533 0-.91-.066-1.133-.2-.222-.133-.333-.31-.333-.533V15.2c0-.222.111-.4.333-.533.223-.133.6-.2 1.133-.2s.911.067 1.133.2a.557.557 0 0 1 .333.533v2c0 .222-.111.4-.333.532-.222.134-.6.2-1.133.2zm7.252 19.892c-.889 0-1.333-.244-1.333-.733V22.73h-1.333c-.444 0-.666-.334-.666-1v-.4c0-.666.222-1 .666-1h1.333v-3.165c0-1 .145-1.8.433-2.399.289-.6.656-1.055 1.1-1.366a3.686 3.686 0 0 1 1.399-.666 6.186 6.186 0 0 1 1.366-.167c.311 0 .656.022 1.033.067.378.044.7.133.966.266.289.134.434.356.434.667 0 .088-.034.266-.1.533a2.62 2.62 0 0 1-.234.7c-.088.222-.211.333-.366.333-.156 0-.311-.023-.467-.067-.155-.067-.477-.1-.966-.1-.311 0-.611.056-.899.167-.267.11-.489.344-.667.7-.155.333-.233.866-.233 1.599v2.898h8.33c.888 0 1.332.245 1.332.733V37.09c0 .489-.444.733-1.332.733h-.134c-.888 0-1.332-.244-1.332-.733V22.73h-6.864v14.36c0 .489-.444.733-1.333.733h-.133zm9.662-19.892c-.533 0-.91-.066-1.132-.2-.223-.133-.334-.31-.334-.533V15.2c0-.222.111-.4.334-.533.222-.133.599-.2 1.132-.2.534 0 .911.067 1.133.2a.557.557 0 0 1 .333.533v2c0 .222-.111.4-.333.532-.222.134-.599.2-1.133.2zm11.711 20.025c-2.754 0-4.809-.722-6.164-2.166-1.333-1.443-1.999-3.654-1.999-6.63 0-1.977.289-3.632.866-4.965.6-1.332 1.477-2.343 2.632-3.032 1.155-.688 2.577-1.032 4.265-1.032 1.533 0 2.799.333 3.798 1 1.022.666 1.789 1.643 2.299 2.931.511 1.288.767 2.877.767 4.765 0 .133-.067.31-.2.533-.111.2-.256.389-.433.566-.178.178-.333.267-.467.267h-10.529c.134 1.843.611 3.198 1.433 4.065.822.866 2.055 1.3 3.699 1.3.977 0 1.799-.112 2.465-.334.689-.244 1.233-.477 1.633-.7.4-.244.655-.366.766-.366.156 0 .322.11.5.333.178.222.333.467.466.733.134.267.2.467.2.6 0 .2-.155.422-.466.666-.311.244-.744.478-1.3.7-.533.222-1.166.41-1.899.566-.711.134-1.488.2-2.332.2zm-5.165-10.162h8.663c0-1.755-.333-3.066-.999-3.932-.667-.888-1.666-1.332-2.999-1.332-1.444 0-2.554.444-3.332 1.332-.777.867-1.221 2.177-1.333 3.932zm19.335 10.162c-1.332 0-2.487-.377-3.465-1.133-.955-.777-1.699-1.832-2.232-3.165-.511-1.355-.766-2.888-.766-4.598 0-2.91.633-5.12 1.899-6.63 1.266-1.533 2.887-2.3 4.864-2.3 1.044 0 1.933.156 2.666.467a8.684 8.684 0 0 1 2.099 1.233v-8.397c0-.488.444-.733 1.333-.733h.133c.888 0 1.333.245 1.333.733v19.392c0 .91.033 1.666.1 2.266.066.6.133 1.055.2 1.366.066.31.1.5.1.566 0 .156-.078.289-.234.4-.133.089-.3.167-.499.233a5.61 5.61 0 0 1-1.067.134c-.266 0-.477-.123-.633-.367a4.589 4.589 0 0 1-.333-.933 28.994 28.994 0 0 0-.2-1.033c-.822.844-1.677 1.477-2.565 1.9-.867.4-1.777.6-2.733.6zm.567-2.432c.733 0 1.488-.189 2.266-.566.799-.4 1.543-.978 2.232-1.733v-9.13a6.136 6.136 0 0 0-1.933-1.132 6.423 6.423 0 0 0-2.165-.367c-1.489 0-2.61.544-3.366 1.633-.755 1.066-1.132 2.588-1.132 4.565 0 2.154.355 3.82 1.066 4.997.711 1.155 1.721 1.733 3.032 1.733z" fill="#fff"/><path fill-rule="evenodd" clip-rule="evenodd" d="M49.92 4.875a2.67 2.67 0 0 1 2.67 2.67v23.993a2.67 2.67 0 0 1-5.34 0V7.545a2.67 2.67 0 0 1 2.67-2.67zm-7.343 7.468a3.338 3.338 0 0 1 3.337 3.338v6.573a8.678 8.678 0 0 0-6.676-4.02V15.68a3.338 3.338 0 0 1 3.339-3.338zm-4.674 5.89v-2.552a3.338 3.338 0 0 0-6.676 0v6.573a8.678 8.678 0 0 1 6.676-4.02zm-6.676 13.263a8.677 8.677 0 0 0 6.676 4.02v6.021a3.338 3.338 0 0 1-6.676 0V31.496zm-1.335-4.636V33.537a3.338 3.338 0 0 1-6.676 0v-6.656-.006V8.213a3.338 3.338 0 0 1 6.676 0V26.86zm-8.011-4.606v-9.062a3.338 3.338 0 1 0-6.677 0v5.042a8.677 8.677 0 0 1 6.677 4.02zm-8.012-4.02v-5.042a3.338 3.338 0 0 0-6.676 0v9.062a8.677 8.677 0 0 1 6.676-4.02zM7.193 31.496a8.678 8.678 0 0 0 6.676 4.02v6.02a3.338 3.338 0 1 1-6.676 0v-10.04zm-1.335-4.613v-.008-19.33a2.67 2.67 0 0 0-5.34 0v23.993a2.67 2.67 0 0 0 5.34 0v-4.655zm9.346 8.633a8.678 8.678 0 0 0 6.677-4.02v10.041a3.338 3.338 0 0 1-6.677 0v-6.02zm24.034 0a8.678 8.678 0 0 0 6.676-4.02v10.041a3.338 3.338 0 0 1-6.676 0v-6.02z" fill="#fff"/><path fill-rule="evenodd" clip-rule="evenodd" d="M38.525 34.24c4.05 0 7.334-3.288 7.334-7.344 0-4.056-3.284-7.344-7.334-7.344s-7.333 3.288-7.333 7.344c0 4.056 3.283 7.344 7.333 7.344zm3.864-11.233l-5.184 5.191-2.544-2.547-1.291 1.293 3.835 3.841 6.476-6.485-1.292-1.293zM14.627 34.24c4.05 0 7.333-3.288 7.333-7.344 0-4.056-3.283-7.344-7.333-7.344-4.05 0-7.333 3.288-7.333 7.344 0 4.056 3.283 7.344 7.333 7.344zm3.864-11.233l-5.184 5.191-2.544-2.547-1.292 1.293 3.836 3.841 6.475-6.485-1.291-1.293z" fill="#06D6A0"/><path d="M148.057 9.375V.648h3.051c.608 0 1.109.105 1.504.315.395.207.689.487.882.84.194.349.29.737.29 1.163 0 .375-.067.685-.2.929a1.56 1.56 0 0 1-.52.58 2.367 2.367 0 0 1-.695.315v.085c.267.017.536.11.806.281.27.17.495.415.677.733.182.318.273.708.273 1.168 0 .437-.099.83-.298 1.18-.199.35-.513.627-.942.831-.429.205-.987.307-1.675.307h-3.153zm1.057-.938h2.096c.691 0 1.181-.133 1.47-.4.293-.27.439-.597.439-.98 0-.296-.075-.568-.226-.818a1.632 1.632 0 0 0-.643-.605c-.278-.154-.608-.23-.989-.23h-2.147v3.034zm0-3.954h1.96c.318 0 .605-.063.861-.188.258-.125.463-.3.613-.528.154-.227.23-.494.23-.801 0-.384-.133-.709-.4-.976-.267-.27-.69-.405-1.27-.405h-1.994v2.898zm9.355 5.028c-.63 0-1.174-.139-1.632-.417a2.804 2.804 0 0 1-1.052-1.176c-.245-.506-.367-1.094-.367-1.765 0-.67.122-1.26.367-1.772a2.892 2.892 0 0 1 1.031-1.202c.443-.29.96-.435 1.551-.435.341 0 .678.057 1.01.17a2.5 2.5 0 0 1 .908.555c.273.253.49.588.652 1.005.162.418.243.932.243 1.543v.426h-5.046v-.87h4.023c0-.368-.074-.698-.222-.988a1.67 1.67 0 0 0-.622-.686 1.741 1.741 0 0 0-.946-.251c-.4 0-.747.1-1.04.298a1.974 1.974 0 0 0-.669.767 2.256 2.256 0 0 0-.234 1.014v.58c0 .494.085.913.256 1.257.173.34.413.6.72.78a2.11 2.11 0 0 0 1.069.264c.265 0 .503-.037.716-.11.216-.078.402-.191.559-.342.156-.153.277-.344.362-.57l.971.272c-.102.33-.274.62-.515.87a2.52 2.52 0 0 1-.895.579 3.318 3.318 0 0 1-1.198.204zm7.087-6.681v.852h-3.392V2.83h3.392zm-2.403-1.569h1.005V7.5c0 .284.042.497.124.64.085.138.193.232.324.28.133.046.274.069.422.069.11 0 .201-.006.272-.017l.171-.034.204.903a2.034 2.034 0 0 1-.285.077 2.103 2.103 0 0 1-.465.042c-.284 0-.562-.06-.835-.183a1.658 1.658 0 0 1-.673-.558c-.176-.25-.264-.566-.264-.946V1.26zm5.842 8.267c-.415 0-.791-.078-1.129-.234a1.94 1.94 0 0 1-.806-.686c-.198-.301-.298-.665-.298-1.091 0-.375.074-.679.222-.912a1.56 1.56 0 0 1 .592-.554c.247-.133.52-.233.818-.298.301-.068.604-.122.908-.162.398-.051.72-.09.967-.115.25-.029.432-.075.546-.14.116-.066.174-.18.174-.342V4.96c0-.42-.115-.747-.345-.98-.227-.233-.572-.35-1.035-.35-.48 0-.857.106-1.13.316-.272.21-.464.435-.575.673l-.954-.34c.17-.398.397-.708.681-.93.287-.224.6-.38.938-.468.341-.091.676-.137 1.006-.137.21 0 .451.026.724.077.276.048.541.15.797.303.258.153.473.385.643.694.171.31.256.725.256 1.244v4.313h-1.006v-.886h-.051a1.769 1.769 0 0 1-.341.456c-.159.162-.37.3-.635.413-.264.114-.586.17-.967.17zm.153-.903c.398 0 .733-.078 1.006-.234a1.59 1.59 0 0 0 .835-1.385v-.92c-.042.05-.136.097-.281.14a4.76 4.76 0 0 1-.494.106 22.82 22.82 0 0 1-.963.128c-.262.034-.506.09-.733.166a1.267 1.267 0 0 0-.546.337c-.136.148-.204.35-.204.605 0 .35.129.614.388.793.261.176.592.264.992.264z" fill="#fff"/></svg>