<svg viewBox="0 0 196 196" fill="none" xmlns="http://www.w3.org/2000/svg"><path fill-rule="evenodd" clip-rule="evenodd" d="M98 196c54.124 0 98-43.876 98-98S152.124 0 98 0 0 43.876 0 98s43.876 98 98 98zm-.856-106.476h-11.28v16.04h11.28c3.613 0 6.738.562 9.375 1.685 2.636 1.123 4.663 2.881 6.079 5.273 1.416 2.344 2.124 5.469 2.124 9.375 0 3.028-.66 5.689-1.978 7.984-1.269 2.246-3.125 4.004-5.566 5.273-2.393 1.221-5.274 1.831-8.643 1.831-2.978 0-5.688-.61-8.13-1.831-2.392-1.22-4.272-2.905-5.64-5.053-1.367-2.149-2.05-4.59-2.05-7.325H61.548c0 5.274 1.025 9.839 3.076 13.697 2.1 3.808 4.883 6.982 8.35 9.521 3.515 2.49 7.421 4.37 11.718 5.64a48.822 48.822 0 0 0 13.257 1.831c5.42 0 10.425-.684 15.015-2.051 4.59-1.416 8.594-3.467 12.012-6.152 3.466-2.686 6.152-5.957 8.056-9.815 1.905-3.906 2.857-8.349 2.857-13.33 0-4.053-.757-7.739-2.271-11.059-1.514-3.37-3.76-6.275-6.738-8.716-2.553-2.135-5.626-3.838-9.219-5.112 2.806-1.303 5.269-2.87 7.388-4.703 2.93-2.539 5.176-5.37 6.738-8.496 1.563-3.174 2.344-6.445 2.344-9.814 0-6.64-1.514-12.207-4.541-16.7-3.028-4.492-7.251-7.885-12.671-10.18-5.42-2.344-11.743-3.516-18.97-3.516-6.396 0-12.256 1.221-17.578 3.662-5.322 2.442-9.57 5.835-12.744 10.181-3.125 4.346-4.687 9.448-4.687 15.308h21.166c0-2.637.66-4.883 1.978-6.739 1.318-1.855 3.076-3.296 5.273-4.32 2.198-1.026 4.59-1.539 7.178-1.539 3.272 0 5.982.61 8.13 1.831 2.148 1.172 3.735 2.832 4.761 4.98 1.074 2.1 1.611 4.517 1.611 7.251 0 3.028-.586 5.689-1.758 7.984-1.123 2.246-2.856 4.004-5.2 5.273-2.344 1.221-5.322 1.831-8.935 1.831z" fill="#06D6A0"/></svg>