<svg viewBox="0 0 588 424" fill="none" xmlns="http://www.w3.org/2000/svg"><path d="M176.5 281H160" stroke="#06D6A0" stroke-width="4" stroke-linecap="round" stroke-linejoin="round"/><path d="M238.667 189L227 200.667" stroke="#fff" stroke-width="4" stroke-linecap="round" stroke-linejoin="round"/><path d="M190.5 97h-4m-8 12v-4m-8-8h-4m12-8v-4M134 271h-4m-8 12v-4m-8-8h-4m12-8v-4M93.785 405.392l-3.464-2m-12.929 6.393l2-3.464m-2.928-10.929l-3.464-2m14.392-.928l2-3.464" stroke="#FF9FE5" stroke-width="4" stroke-linecap="round" stroke-linejoin="round"/><path d="M337 333l12.5 12.5m-12.5 0l12.5-12.5" stroke="#F4F4F4" stroke-width="4" stroke-linecap="round" stroke-linejoin="round" opacity=".5" filter="url(#filter0_f_749_2913)"/><path d="M425 172l12.5 12.5m-12.5 0l12.5-12.5" stroke="#F4F4F4" stroke-width="4" stroke-linecap="round" stroke-linejoin="round"/><path d="M8 298l12.5 12.5m-12.5 0L20.5 298" stroke="#F4F4F4" stroke-width="4" stroke-linecap="round" stroke-linejoin="round" opacity=".4" filter="url(#filter1_f_749_2913)"/><path d="M153.984 32.407l-4.597 12.556m-3.979-8.576l12.555 4.597" stroke="#F4F4F4" stroke-width="4" stroke-linecap="round" stroke-linejoin="round" opacity=".6" filter="url(#filter2_f_749_2913)"/><path d="M244.685 160.18c-3.016-2.776-7.979-10.019-3.702-16.779 5.347-8.451 13.265-4.506 18.257-13.891 3.993-7.509 2.636-12.769 1.458-14.461" stroke="#FF9FE5" stroke-width="4" stroke-linecap="round" stroke-linejoin="round"/><path d="M376.84 97.5c-1.834-3.667-3.9-12.2 2.5-17 8-6 14 .5 22-6.5 6.4-5.6 7-11 6.5-13" stroke="#FF9FE5" stroke-width="3" stroke-linecap="round" stroke-linejoin="round"/><path d="M165.909 401.486l10.807 7.914-8.038-10.719c-12.022-16.037-12.04-18.641-.192-34.812l7.914-10.807-10.717 8.039c-16.039 12.023-18.641 12.038-34.814.191l-10.807-7.914 8.038 10.719c12.026 16.036 12.041 18.638.191 34.812l-7.913 10.807 10.717-8.039c16.038-12.023 18.641-12.038 34.814-.191z" fill="#3B2A7F" filter="url(#filter3_f_749_2913)"/><path d="M273.658 237.351l1.501 11.746 1.983-11.677c2.969-17.469 4.629-19.065 22.209-21.306l11.746-1.501-11.677-1.981c-17.47-2.97-19.063-4.63-21.306-22.211l-1.501-11.747-1.984 11.678c-2.966 17.47-4.626 19.063-22.208 21.306l-11.747 1.501 11.677 1.981c17.47 2.97 19.063 4.63 21.307 22.211zm-170.93 84.905l9.272-7.367-11.017 4.35c-16.482 6.506-18.706 5.912-29.727-7.967L63.889 302l4.352 11.016c6.505 16.483 5.91 18.706-7.969 29.728L51 350.111l11.017-4.35c16.482-6.509 18.705-5.914 29.727 7.967L99.111 363l-4.352-11.016c-6.505-16.483-5.91-18.706 7.969-29.728z" fill="#FF858D"/><path d="M159.797 220c-4.833 3.5-12.1 12.5-4.5 18.5s15.834-2.167 19-6.5" stroke="#FF9FE5" stroke-width="4" stroke-linecap="round" stroke-linejoin="round"/><path d="M216.595 46c-3.468 2.545-8.682 9.09-3.229 13.455 5.454 4.363 11.362-1.576 13.634-4.728" stroke="#06D6A0" stroke-width="2" stroke-linecap="round" stroke-linejoin="round" opacity=".6" filter="url(#filter4_f_749_2913)"/><path d="M319.837 256.098c.943-5.893-.283-17.395-9.899-16.264-9.617 1.132-9.664 12.728-8.839 18.032" stroke="#fff" stroke-width="4" stroke-linecap="round" stroke-linejoin="round"/><path d="M122.879 170.453c-4.608-1.827-10.894-4.276-9.067-8.884 1.828-4.608 8.084-2.082 12.692-.254 4.608 1.828 10.895 4.276 9.067 8.885-1.828 4.608-8.083 2.081-12.692.253z" fill="#06D6A0"/><path d="M140.77 311.682l10.455 9.414 12.184-7.034-5.722 12.852 10.455 9.414-13.992-1.471-5.722 12.853-2.925-13.761-13.992-1.471 12.184-7.035-2.925-13.761z" fill="#fff"/><path d="M571.386 50.185l-7.795 11.712 8.73 11.033-13.547-3.794-7.795 11.712-.578-14.057-13.548-3.795 13.191-4.893-.578-14.057 8.73 11.033 13.19-4.894z" fill="#FF858D" opacity=".3" filter="url(#filter5_f_749_2913)"/><path d="M334.486 21.9l5.291 4.763 6.166-3.56-2.896 6.505 5.291 4.763-7.081-.744-2.895 6.504-1.481-6.964-7.08-.744 6.166-3.56-1.481-6.963z" fill="#fff" opacity=".5" filter="url(#filter6_f_749_2913)"/><path d="M55.05 29.746c3.174 6.656.352 14.622-6.304 17.796 6.656-3.174 14.622-.352 17.797 6.304-3.175-6.656-.353-14.622 6.303-17.796-6.656 3.174-14.622.352-17.796-6.304z" fill="#FF9FE5"/><path d="M261.472 245.272c.702 15.726-11.474 29.041-27.2 29.743 15.726-.702 29.041 11.474 29.743 27.2-.702-15.726 11.474-29.041 27.2-29.743-15.726.702-29.041-11.474-29.743-27.2z" fill="#3B2A7F"/><path d="M95.714 247.221l-1.967-14.719-14.719 1.968-1.967-14.719-14.718 1.967L60.376 207" stroke="#5DB7DE" stroke-width="4" stroke-linecap="round" stroke-linejoin="round" opacity=".7" filter="url(#filter7_f_749_2913)"/><path d="M371.5 266H355" stroke="#3B2A7F" stroke-width="4" stroke-linecap="round" stroke-linejoin="round"/><path d="M311.261 190.84c2.178-1.739 7.561-4.325 11.661-.749 5.126 4.469 1.655 9.382 7.446 13.709 4.633 3.462 8.309 3.095 9.568 2.478" stroke="#06D6A0" stroke-width="2" stroke-linecap="round" stroke-linejoin="round"/><path d="M290.065 143.899c-5.935.614-16.728 4.775-13.147 13.771 3.582 8.996 14.796 6.04 19.705 3.871" stroke="#A5A5A5" stroke-width="4" stroke-linecap="round" stroke-linejoin="round"/><path d="M365.597 155.886c-4.449 2.569-10.482 6.102-13.05 1.653-2.569-4.449 3.507-7.906 7.956-10.475 4.449-2.568 10.482-6.102 13.05-1.653 2.569 4.449-3.507 7.907-7.956 10.475z" fill="#FF9FE5"/><path d="M200 265.174l14.825-.844-.844-14.826 14.825-.844-.844-14.825 14.825-.845" stroke="#5DB7DE" stroke-width="4" stroke-linecap="round" stroke-linejoin="round"/><path d="M519 17h-4" stroke="#FF9FE5" stroke-width="3" stroke-linecap="round" stroke-linejoin="round" filter="url(#filter8_f_749_2913)"/><path d="M507 29v-4" stroke="#FF9FE5" stroke-width="3" stroke-linecap="round" stroke-linejoin="round" filter="url(#filter9_f_749_2913)"/><path d="M499 17h-4" stroke="#FF9FE5" stroke-width="3" stroke-linecap="round" stroke-linejoin="round" filter="url(#filter10_f_749_2913)"/><path d="M507 9V5" stroke="#FF9FE5" stroke-width="3" stroke-linecap="round" stroke-linejoin="round" filter="url(#filter11_f_749_2913)"/><path d="M82.374 163.031l7.334 12.007 13.685-3.264-9.153 10.684 7.333 12.007-12.99-5.403-9.153 10.684 1.125-14.024-12.99-5.403 13.685-3.264 1.124-14.024z" stroke="#A5A5A5" stroke-width="2" stroke-linejoin="round"/><circle cx="130" cy="95" r="9.5" stroke="#F4F4F4" stroke-width="3"/><path d="M212.071 198.394l-7.556-2.981c-5.166-2.04-9.277-3.549-12.739-4.373-3.475-.828-6.374-.986-9.097-.257-2.723.73-5.155 2.316-7.75 4.77-2.585 2.445-5.39 5.807-8.843 10.155l-5.057 6.367 2.983-7.56c2.04-5.165 3.548-9.276 4.373-12.738.827-3.475.985-6.375.256-9.098-.73-2.723-2.316-5.155-4.769-7.75-2.445-2.587-5.806-5.392-10.154-8.846l-6.364-5.052 7.556 2.981c5.165 2.04 9.276 3.549 12.738 4.373 3.474.827 6.374.985 9.097.255 2.722-.729 5.154-2.316 7.75-4.769 2.586-2.445 5.391-5.806 8.844-10.154l5.057-6.367-2.983 7.56c-2.039 5.166-3.548 9.277-4.372 12.739-.828 3.474-.986 6.374-.257 9.097.73 2.723 2.316 5.155 4.77 7.751 2.444 2.586 5.805 5.392 10.153 8.845v.001l6.364 5.051z" stroke="#5DB7DE" stroke-width="2"/><path d="M228.381 331.973l-1.39-1.066c-3.512-2.695-6.369-4.782-8.891-6.201-2.54-1.428-4.845-2.241-7.252-2.281-2.406-.04-4.737.695-7.323 2.037-2.568 1.333-5.493 3.324-9.092 5.899l-1.432 1.025 1.07-1.395h.001c2.694-3.511 4.781-6.369 6.2-8.891 1.428-2.54 2.24-4.845 2.28-7.252.041-2.406-.694-4.737-2.036-7.323-1.333-2.569-3.322-5.494-5.898-9.093v-.001l-1.02-1.425 1.389 1.065v.001c3.512 2.694 6.369 4.781 8.891 6.199 2.54 1.428 4.845 2.241 7.251 2.281 2.407.04 4.738-.695 7.323-2.037 2.569-1.333 5.494-3.323 9.093-5.898l1.432-1.025-1.07 1.395c-2.695 3.512-4.782 6.369-6.2 8.892-1.428 2.539-2.24 4.845-2.281 7.251-.04 2.407.694 4.738 2.036 7.324 1.333 2.568 3.323 5.493 5.898 9.093l1.021 1.426z" stroke="#FF858D" stroke-width="3"/><path d="M225.598 372.573l-.028.08c-1.312 3.838-2.763 8.083-4.762 11.082-.997 1.497-2.05 2.553-3.163 3.116-1.056.534-2.278.681-3.815.155-1.538-.526-2.413-1.39-2.922-2.459-.536-1.126-.72-2.606-.592-4.4.256-3.595 1.708-7.84 3.02-11.678l.028-.08.027-.081c1.313-3.837 2.764-8.082 4.763-11.081.997-1.497 2.049-2.554 3.162-3.116 1.057-.534 2.279-.681 3.816-.155 1.537.525 2.413 1.39 2.922 2.459.535 1.126.72 2.605.592 4.4-.256 3.595-1.708 7.839-3.021 11.677l-.027.081z" stroke="#fff" stroke-width="3" opacity=".6" filter="url(#filter12_f_749_2913)"/><circle cx="420.5" cy="238.5" r="11" stroke="#fff" stroke-width="3" opacity=".6" filter="url(#filter13_f_749_2913)"/><path d="M250.584 84L236 91.718" stroke="#fff" stroke-width="4" stroke-linecap="round" stroke-linejoin="round"/><path d="M115.685 207v13.371M109 213.685h13.371" stroke="#3B2A7F" stroke-width="4" stroke-linecap="round" stroke-linejoin="round"/><path d="M573.674 149.41c5.68 5.68 13.458 13.362 7.778 19.042-5.68 5.68-13.362-2.098-19.042-7.778-5.68-5.68-13.458-13.362-7.778-19.042 5.68-5.68 13.362 2.098 19.042 7.778z" fill="#06D6A0" opacity=".8" filter="url(#filter14_f_749_2913)"/><path d="M323.5 118a4.505 4.505 0 0 1-4.5-4.5c0-2.481 2.019-4.5 4.5-4.5s4.5 2.019 4.5 4.5-2.019 4.5-4.5 4.5z" fill="#5DB7DE"/><path d="M454.465 102l-3.155 11.774 11.774 3.155-3.155 11.775 11.774 3.155-3.154 11.774" stroke="#5DB7DE" stroke-width="2" stroke-linecap="round" stroke-linejoin="round"/><defs><filter id="filter0_f_749_2913" x="333" y="329" width="20.5" height="20.5" filterUnits="userSpaceOnUse" color-interpolation-filters="sRGB"><feFlood flood-opacity="0" result="BackgroundImageFix"/><feBlend in="SourceGraphic" in2="BackgroundImageFix" result="shape"/><feGaussianBlur stdDeviation="1" result="effect1_foregroundBlur_749_2913"/></filter><filter id="filter1_f_749_2913" x="0" y="290" width="28.5" height="28.5" filterUnits="userSpaceOnUse" color-interpolation-filters="sRGB"><feFlood flood-opacity="0" result="BackgroundImageFix"/><feBlend in="SourceGraphic" in2="BackgroundImageFix" result="shape"/><feGaussianBlur stdDeviation="3" result="effect1_foregroundBlur_749_2913"/></filter><filter id="filter2_f_749_2913" x="140.407" y="27.407" width="22.557" height="22.557" filterUnits="userSpaceOnUse" color-interpolation-filters="sRGB"><feFlood flood-opacity="0" result="BackgroundImageFix"/><feBlend in="SourceGraphic" in2="BackgroundImageFix" result="shape"/><feGaussianBlur stdDeviation="1.5" result="effect1_foregroundBlur_749_2913"/></filter><filter id="filter3_f_749_2913" x="119.062" y="352.062" width="58.654" height="58.654" filterUnits="userSpaceOnUse" color-interpolation-filters="sRGB"><feFlood flood-opacity="0" result="BackgroundImageFix"/><feBlend in="SourceGraphic" in2="BackgroundImageFix" result="shape"/><feGaussianBlur stdDeviation=".5" result="effect1_foregroundBlur_749_2913"/></filter><filter id="filter4_f_749_2913" x="208" y="43" width="22" height="21" filterUnits="userSpaceOnUse" color-interpolation-filters="sRGB"><feFlood flood-opacity="0" result="BackgroundImageFix"/><feBlend in="SourceGraphic" in2="BackgroundImageFix" result="shape"/><feGaussianBlur stdDeviation="1" result="effect1_foregroundBlur_749_2913"/></filter><filter id="filter5_f_749_2913" x="532.853" y="40.046" width="43.468" height="44.802" filterUnits="userSpaceOnUse" color-interpolation-filters="sRGB"><feFlood flood-opacity="0" result="BackgroundImageFix"/><feBlend in="SourceGraphic" in2="BackgroundImageFix" result="shape"/><feGaussianBlur stdDeviation="2" result="effect1_foregroundBlur_749_2913"/></filter><filter id="filter6_f_749_2913" x="327.801" y="19.899" width="22.537" height="22.232" filterUnits="userSpaceOnUse" color-interpolation-filters="sRGB"><feFlood flood-opacity="0" result="BackgroundImageFix"/><feBlend in="SourceGraphic" in2="BackgroundImageFix" result="shape"/><feGaussianBlur stdDeviation="1" result="effect1_foregroundBlur_749_2913"/></filter><filter id="filter7_f_749_2913" x="57.375" y="204" width="41.339" height="46.221" filterUnits="userSpaceOnUse" color-interpolation-filters="sRGB"><feFlood flood-opacity="0" result="BackgroundImageFix"/><feBlend in="SourceGraphic" in2="BackgroundImageFix" result="shape"/><feGaussianBlur stdDeviation=".5" result="effect1_foregroundBlur_749_2913"/></filter><filter id="filter8_f_749_2913" x="510.5" y="12.5" width="13" height="9" filterUnits="userSpaceOnUse" color-interpolation-filters="sRGB"><feFlood flood-opacity="0" result="BackgroundImageFix"/><feBlend in="SourceGraphic" in2="BackgroundImageFix" result="shape"/><feGaussianBlur stdDeviation="1.5" result="effect1_foregroundBlur_749_2913"/></filter><filter id="filter9_f_749_2913" x="502.5" y="20.5" width="9" height="13" filterUnits="userSpaceOnUse" color-interpolation-filters="sRGB"><feFlood flood-opacity="0" result="BackgroundImageFix"/><feBlend in="SourceGraphic" in2="BackgroundImageFix" result="shape"/><feGaussianBlur stdDeviation="1.5" result="effect1_foregroundBlur_749_2913"/></filter><filter id="filter10_f_749_2913" x="490.5" y="12.5" width="13" height="9" filterUnits="userSpaceOnUse" color-interpolation-filters="sRGB"><feFlood flood-opacity="0" result="BackgroundImageFix"/><feBlend in="SourceGraphic" in2="BackgroundImageFix" result="shape"/><feGaussianBlur stdDeviation="1.5" result="effect1_foregroundBlur_749_2913"/></filter><filter id="filter11_f_749_2913" x="502.5" y=".5" width="9" height="13" filterUnits="userSpaceOnUse" color-interpolation-filters="sRGB"><feFlood flood-opacity="0" result="BackgroundImageFix"/><feBlend in="SourceGraphic" in2="BackgroundImageFix" result="shape"/><feGaussianBlur stdDeviation="1.5" result="effect1_foregroundBlur_749_2913"/></filter><filter id="filter12_f_749_2913" x="192" y="343" width="54.962" height="54.962" filterUnits="userSpaceOnUse" color-interpolation-filters="sRGB"><feFlood flood-opacity="0" result="BackgroundImageFix"/><feBlend in="SourceGraphic" in2="BackgroundImageFix" result="shape"/><feGaussianBlur stdDeviation="1" result="effect1_foregroundBlur_749_2913"/></filter><filter id="filter13_f_749_2913" x="406" y="224" width="29" height="29" filterUnits="userSpaceOnUse" color-interpolation-filters="sRGB"><feFlood flood-opacity="0" result="BackgroundImageFix"/><feBlend in="SourceGraphic" in2="BackgroundImageFix" result="shape"/><feGaussianBlur stdDeviation="1" result="effect1_foregroundBlur_749_2913"/></filter><filter id="filter14_f_749_2913" x="550.652" y="137.652" width="34.781" height="34.781" filterUnits="userSpaceOnUse" color-interpolation-filters="sRGB"><feFlood flood-opacity="0" result="BackgroundImageFix"/><feBlend in="SourceGraphic" in2="BackgroundImageFix" result="shape"/><feGaussianBlur stdDeviation="1" result="effect1_foregroundBlur_749_2913"/></filter></defs></svg>