<svg fill="none" viewBox="0 0 528 197" xmlns="http://www.w3.org/2000/svg" xmlns:xlink="http://www.w3.org/1999/xlink"><filter id="a" color-interpolation-filters="sRGB" filterUnits="userSpaceOnUse" height="50.2212" width="45.3386" x="450.375" y="146.722"><feFlood flood-opacity="0" result="BackgroundImageFix"/><feBlend in="SourceGraphic" in2="BackgroundImageFix" mode="normal" result="shape"/><feGaussianBlur result="effect1_foregroundBlur_856_1491" stdDeviation="1.5"/></filter><filter id="b" color-interpolation-filters="sRGB" filterUnits="userSpaceOnUse" height="34.7808" width="34.7807" x="1.65186" y="126.067"><feFlood flood-opacity="0" result="BackgroundImageFix"/><feBlend in="SourceGraphic" in2="BackgroundImageFix" mode="normal" result="shape"/><feGaussianBlur result="effect1_foregroundBlur_856_1491" stdDeviation="1"/></filter><filter id="c" color-interpolation-filters="sRGB" filterUnits="userSpaceOnUse" height="51.6335" width="30.3943" x="147.31" y="129.722"><feFlood flood-opacity="0" result="BackgroundImageFix"/><feBlend in="SourceGraphic" in2="BackgroundImageFix" mode="normal" result="shape"/><feGaussianBlur result="effect1_foregroundBlur_856_1491" stdDeviation="2"/></filter><filter id="d" color-interpolation-filters="sRGB" filterUnits="userSpaceOnUse" height="22.5569" width="22.5569" x="285" y="135.722"><feFlood flood-opacity="0" result="BackgroundImageFix"/><feBlend in="SourceGraphic" in2="BackgroundImageFix" mode="normal" result="shape"/><feGaussianBlur result="effect1_foregroundBlur_856_1491" stdDeviation="1.5"/></filter><filter id="e" color-interpolation-filters="sRGB" filterUnits="userSpaceOnUse" height="28.5" width="28.5" x="498.584" y="0"><feFlood flood-opacity="0" result="BackgroundImageFix"/><feBlend in="SourceGraphic" in2="BackgroundImageFix" mode="normal" result="shape"/><feGaussianBlur result="effect1_foregroundBlur_856_1491" stdDeviation="3"/></filter><g filter="url(#a)" opacity=".7"><path d="m455.376 151.722 1.967 14.718 14.718-1.967 1.967 14.719 14.719-1.968 1.967 14.719" stroke="#fff" stroke-linecap="round" stroke-linejoin="round" stroke-width="4"/></g><g filter="url(#b)" opacity=".8"><path d="m13.4102 149.09c-5.68009-5.68-13.4582667-13.362-7.77816-19.042 5.68016-5.681 13.36206 2.098 19.04216 7.778s13.4583 13.362 7.7782 19.042-13.3621-2.098-19.0422-7.778z" fill="#fff"/></g><g filter="url(#c)"><path d="m169.549 176.355 3.155-11.774-11.775-3.155 3.155-11.774-11.774-3.155 3.155-11.775" stroke="#fff" stroke-linecap="round" stroke-linejoin="round" stroke-width="2"/></g><g filter="url(#d)" opacity=".6"><path d="m293.979 153.278 4.597-12.556m3.98 8.577-12.556-4.597" stroke="#fff" stroke-linecap="round" stroke-linejoin="round" stroke-width="4"/></g><g filter="url(#e)" opacity=".4"><path d="m519.084 20.5-12.5-12.5m12.5 0-12.5 12.5" stroke="#fff" stroke-linecap="round" stroke-linejoin="round" stroke-width="4"/></g></svg>