<svg viewBox="0 0 1364 1349" fill="none" xmlns="http://www.w3.org/2000/svg"><path fill-rule="evenodd" clip-rule="evenodd" d="M190 444c0 9.389-7.611 17-17 17s-17-7.611-17-17 7.611-17 17-17 17 7.611 17 17zm-20.06 3.015l12.017-12.018 2.995 2.994-15.012 15.012-8.892-8.891 2.995-2.994 5.897 5.897zM18 750c0 9.389-7.611 17-17 17s-17-7.611-17-17 7.611-17 17-17 17 7.611 17 17zm-20.06 3.015l12.017-12.018 2.994 2.994-15.011 15.012-8.892-8.891 2.995-2.994 5.897 5.897zM144 1260c0 9.39-7.611 17-17 17s-17-7.61-17-17 7.611-17 17-17 17 7.61 17 17zm-20.06 3.01l12.017-12.01 2.995 2.99L123.94 1269l-8.892-8.89 2.995-2.99 5.897 5.89zM5 1332c0 9.39-7.611 17-17 17s-17-7.61-17-17 7.611-17 17-17 17 7.61 17 17zm-20.06 3.01L-3.043 1323l2.995 2.99L-15.06 1341l-8.892-8.89 2.995-2.99 5.897 5.89zM271 756.5c0 10.217-8.283 18.5-18.5 18.5s-18.5-8.283-18.5-18.5 8.283-18.5 18.5-18.5 18.5 8.283 18.5 18.5zm-21.83 3.281l13.078-13.078 3.258 3.257-16.336 16.337-9.676-9.675 3.258-3.258 6.418 6.417zM519 935c0 7.18-5.82 13-13 13s-13-5.82-13-13 5.82-13 13-13 13 5.82 13 13zm-15.34 2.305l9.19-9.19 2.289 2.29-11.479 11.48-6.799-6.8 2.289-2.289 4.51 4.509zM439 526c0 6.627-5.373 12-12 12s-12-5.373-12-12 5.373-12 12-12 12 5.373 12 12zm-14.16 2.128l8.483-8.483 2.113 2.113-10.596 10.597-6.276-6.276 2.113-2.113 4.163 4.162zM688 659c0 5.523-4.477 10-10 10s-10-4.477-10-10 4.477-10 10-10 10 4.477 10 10zm-11.8 1.773l7.069-7.069 1.761 1.761-8.83 8.831-5.23-5.23 1.761-1.761 3.469 3.468zM857 409c0 5.523-4.477 10-10 10s-10-4.477-10-10 4.477-10 10-10 10 4.477 10 10zm-11.8 1.773l7.069-7.069 1.761 1.761-8.83 8.831-5.23-5.23 1.761-1.761 3.469 3.468zM959 406.5c0 6.904-5.596 12.5-12.5 12.5s-12.5-5.596-12.5-12.5 5.596-12.5 12.5-12.5 12.5 5.596 12.5 12.5zm-14.75 2.217l8.836-8.837 2.202 2.201-11.038 11.039-6.538-6.538 2.202-2.201 4.336 4.336zM883 582.5a8.5 8.5 0 1 1-17.001-.001A8.5 8.5 0 0 1 883 582.5zm-10.03 1.507l6.009-6.008 1.497 1.496-7.506 7.507-4.446-4.446 1.497-1.497 2.949 2.948zM603 249a7 7 0 1 1-14 0 7 7 0 0 1 14 0zm-8.26 1.241l4.948-4.948 1.233 1.233-6.181 6.181-3.661-3.661 1.233-1.233 2.428 2.428zM767 172a7 7 0 1 1-14 0 7 7 0 0 1 14 0zm-8.26 1.241l4.948-4.948 1.233 1.233-6.181 6.181-3.661-3.661 1.233-1.233 2.428 2.428zM804 109a8 8 0 1 1-16 0 8 8 0 0 1 16 0zm-9.44 1.419l5.655-5.656 1.409 1.409-7.064 7.065-4.184-4.184 1.409-1.409 2.775 2.775zM966 263a8 8 0 1 1-16 0 8 8 0 0 1 16 0zm-9.44 1.419l5.655-5.656 1.409 1.409-7.064 7.065-4.184-4.184 1.409-1.409 2.775 2.775zM1191 307a5.001 5.001 0 0 1-10 0 5.001 5.001 0 0 1 10 0zm-5.9.887l3.53-3.535.89.881-4.42 4.415-2.62-2.615.89-.881 1.73 1.735zM1122 114.5c0 5.247-4.25 9.5-9.5 9.5s-9.5-4.253-9.5-9.5 4.25-9.5 9.5-9.5 9.5 4.253 9.5 9.5zm-11.21 1.685l6.72-6.716 1.67 1.673-8.39 8.389-4.97-4.969 1.67-1.673 3.3 3.296zM998 7.5a9.5 9.5 0 0 1-9.5 9.5 9.5 9.5 0 0 1-9.5-9.5 9.5 9.5 0 0 1 9.5-9.5 9.5 9.5 0 0 1 9.5 9.5zm-11.21 1.685l6.716-6.716 1.673 1.673-8.389 8.39-4.969-4.97 1.673-1.673 3.296 3.296zM1364 97c0 6.075-4.92 11-11 11s-11-4.925-11-11 4.92-11 11-11 11 4.925 11 11zm-12.98 1.95l7.78-7.776 1.93 1.938-9.71 9.714-5.75-5.754 1.93-1.937 3.82 3.816z" fill="#06D6A0"/></svg>