<svg viewBox="0 0 394 209" fill="none" xmlns="http://www.w3.org/2000/svg"><path d="M236.557 88.112c5.936-.614 16.729-4.775 13.147-13.771-3.581-8.996-14.795-6.04-19.704-3.871" stroke="#fff" stroke-width="4" stroke-linecap="round" stroke-linejoin="round" filter="url(#filter0_f_856_1490)"/><path d="M176.488 84.624c2.296-1.326 4.672-2.694 6.754-3.26 1.021-.278 1.774-.302 2.304-.167.448.114.873.372 1.26 1.042.386.67.397 1.166.272 1.611-.148.527-.546 1.167-1.296 1.912-1.531 1.52-3.905 2.894-6.201 4.22-2.296 1.325-4.672 2.694-6.754 3.26-1.021.277-1.774.302-2.304.167-.448-.115-.873-.373-1.26-1.042-.386-.67-.397-1.166-.272-1.612.148-.527.546-1.166 1.296-1.912 1.531-1.52 3.905-2.894 6.201-4.22z" fill="#fff" stroke="#fff" stroke-width="4"/><path d="M366.359 122.703l-7.333-12.006-13.685 3.264 9.153-10.685-7.333-12.007 12.99 5.404 9.153-10.685-1.125 14.024 12.99 5.403-13.685 3.264-1.125 14.024z" stroke="#fff" stroke-width="2" stroke-linejoin="round"/><circle cx="264" cy="174" r="9.5" transform="rotate(-180 264 174)" stroke="#fff" stroke-width="3"/><path d="M140.354 119.031l7.556 2.981c5.166 2.04 9.277 3.549 12.739 4.374 3.475.828 6.375.986 9.097.256 2.723-.729 5.155-2.316 7.75-4.769 2.586-2.445 5.391-5.807 8.843-10.155l5.057-6.368-2.983 7.56c-2.039 5.166-3.548 9.277-4.372 12.739-.828 3.475-.986 6.374-.257 9.097.73 2.723 2.316 5.155 4.769 7.751 2.445 2.586 5.806 5.392 10.154 8.846l6.364 5.052-7.556-2.982c-5.165-2.039-9.276-3.548-12.737-4.372-3.475-.828-6.375-.985-9.097-.256-2.723.73-5.155 2.316-7.751 4.77-2.585 2.444-5.391 5.806-8.844 10.153l-5.057 6.368 2.983-7.561c2.039-5.165 3.548-9.276 4.373-12.738.827-3.475.985-6.375.256-9.097-.73-2.723-2.316-5.156-4.769-7.751-2.445-2.586-5.806-5.392-10.154-8.846l-6.364-5.052z" stroke="#fff" stroke-width="2"/><path d="M19.598 86.006l1.39 1.065c3.511 2.696 6.368 4.783 8.89 6.201 2.54 1.429 4.846 2.241 7.252 2.281 2.407.04 4.738-.694 7.323-2.036 2.568-1.334 5.493-3.324 9.092-5.9l1.432-1.025-1.07 1.395c-2.695 3.512-4.782 6.37-6.2 8.892-1.428 2.54-2.24 4.845-2.28 7.251-.041 2.407.693 4.738 2.035 7.324 1.333 2.568 3.323 5.493 5.898 9.093l1.02 1.426-1.389-1.066c-3.511-2.695-6.368-4.782-8.89-6.2-2.54-1.428-4.845-2.24-7.252-2.28-2.406-.04-4.737.694-7.323 2.037-2.568 1.333-5.493 3.322-9.092 5.897L19 121.386l1.07-1.395c2.695-3.511 4.782-6.369 6.2-8.891 1.429-2.54 2.24-4.845 2.281-7.252.04-2.406-.694-4.737-2.036-7.323-1.333-2.569-3.322-5.494-5.898-9.093l-1.02-1.426z" stroke="#fff" stroke-width="3"/><path d="M308.364 52.39l.027-.081c1.313-3.838 2.764-8.083 4.763-11.082.997-1.497 2.049-2.553 3.162-3.116 1.057-.534 2.279-.68 3.816-.155 1.537.526 2.413 1.39 2.922 2.459.535 1.126.72 2.606.592 4.4-.257 3.595-1.708 7.84-3.021 11.678l-.027.08-.028.08c-1.312 3.838-2.763 8.083-4.762 11.082-.997 1.497-2.05 2.554-3.163 3.116-1.056.534-2.278.681-3.815.155-1.538-.525-2.414-1.39-2.922-2.459-.536-1.126-.72-2.605-.592-4.4.256-3.595 1.708-7.84 3.02-11.677l.028-.08z" stroke="#fff" stroke-width="3" opacity=".6" filter="url(#filter1_f_856_1490)"/><path d="M130.147 98.53l-9.71-13.34m246.248 64.181V136m6.686 6.686H360" stroke="#fff" stroke-width="4" stroke-linecap="round" stroke-linejoin="round"/><path d="M219.5 138c2.481 0 4.5 2.019 4.5 4.5 0 2.482-2.019 4.5-4.5 4.5a4.504 4.504 0 0 1-4.5-4.5c0-2.481 2.018-4.5 4.5-4.5z" fill="#fff"/><defs><filter id="filter0_f_856_1490" x="222" y="60.211" width="36.417" height="35.901" filterUnits="userSpaceOnUse" color-interpolation-filters="sRGB"><feFlood flood-opacity="0" result="BackgroundImageFix"/><feBlend in="SourceGraphic" in2="BackgroundImageFix" result="shape"/><feGaussianBlur stdDeviation="3" result="effect1_foregroundBlur_856_1490"/></filter><filter id="filter1_f_856_1490" x="287" y="27" width="54.962" height="54.962" filterUnits="userSpaceOnUse" color-interpolation-filters="sRGB"><feFlood flood-opacity="0" result="BackgroundImageFix"/><feBlend in="SourceGraphic" in2="BackgroundImageFix" result="shape"/><feGaussianBlur stdDeviation="1" result="effect1_foregroundBlur_856_1490"/></filter></defs></svg>