<svg viewBox="0 0 922 467" fill="none" xmlns="http://www.w3.org/2000/svg"><path d="M91.313 235.312l-6.553-7.768c-4.072-4.829-7.369-8.551-10.383-11.237-3.023-2.694-5.821-4.401-8.91-5.133-3.09-.731-6.356-.459-10.266.595-3.897 1.05-8.51 2.899-14.313 5.391l-9.347 4.012 7.771-6.556c4.829-4.072 8.55-7.369 11.235-10.382 2.695-3.024 4.402-5.822 5.133-8.912.731-3.089.46-6.355-.593-10.265-1.05-3.898-2.898-8.512-5.388-14.316l-4.012-9.34 6.553 7.767c4.072 4.829 7.368 8.55 10.381 11.235 3.024 2.694 5.822 4.401 8.911 5.132 3.09.731 6.356.459 10.266-.594 3.897-1.05 8.511-2.898 14.314-5.389l9.347-4.012-7.771 6.556c-4.829 4.073-8.55 7.369-11.235 10.383-2.695 3.023-4.402 5.821-5.133 8.911-.731 3.089-.46 6.356.593 10.266 1.05 3.897 2.898 8.511 5.388 14.315l4.012 9.341zm774.132-23.559l-5.082-8.8-.001-.001c-3.157-5.471-5.746-9.715-8.239-12.89-2.502-3.185-4.955-5.358-7.867-6.623-2.913-1.264-6.176-1.571-10.21-1.223-4.021.347-8.888 1.354-15.04 2.784v.001l-9.907 2.302 8.805-5.084c5.47-3.158 9.714-5.747 12.889-8.241 3.185-2.501 5.358-4.955 6.622-7.867 1.265-2.912 1.573-6.175 1.225-10.21-.346-4.021-1.352-8.889-2.781-15.041l-2.303-9.901 5.082 8.801c3.157 5.47 5.746 9.714 8.239 12.888 2.501 3.185 4.955 5.358 7.867 6.622 2.913 1.264 6.176 1.572 10.21 1.224 4.021-.346 8.889-1.353 15.04-2.782l9.907-2.302-8.804 5.084h-.001c-5.47 3.158-9.714 5.747-12.889 8.24-3.184 2.501-5.358 4.955-6.622 7.867-1.264 2.913-1.573 6.176-1.225 10.21.346 4.021 1.353 8.889 2.782 15.041l2.303 9.901z" stroke="#5DB7DE" stroke-width="2"/><path d="M110.359 280.18c-8.033 0-18.965.068-18.965-7.965s10.932-7.965 18.965-7.965 18.965-.068 18.965 7.965-10.932 7.965-18.965 7.965z" fill="#06D6A0" opacity=".4" filter="url(#filter0_f_752_14432)"/><path d="M817.359 337.18c-8.033 0-18.965.068-18.965-7.965s10.932-7.965 18.965-7.965 18.965-.068 18.965 7.965-10.932 7.965-18.965 7.965z" fill="#06D6A0"/><path d="M20.735 97.468c-5.92-.756-17.377.833-15.942 10.409 1.435 9.576 13.027 9.256 18.301 8.264" stroke="#A5A5A5" stroke-width="4" stroke-linecap="round" stroke-linejoin="round"/><path d="M146.738 205.19c3.763-4.631 8.452-15.205-.442-19.034-8.894-3.828-14.733 6.191-16.67 11.196m726.112 57.838c3.763-4.631 8.452-15.205-.442-19.034-8.893-3.828-14.733 6.191-16.67 11.196" stroke="#A5A5A5" stroke-width="2" stroke-linecap="round" stroke-linejoin="round"/><path d="M174.946 231.521l7.448-5.917-8.85 3.494c-13.24 5.225-15.026 4.749-23.879-6.4l-5.917-7.448 3.495 8.849c5.226 13.24 4.748 15.026-6.401 23.88l-7.448 5.917 8.85-3.494c13.239-5.228 15.025-4.75 23.879 6.4l5.917 7.448-3.495-8.849c-5.226-13.24-4.748-15.026 6.401-23.88z" fill="#5DB7DE"/><path d="M199.894 209.25h-16.5" stroke="#06D6A0" stroke-width="2" stroke-linecap="round" stroke-linejoin="round" opacity=".6" filter="url(#filter1_f_752_14432)"/><path d="M129.222 237.22l-2.828-2.828m-14.142 2.828l2.828-2.828m0-11.314l-2.828-2.828m14.142 2.828l2.828-2.828" stroke="#FF9FE5" stroke-width="4" stroke-linecap="round" stroke-linejoin="round"/><path d="M148.846 284.338l4.347 13.38h14.069l-11.382 8.27 4.348 13.38-11.382-8.27-11.382 8.27 4.347-13.38-11.382-8.27h14.069l4.348-13.38zm667-26l4.347 13.38h14.069l-11.382 8.27 4.348 13.38-11.382-8.27-11.382 8.27 4.347-13.38-11.382-8.27h14.069l4.348-13.38zM42.894 4.671l2.712 8.346h8.776l-7.1 5.159 2.712 8.346-7.1-5.158-7.1 5.158 2.712-8.346-7.1-5.159h8.776l2.712-8.346z" stroke="#A5A5A5" stroke-width="2" stroke-linejoin="round"/><circle cx="196.894" cy="250.75" r="8.5" fill="#FF858D"/><path d="M247.51 188.898c-11.805 17.969-20.245 20.8-39.468 8.172 19.223 12.628 20.251 21.081 8.172 39.468 12.079-18.387 19.827-21.075 39.468-8.172-19.641-12.903-19.977-21.499-8.172-39.468z" fill="#FF9FE5"/><path d="M25.106 52.196l.715 22.616m-11.665-10.95l22.616-.716" stroke="#F4F4F4" stroke-width="2" stroke-linecap="round" stroke-linejoin="round" opacity=".5" filter="url(#filter2_f_752_14432)"/><path d="M95.216 135.772c-4.051-.629-12.205-3.886-12.412-11.883-.258-9.997 8.516-11.124 7.442-21.7-.86-8.46-4.914-12.077-6.834-12.828m803.804 185.411c-4.051-.629-12.205-3.886-12.412-11.883-.258-9.997 8.516-11.124 7.442-21.7-.859-8.461-4.914-12.077-6.834-12.828" stroke="#FF9FE5" stroke-width="4" stroke-linecap="round" stroke-linejoin="round"/><circle cx="58.894" cy="98.75" r="7" stroke="#FF858D" stroke-width="3"/><circle cx="879.894" cy="129.75" r="7" stroke="#FF858D" stroke-width="3"/><path d="M225.402 326.416l-1.089-1.371h-.001c-2.752-3.467-5.018-6.185-7.121-8.173-2.117-2.002-4.156-3.35-6.481-3.973-2.325-.623-4.764-.475-7.598.2-2.815.67-6.135 1.891-10.252 3.517l-1.638.646 1.377-1.093c3.466-2.753 6.184-5.019 8.172-7.122 2.002-2.117 3.349-4.156 3.972-6.481.623-2.325.476-4.764-.198-7.599-.67-2.815-1.89-6.135-3.515-10.252v-.001l-.644-1.63 1.089 1.371c2.752 3.466 5.018 6.184 7.121 8.172 2.117 2.001 4.156 3.349 6.481 3.972 2.325.623 4.764.475 7.599-.199 2.815-.67 6.135-1.891 10.251-3.516l1.638-.646-1.376 1.093c-3.466 2.753-6.184 5.019-8.172 7.122-2.002 2.117-3.35 4.156-3.973 6.481-.623 2.325-.476 4.764.199 7.599.669 2.815 1.89 6.135 3.515 10.252v.001l.644 1.63z" stroke="#FF858D" stroke-width="3"/><path fill-rule="evenodd" clip-rule="evenodd" d="M280.394 341.75c0 10.217-8.283 18.5-18.5 18.5s-18.5-8.283-18.5-18.5 8.283-18.5 18.5-18.5 18.5 8.283 18.5 18.5zm-21.831 3.281l13.079-13.078 3.258 3.257-16.337 16.337-9.675-9.675 3.258-3.258 6.417 6.417zM857.394 103.25a8 8 0 1 1-16 0 8 8 0 0 1 16 0zm-9.44 1.419l5.655-5.656 1.409 1.409-7.064 7.065-4.184-4.184 1.409-1.409 2.775 2.775zM685.394 410.75c0 10.217-8.283 18.5-18.5 18.5s-18.5-8.283-18.5-18.5 8.283-18.5 18.5-18.5 18.5 8.283 18.5 18.5zm-21.831 3.281l13.079-13.078 3.258 3.257-16.337 16.337-9.675-9.675 3.258-3.258 6.417 6.417zM826.394 220.75c0 10.217-8.283 18.5-18.5 18.5s-18.5-8.283-18.5-18.5 8.283-18.5 18.5-18.5 18.5 8.283 18.5 18.5zm-21.831 3.281l13.079-13.078 3.258 3.257-16.337 16.337-9.675-9.675 3.258-3.258 6.417 6.417zM50.393 136.75a6.5 6.5 0 1 1-12.999 0 6.5 6.5 0 0 1 13 0zm-7.67 1.153l4.596-4.595 1.145 1.144-5.74 5.74-3.4-3.399 1.145-1.145 2.255 2.255zm39.67-72.153c0 6.351-5.148 11.5-11.5 11.5-6.35 0-11.5-5.149-11.5-11.5s5.15-11.5 11.5-11.5c6.352 0 11.5 5.149 11.5 11.5zm-13.57 2.04l8.13-8.13 2.026 2.025L68.824 71.84l-6.015-6.014 2.025-2.026 3.99 3.99z" fill="#06D6A0"/><path d="M298.286 253.604h.001l8.461.564-8.256 1.922c-5.536 1.288-9.874 2.409-13.267 3.728-3.405 1.324-5.935 2.876-7.8 5.071-1.865 2.194-2.989 4.941-3.747 8.514-.756 3.561-1.163 8.023-1.541 13.693v.001l-.563 8.455-1.921-8.251c-1.287-5.537-2.408-9.875-3.727-13.268-1.324-3.406-2.876-5.936-5.07-7.801-2.195-1.865-4.941-2.988-8.515-3.746-3.561-.754-8.023-1.16-13.693-1.538l-8.461-.564 8.255-1.922c5.536-1.288 9.875-2.409 13.268-3.728 3.405-1.324 5.935-2.876 7.8-5.071 1.865-2.194 2.989-4.941 3.747-8.514.755-3.561 1.162-8.023 1.541-13.693v-.001l.562-8.455 1.921 8.251c1.288 5.536 2.408 9.874 3.728 13.267 1.324 3.405 2.876 5.934 5.07 7.799 2.195 1.865 4.942 2.989 8.515 3.746 3.561.755 8.022 1.162 13.692 1.541z" stroke="#5DB7DE" stroke-width="2"/><circle cx="297.894" cy="319.75" r="7" stroke="#FF858D" stroke-width="3" filter="url(#filter3_f_752_14432)"/><path d="M295.394 281.25l10.5 10.5 10.5-10.5 10.5 10.5 10.5-10.5 10.5 10.5" stroke="#5DB7DE" stroke-width="3" stroke-linecap="round" stroke-linejoin="round"/><path d="M340.894 311.25h-16.5m534.5-12l-16.5.035" stroke="#06D6A0" stroke-width="2" stroke-linecap="round" stroke-linejoin="round"/><path d="M326.394 216.25h-4m-8 12v-4m-8-8h-4m12-8v-4" stroke="#FF9FE5" stroke-width="2" stroke-linecap="round" stroke-linejoin="round"/><path d="M330.007 353.863l-.06.061c-2.868 2.868-6.04 6.04-9.155 7.853-1.554.905-2.964 1.39-4.211 1.405-1.184.014-2.346-.391-3.494-1.54-1.149-1.149-1.555-2.311-1.541-3.495.015-1.247.5-2.656 1.405-4.211 1.814-3.115 4.985-6.287 7.854-9.155l.06-.06.06-.06c2.868-2.868 6.04-6.04 9.155-7.854 1.554-.905 2.964-1.39 4.211-1.405 1.184-.014 2.346.392 3.495 1.541 1.148 1.149 1.554 2.31 1.54 3.494-.015 1.247-.5 2.657-1.405 4.211-1.813 3.115-4.985 6.287-7.853 9.155l-.061.06zm560-268l-.06.06c-2.868 2.869-6.04 6.04-9.155 7.854-1.554.905-2.964 1.39-4.211 1.405-1.184.014-2.346-.392-3.494-1.54-1.149-1.15-1.555-2.311-1.541-3.495.015-1.247.5-2.657 1.405-4.211 1.814-3.115 4.985-6.287 7.854-9.155l.06-.06.06-.06c2.868-2.868 6.04-6.04 9.155-7.854 1.554-.905 2.964-1.39 4.211-1.405 1.184-.014 2.346.392 3.495 1.54 1.148 1.15 1.554 2.311 1.54 3.495-.015 1.247-.5 2.657-1.405 4.211-1.813 3.115-4.985 6.287-7.853 9.155l-.061.06z" stroke="#06D6A0" stroke-width="3"/><path d="M379.795 252.975l11.592 2.42-10.388-5.69c-15.54-8.515-16.506-10.604-12.88-27.952l2.42-11.592-5.688 10.389c-8.515 15.54-10.605 16.504-27.954 12.879l-11.592-2.42 10.388 5.69c15.543 8.512 16.506 10.602 12.88 27.952l-2.42 11.592 5.688-10.389c8.515-15.54 10.605-16.504 27.954-12.879z" fill="#FF858D"/><path d="M475.894 384.249h-16.5M23.375 173.145l-8.25-14.29" stroke="#06D6A0" stroke-width="4" stroke-linecap="round" stroke-linejoin="round"/><path d="M538.061 292.249l-11.667 11.667" stroke="#fff" stroke-width="4" stroke-linecap="round" stroke-linejoin="round"/><path d="M433.394 313.249h-4m-8 12v-4m-8-8h-4m12-8v-4m12 73h-4m-8 12v-4m-8-8h-4m12-8v-4m318.785-76.607l-3.465-2m-12.928 6.393l2-3.464m-2.928-10.929l-3.464-2m14.392-.928l2-3.464" stroke="#FF9FE5" stroke-width="4" stroke-linecap="round" stroke-linejoin="round"/><path d="M715.394 312.25l12.5 12.5m-12.5 0l12.5-12.5" stroke="#F4F4F4" stroke-width="4" stroke-linecap="round" stroke-linejoin="round" opacity=".5" filter="url(#filter4_f_752_14432)"/><path d="M905.394 33.25l12.5 12.5m-12.5 0l12.5-12.5" stroke="#F4F4F4" stroke-width="4" stroke-linecap="round" stroke-linejoin="round" opacity=".5" filter="url(#filter5_f_752_14432)"/><path d="M542.394 429.25l12.5 12.5m-12.5 0l12.5-12.5" stroke="#F4F4F4" stroke-width="4" stroke-linecap="round" stroke-linejoin="round"/><path d="M307.394 401.249l12.5 12.5m-12.5 0l12.5-12.5" stroke="#F4F4F4" stroke-width="4" stroke-linecap="round" stroke-linejoin="round" opacity=".4" filter="url(#filter6_f_752_14432)"/><path d="M626.378 247.656l-4.597 12.556m-3.98-8.576l12.556 4.597" stroke="#F4F4F4" stroke-width="4" stroke-linecap="round" stroke-linejoin="round" opacity=".6" filter="url(#filter7_f_752_14432)"/><path d="M553.079 272.43c-3.016-2.776-7.979-10.019-3.702-16.779 5.347-8.45 13.265-4.506 18.257-13.891 3.993-7.508 2.636-12.769 1.458-14.461" stroke="#FF9FE5" stroke-width="4" stroke-linecap="round" stroke-linejoin="round"/><path d="M641.234 293.75c-1.834-3.666-3.9-12.2 2.5-17 8-6 14 .5 22-6.5 6.4-5.6 7-11 6.5-13" stroke="#FF9FE5" stroke-width="3" stroke-linecap="round" stroke-linejoin="round"/><path d="M788.303 352.736l10.807 7.914-8.038-10.719c-12.022-16.037-12.04-18.641-.192-34.812l7.914-10.807-10.717 8.039c-16.039 12.023-18.641 12.038-34.814.191l-10.807-7.914 8.038 10.719c12.026 16.036 12.041 18.638.192 34.812l-7.914 10.807 10.717-8.039c16.038-12.023 18.641-12.038 34.814-.191z" fill="#5DB7DE" filter="url(#filter8_f_752_14432)"/><path d="M573.052 340.6l1.501 11.747 1.983-11.678c2.969-17.469 4.629-19.064 22.209-21.306l11.746-1.501-11.677-1.981c-17.47-2.97-19.063-4.63-21.306-22.211l-1.501-11.747-1.984 11.678c-2.966 17.47-4.626 19.064-22.208 21.306l-11.747 1.501 11.677 1.981c17.47 2.97 19.064 4.63 21.307 22.211zm-170.93 84.905l9.272-7.367-11.017 4.35c-16.482 6.506-18.706 5.912-29.727-7.967l-7.367-9.272 4.352 11.016c6.505 16.483 5.91 18.706-7.969 29.728l-9.272 7.367 11.017-4.35c16.482-6.509 18.705-5.914 29.727 7.967l7.367 9.272-4.352-11.015c-6.505-16.484-5.91-18.707 7.969-29.729z" fill="#FF858D"/><path d="M459.191 323.249c-4.833 3.5-12.1 12.5-4.5 18.5s15.834-2.167 19-6.5m430.5-164.999c-4.833 3.5-12.1 12.5-4.5 18.5s15.834-2.167 19-6.5" stroke="#FF9FE5" stroke-width="4" stroke-linecap="round" stroke-linejoin="round"/><path d="M509.989 219.25c-3.468 2.546-8.682 9.091-3.229 13.455 5.454 4.364 11.362-1.576 13.634-4.727" stroke="#06D6A0" stroke-width="2" stroke-linecap="round" stroke-linejoin="round" opacity=".6" filter="url(#filter9_f_752_14432)"/><path d="M619.231 359.347c.943-5.893-.283-17.395-9.899-16.264-9.617 1.132-9.664 12.728-8.839 18.032" stroke="#fff" stroke-width="4" stroke-linecap="round" stroke-linejoin="round"/><path d="M422.273 273.703c-4.608-1.828-10.895-4.277-9.067-8.885 1.828-4.608 8.084-2.082 12.692-.254 4.608 1.828 10.895 4.277 9.067 8.885-1.828 4.608-8.084 2.081-12.692.254z" fill="#06D6A0"/><path d="M449.164 412.932l10.455 9.414 12.184-7.035-5.722 12.853 10.455 9.414-13.992-1.471-5.722 12.853-2.925-13.762-13.992-1.47 12.184-7.035-2.925-13.761z" fill="#fff"/><path d="M722.78 210.435l-7.795 11.712 8.73 11.033-13.547-3.794-7.795 11.712-.578-14.057-13.548-3.795 13.191-4.893-.578-14.057 8.73 11.033 13.19-4.894z" fill="#FF858D" opacity=".3" filter="url(#filter10_f_752_14432)"/><path d="M618.88 194.15l5.291 4.763 6.166-3.559-2.896 6.504 5.291 4.763-7.081-.744-2.896 6.504-1.48-6.964-7.08-.744 6.165-3.56-1.48-6.963z" fill="#fff" opacity=".5" filter="url(#filter11_f_752_14432)"/><path d="M413.444 224.995c3.174 6.656.352 14.623-6.304 17.796 6.656-3.173 14.622-.352 17.796 6.304-3.174-6.656-.352-14.622 6.304-17.796-6.656 3.174-14.622.352-17.796-6.304zm318 150.001c3.174 6.656.352 14.622-6.304 17.796 6.656-3.174 14.622-.352 17.796 6.304-3.174-6.656-.352-14.622 6.304-17.796-6.656 3.174-14.622.352-17.796-6.304z" fill="#FF9FE5"/><path d="M395.108 350.47l-1.967-14.719-14.719 1.968L376.455 323l-14.718 1.967-1.968-14.718" stroke="#5DB7DE" stroke-width="4" stroke-linecap="round" stroke-linejoin="round" opacity=".7" filter="url(#filter12_f_752_14432)"/><path d="M610.655 294.09c2.178-1.74 7.561-4.326 11.661-.75 5.126 4.469 1.655 9.382 7.446 13.709 4.633 3.462 8.309 3.095 9.569 2.479" stroke="#06D6A0" stroke-width="2" stroke-linecap="round" stroke-linejoin="round"/><path d="M589.459 247.148c-5.935.614-16.728 4.775-13.147 13.771 3.582 8.996 14.796 6.041 19.705 3.871" stroke="#A5A5A5" stroke-width="4" stroke-linecap="round" stroke-linejoin="round"/><path d="M662.991 241.136c-4.449 2.569-10.482 6.102-13.05 1.653-2.569-4.449 3.507-7.907 7.956-10.475 4.449-2.569 10.482-6.102 13.05-1.653 2.569 4.449-3.508 7.907-7.956 10.475z" fill="#FF9FE5"/><path d="M499.394 368.423l14.825-.844-.844-14.826 14.825-.844-.844-14.825 14.825-.845" stroke="#5DB7DE" stroke-width="4" stroke-linecap="round" stroke-linejoin="round"/><path d="M772.394 238.25h-4" stroke="#FF9FE5" stroke-width="3" stroke-linecap="round" stroke-linejoin="round" filter="url(#filter13_f_752_14432)"/><path d="M760.394 250.25v-4" stroke="#FF9FE5" stroke-width="3" stroke-linecap="round" stroke-linejoin="round" filter="url(#filter14_f_752_14432)"/><path d="M752.394 238.25h-4" stroke="#FF9FE5" stroke-width="3" stroke-linecap="round" stroke-linejoin="round" filter="url(#filter15_f_752_14432)"/><path d="M760.394 230.25v-4" stroke="#FF9FE5" stroke-width="3" stroke-linecap="round" stroke-linejoin="round" filter="url(#filter16_f_752_14432)"/><path d="M550.768 363.281l7.334 12.007 13.685-3.264-9.153 10.684 7.333 12.007-12.99-5.403-9.153 10.684 1.125-14.024-12.99-5.403 13.685-3.264 1.124-14.024z" stroke="#A5A5A5" stroke-width="2" stroke-linejoin="round"/><circle cx="384.394" cy="285.249" r="9.5" stroke="#F4F4F4" stroke-width="3"/><circle cx="771.394" cy="281.25" r="9.5" stroke="#F4F4F4" stroke-width="3"/><path d="M514.105 311.675l-3.993-5.007c-3.061-3.841-5.553-6.816-7.85-8.98-2.307-2.173-4.477-3.586-6.911-4.234-2.434-.647-5.019-.499-8.101.24-3.068.737-6.707 2.081-11.271 3.893l-5.96 2.366 5.011-3.996c3.84-3.061 6.815-5.553 8.979-7.85 2.173-2.307 3.586-4.477 4.233-6.911.648-2.435.5-5.02-.239-8.101-.736-3.069-2.08-6.709-3.89-11.273l-2.366-5.955 3.994 5.008c3.061 3.84 5.552 6.814 7.849 8.978 2.307 2.173 4.477 3.586 6.911 4.233 2.435.648 5.02.5 8.101-.24 3.069-.736 6.708-2.08 11.271-3.89h.001l5.96-2.366-5.011 3.996c-3.84 3.061-6.815 5.552-8.979 7.85-2.173 2.307-3.586 4.477-4.234 6.911-.647 2.434-.499 5.019.24 8.101.736 3.069 2.079 6.709 3.89 11.272v.001l2.365 5.954z" stroke="#5DB7DE" stroke-width="2"/><path d="M674.775 371.223l-1.39-1.066c-3.512-2.695-6.369-4.782-8.891-6.201-2.54-1.428-4.845-2.241-7.252-2.281-2.406-.04-4.737.695-7.323 2.037-2.568 1.333-5.493 3.324-9.092 5.899l-1.432 1.025 1.07-1.395c2.695-3.511 4.782-6.369 6.2-8.891 1.429-2.54 2.241-4.845 2.281-7.252.041-2.406-.694-4.737-2.036-7.323-1.333-2.569-3.323-5.494-5.898-9.093v-.001l-1.021-1.425 1.39 1.065c3.511 2.695 6.368 4.782 8.891 6.2 2.539 1.428 4.845 2.241 7.251 2.281 2.407.04 4.738-.695 7.323-2.037 2.569-1.333 5.494-3.323 9.093-5.898l1.432-1.025-1.07 1.395c-2.695 3.512-4.782 6.369-6.2 8.892-1.428 2.539-2.241 4.845-2.281 7.251-.04 2.407.694 4.738 2.036 7.324 1.333 2.568 3.323 5.493 5.898 9.093l1.021 1.426z" stroke="#FF858D" stroke-width="3"/><path d="M691.992 298.823l-.028.08c-1.312 3.838-2.763 8.083-4.762 11.082-.997 1.497-2.05 2.553-3.163 3.116-1.056.534-2.278.681-3.815.155-1.538-.526-2.414-1.39-2.922-2.459-.536-1.126-.721-2.606-.592-4.4.256-3.595 1.708-7.84 3.02-11.678l.028-.08.027-.081c1.313-3.837 2.764-8.082 4.763-11.081.997-1.497 2.049-2.554 3.162-3.116 1.057-.534 2.279-.681 3.816-.155 1.537.525 2.413 1.39 2.922 2.459.535 1.126.72 2.605.592 4.4-.257 3.595-1.708 7.839-3.021 11.677l-.027.081z" stroke="#fff" stroke-width="3" opacity=".6" filter="url(#filter17_f_752_14432)"/><circle cx="702.894" cy="353.75" r="11" stroke="#fff" stroke-width="3" opacity=".6" filter="url(#filter18_f_752_14432)"/><path d="M455.978 287.25l-14.584 7.718" stroke="#fff" stroke-width="4" stroke-linecap="round" stroke-linejoin="round"/><path d="M618.068 397.66c5.68 5.68 13.458 13.362 7.778 19.042-5.68 5.681-13.362-2.098-19.042-7.778-5.68-5.68-13.458-13.362-7.778-19.042 5.68-5.68 13.362 2.098 19.042 7.778z" fill="#06D6A0" opacity=".8" filter="url(#filter19_f_752_14432)"/><path d="M698.894 264.25a4.505 4.505 0 0 1-4.5-4.5c0-2.481 2.018-4.5 4.5-4.5 2.481 0 4.5 2.019 4.5 4.5s-2.019 4.5-4.5 4.5z" fill="#5DB7DE"/><path d="M458.937 227.25l-7.398 9.689 9.689 7.397-7.398 9.689 9.688 7.397-7.397 9.689" stroke="#5DB7DE" stroke-width="2" stroke-linecap="round" stroke-linejoin="round"/><defs><filter id="filter0_f_752_14432" x="89.394" y="262.25" width="41.93" height="19.93" filterUnits="userSpaceOnUse" color-interpolation-filters="sRGB"><feFlood flood-opacity="0" result="BackgroundImageFix"/><feBlend in="SourceGraphic" in2="BackgroundImageFix" result="shape"/><feGaussianBlur stdDeviation="1" result="effect1_foregroundBlur_752_14432"/></filter><filter id="filter1_f_752_14432" x="179.394" y="205.25" width="24.5" height="8" filterUnits="userSpaceOnUse" color-interpolation-filters="sRGB"><feFlood flood-opacity="0" result="BackgroundImageFix"/><feBlend in="SourceGraphic" in2="BackgroundImageFix" result="shape"/><feGaussianBlur stdDeviation="1.5" result="effect1_foregroundBlur_752_14432"/></filter><filter id="filter2_f_752_14432" x="7.156" y="45.196" width="36.616" height="36.616" filterUnits="userSpaceOnUse" color-interpolation-filters="sRGB"><feFlood flood-opacity="0" result="BackgroundImageFix"/><feBlend in="SourceGraphic" in2="BackgroundImageFix" result="shape"/><feGaussianBlur stdDeviation="3" result="effect1_foregroundBlur_752_14432"/></filter><filter id="filter3_f_752_14432" x="285.394" y="307.25" width="25" height="25" filterUnits="userSpaceOnUse" color-interpolation-filters="sRGB"><feFlood flood-opacity="0" result="BackgroundImageFix"/><feBlend in="SourceGraphic" in2="BackgroundImageFix" result="shape"/><feGaussianBlur stdDeviation="2" result="effect1_foregroundBlur_752_14432"/></filter><filter id="filter4_f_752_14432" x="711.394" y="308.25" width="20.5" height="20.5" filterUnits="userSpaceOnUse" color-interpolation-filters="sRGB"><feFlood flood-opacity="0" result="BackgroundImageFix"/><feBlend in="SourceGraphic" in2="BackgroundImageFix" result="shape"/><feGaussianBlur stdDeviation="1" result="effect1_foregroundBlur_752_14432"/></filter><filter id="filter5_f_752_14432" x="901.394" y="29.25" width="20.5" height="20.5" filterUnits="userSpaceOnUse" color-interpolation-filters="sRGB"><feFlood flood-opacity="0" result="BackgroundImageFix"/><feBlend in="SourceGraphic" in2="BackgroundImageFix" result="shape"/><feGaussianBlur stdDeviation="1" result="effect1_foregroundBlur_752_14432"/></filter><filter id="filter6_f_752_14432" x="299.394" y="393.249" width="28.5" height="28.5" filterUnits="userSpaceOnUse" color-interpolation-filters="sRGB"><feFlood flood-opacity="0" result="BackgroundImageFix"/><feBlend in="SourceGraphic" in2="BackgroundImageFix" result="shape"/><feGaussianBlur stdDeviation="3" result="effect1_foregroundBlur_752_14432"/></filter><filter id="filter7_f_752_14432" x="612.801" y="242.656" width="22.557" height="22.557" filterUnits="userSpaceOnUse" color-interpolation-filters="sRGB"><feFlood flood-opacity="0" result="BackgroundImageFix"/><feBlend in="SourceGraphic" in2="BackgroundImageFix" result="shape"/><feGaussianBlur stdDeviation="1.5" result="effect1_foregroundBlur_752_14432"/></filter><filter id="filter8_f_752_14432" x="741.456" y="303.312" width="58.654" height="58.654" filterUnits="userSpaceOnUse" color-interpolation-filters="sRGB"><feFlood flood-opacity="0" result="BackgroundImageFix"/><feBlend in="SourceGraphic" in2="BackgroundImageFix" result="shape"/><feGaussianBlur stdDeviation=".5" result="effect1_foregroundBlur_752_14432"/></filter><filter id="filter9_f_752_14432" x="501.394" y="216.25" width="22" height="21" filterUnits="userSpaceOnUse" color-interpolation-filters="sRGB"><feFlood flood-opacity="0" result="BackgroundImageFix"/><feBlend in="SourceGraphic" in2="BackgroundImageFix" result="shape"/><feGaussianBlur stdDeviation="1" result="effect1_foregroundBlur_752_14432"/></filter><filter id="filter10_f_752_14432" x="684.247" y="200.296" width="43.468" height="44.802" filterUnits="userSpaceOnUse" color-interpolation-filters="sRGB"><feFlood flood-opacity="0" result="BackgroundImageFix"/><feBlend in="SourceGraphic" in2="BackgroundImageFix" result="shape"/><feGaussianBlur stdDeviation="2" result="effect1_foregroundBlur_752_14432"/></filter><filter id="filter11_f_752_14432" x="612.195" y="192.149" width="22.537" height="22.232" filterUnits="userSpaceOnUse" color-interpolation-filters="sRGB"><feFlood flood-opacity="0" result="BackgroundImageFix"/><feBlend in="SourceGraphic" in2="BackgroundImageFix" result="shape"/><feGaussianBlur stdDeviation="1" result="effect1_foregroundBlur_752_14432"/></filter><filter id="filter12_f_752_14432" x="356.769" y="307.249" width="41.339" height="46.221" filterUnits="userSpaceOnUse" color-interpolation-filters="sRGB"><feFlood flood-opacity="0" result="BackgroundImageFix"/><feBlend in="SourceGraphic" in2="BackgroundImageFix" result="shape"/><feGaussianBlur stdDeviation=".5" result="effect1_foregroundBlur_752_14432"/></filter><filter id="filter13_f_752_14432" x="763.894" y="233.75" width="13" height="9" filterUnits="userSpaceOnUse" color-interpolation-filters="sRGB"><feFlood flood-opacity="0" result="BackgroundImageFix"/><feBlend in="SourceGraphic" in2="BackgroundImageFix" result="shape"/><feGaussianBlur stdDeviation="1.5" result="effect1_foregroundBlur_752_14432"/></filter><filter id="filter14_f_752_14432" x="755.894" y="241.75" width="9" height="13" filterUnits="userSpaceOnUse" color-interpolation-filters="sRGB"><feFlood flood-opacity="0" result="BackgroundImageFix"/><feBlend in="SourceGraphic" in2="BackgroundImageFix" result="shape"/><feGaussianBlur stdDeviation="1.5" result="effect1_foregroundBlur_752_14432"/></filter><filter id="filter15_f_752_14432" x="743.894" y="233.75" width="13" height="9" filterUnits="userSpaceOnUse" color-interpolation-filters="sRGB"><feFlood flood-opacity="0" result="BackgroundImageFix"/><feBlend in="SourceGraphic" in2="BackgroundImageFix" result="shape"/><feGaussianBlur stdDeviation="1.5" result="effect1_foregroundBlur_752_14432"/></filter><filter id="filter16_f_752_14432" x="755.894" y="221.75" width="9" height="13" filterUnits="userSpaceOnUse" color-interpolation-filters="sRGB"><feFlood flood-opacity="0" result="BackgroundImageFix"/><feBlend in="SourceGraphic" in2="BackgroundImageFix" result="shape"/><feGaussianBlur stdDeviation="1.5" result="effect1_foregroundBlur_752_14432"/></filter><filter id="filter17_f_752_14432" x="658.394" y="269.25" width="54.962" height="54.962" filterUnits="userSpaceOnUse" color-interpolation-filters="sRGB"><feFlood flood-opacity="0" result="BackgroundImageFix"/><feBlend in="SourceGraphic" in2="BackgroundImageFix" result="shape"/><feGaussianBlur stdDeviation="1" result="effect1_foregroundBlur_752_14432"/></filter><filter id="filter18_f_752_14432" x="688.394" y="339.25" width="29" height="29" filterUnits="userSpaceOnUse" color-interpolation-filters="sRGB"><feFlood flood-opacity="0" result="BackgroundImageFix"/><feBlend in="SourceGraphic" in2="BackgroundImageFix" result="shape"/><feGaussianBlur stdDeviation="1" result="effect1_foregroundBlur_752_14432"/></filter><filter id="filter19_f_752_14432" x="595.046" y="385.902" width="34.781" height="34.781" filterUnits="userSpaceOnUse" color-interpolation-filters="sRGB"><feFlood flood-opacity="0" result="BackgroundImageFix"/><feBlend in="SourceGraphic" in2="BackgroundImageFix" result="shape"/><feGaussianBlur stdDeviation="1" result="effect1_foregroundBlur_752_14432"/></filter></defs></svg>