<svg fill="none" viewBox="0 0 627 546" xmlns="http://www.w3.org/2000/svg" xmlns:xlink="http://www.w3.org/1999/xlink"><filter id="a" color-interpolation-filters="sRGB" filterUnits="userSpaceOnUse" height="20.5" width="20.5" x="186" y="71"><feFlood flood-opacity="0" result="BackgroundImageFix"/><feBlend in="SourceGraphic" in2="BackgroundImageFix" mode="normal" result="shape"/><feGaussianBlur result="effect1_foregroundBlur_750_10920" stdDeviation="1"/></filter><filter id="b" color-interpolation-filters="sRGB" filterUnits="userSpaceOnUse" height="28.5" width="28.5" x="597.584" y="227.278"><feFlood flood-opacity="0" result="BackgroundImageFix"/><feBlend in="SourceGraphic" in2="BackgroundImageFix" mode="normal" result="shape"/><feGaussianBlur result="effect1_foregroundBlur_750_10920" stdDeviation="3"/></filter><filter id="c" color-interpolation-filters="sRGB" filterUnits="userSpaceOnUse" height="22.5569" width="22.5569" x="352" y="478"><feFlood flood-opacity="0" result="BackgroundImageFix"/><feBlend in="SourceGraphic" in2="BackgroundImageFix" mode="normal" result="shape"/><feGaussianBlur result="effect1_foregroundBlur_750_10920" stdDeviation="1.5"/></filter><filter id="d" color-interpolation-filters="sRGB" filterUnits="userSpaceOnUse" height="58.6543" width="58.6545" x="448.368" y="135.062"><feFlood flood-opacity="0" result="BackgroundImageFix"/><feBlend in="SourceGraphic" in2="BackgroundImageFix" mode="normal" result="shape"/><feGaussianBlur result="effect1_foregroundBlur_750_10920" stdDeviation=".5"/></filter><filter id="e" color-interpolation-filters="sRGB" filterUnits="userSpaceOnUse" height="21" width="22" x="396.084" y="481.778"><feFlood flood-opacity="0" result="BackgroundImageFix"/><feBlend in="SourceGraphic" in2="BackgroundImageFix" mode="normal" result="shape"/><feGaussianBlur result="effect1_foregroundBlur_750_10920" stdDeviation="1"/></filter><filter id="f" color-interpolation-filters="sRGB" filterUnits="userSpaceOnUse" height="44.8018" width="43.4679" x="69.7633" y="490.93"><feFlood flood-opacity="0" result="BackgroundImageFix"/><feBlend in="SourceGraphic" in2="BackgroundImageFix" mode="normal" result="shape"/><feGaussianBlur result="effect1_foregroundBlur_750_10920" stdDeviation="2"/></filter><filter id="g" color-interpolation-filters="sRGB" filterUnits="userSpaceOnUse" height="22.2319" width="22.537" x="275.747" y="503.646"><feFlood flood-opacity="0" result="BackgroundImageFix"/><feBlend in="SourceGraphic" in2="BackgroundImageFix" mode="normal" result="shape"/><feGaussianBlur result="effect1_foregroundBlur_750_10920" stdDeviation="1"/></filter><filter id="h" color-interpolation-filters="sRGB" filterUnits="userSpaceOnUse" height="46.2212" width="41.3386" x="527.371" y="295.557"><feFlood flood-opacity="0" result="BackgroundImageFix"/><feBlend in="SourceGraphic" in2="BackgroundImageFix" mode="normal" result="shape"/><feGaussianBlur result="effect1_foregroundBlur_750_10920" stdDeviation=".5"/></filter><filter id="i" color-interpolation-filters="sRGB" filterUnits="userSpaceOnUse" height="35.9011" width="36.4172" x="307" y="367.211"><feFlood flood-opacity="0" result="BackgroundImageFix"/><feBlend in="SourceGraphic" in2="BackgroundImageFix" mode="normal" result="shape"/><feGaussianBlur result="effect1_foregroundBlur_750_10920" stdDeviation="3"/></filter><filter id="j" color-interpolation-filters="sRGB" filterUnits="userSpaceOnUse" height="9" width="13" x="192.584" y="524.278"><feFlood flood-opacity="0" result="BackgroundImageFix"/><feBlend in="SourceGraphic" in2="BackgroundImageFix" mode="normal" result="shape"/><feGaussianBlur result="effect1_foregroundBlur_750_10920" stdDeviation="1.5"/></filter><filter id="k" color-interpolation-filters="sRGB" filterUnits="userSpaceOnUse" height="13" width="9" x="204.584" y="512.278"><feFlood flood-opacity="0" result="BackgroundImageFix"/><feBlend in="SourceGraphic" in2="BackgroundImageFix" mode="normal" result="shape"/><feGaussianBlur result="effect1_foregroundBlur_750_10920" stdDeviation="1.5"/></filter><filter id="l" color-interpolation-filters="sRGB" filterUnits="userSpaceOnUse" height="9" width="13" x="212.584" y="524.278"><feFlood flood-opacity="0" result="BackgroundImageFix"/><feBlend in="SourceGraphic" in2="BackgroundImageFix" mode="normal" result="shape"/><feGaussianBlur result="effect1_foregroundBlur_750_10920" stdDeviation="1.5"/></filter><filter id="m" color-interpolation-filters="sRGB" filterUnits="userSpaceOnUse" height="13" width="9" x="204.584" y="532.278"><feFlood flood-opacity="0" result="BackgroundImageFix"/><feBlend in="SourceGraphic" in2="BackgroundImageFix" mode="normal" result="shape"/><feGaussianBlur result="effect1_foregroundBlur_750_10920" stdDeviation="1.5"/></filter><filter id="n" color-interpolation-filters="sRGB" filterUnits="userSpaceOnUse" height="54.9619" width="54.9619" x="379.123" y="147.816"><feFlood flood-opacity="0" result="BackgroundImageFix"/><feBlend in="SourceGraphic" in2="BackgroundImageFix" mode="normal" result="shape"/><feGaussianBlur result="effect1_foregroundBlur_750_10920" stdDeviation="1"/></filter><filter id="o" color-interpolation-filters="sRGB" filterUnits="userSpaceOnUse" height="34.7808" width="34.7808" x="30.652" y="403.345"><feFlood flood-opacity="0" result="BackgroundImageFix"/><feBlend in="SourceGraphic" in2="BackgroundImageFix" mode="normal" result="shape"/><feGaussianBlur result="effect1_foregroundBlur_750_10920" stdDeviation="1"/></filter><filter id="p" color-interpolation-filters="sRGB" filterUnits="userSpaceOnUse" height="51.6335" width="30.3943" x="176.309" y="407"><feFlood flood-opacity="0" result="BackgroundImageFix"/><feBlend in="SourceGraphic" in2="BackgroundImageFix" mode="normal" result="shape"/><feGaussianBlur result="effect1_foregroundBlur_750_10920" stdDeviation="2"/></filter><filter id="q" color-interpolation-filters="sRGB" filterUnits="userSpaceOnUse" height="24.5" width="24.5" x="0" y="328"><feFlood flood-opacity="0" result="BackgroundImageFix"/><feBlend in="SourceGraphic" in2="BackgroundImageFix" mode="normal" result="shape"/><feGaussianBlur result="effect1_foregroundBlur_750_10920" stdDeviation="2"/></filter><filter id="r" color-interpolation-filters="sRGB" filterUnits="userSpaceOnUse" height="56.1833" width="66.7871" x="15" y="232.99"><feFlood flood-opacity="0" result="BackgroundImageFix"/><feBlend in="SourceGraphic" in2="BackgroundImageFix" mode="normal" result="shape"/><feGaussianBlur result="effect1_foregroundBlur_750_10920" stdDeviation="5"/></filter><g stroke-linecap="round" stroke-linejoin="round" stroke-width="4"><path d="m456 252h16.5" stroke="#06d6a0"/><path d="m405 402.667 11.667-11.667" stroke="#fff"/><path d="m435.584 448.778h4" stroke="#5db7de"/><path d="m447.584 436.778v4" stroke="#5db7de"/><path d="m455.584 448.778h4" stroke="#5db7de"/><path d="m447.584 456.778v4" stroke="#5db7de"/><path d="m492.084 274.778h4" stroke="#ff9fe5"/><path d="m504.084 262.778v4" stroke="#ff9fe5"/><path d="m512.084 274.778h4" stroke="#ff9fe5"/><path d="m504.084 282.778v4" stroke="#ff9fe5"/><path d="m532.3 140.385 3.464 2" stroke="#ff9fe5"/><path d="m548.692 135.993-2 3.464" stroke="#ff9fe5"/><path d="m549.62 150.385 3.464 2" stroke="#ff9fe5"/><path d="m538.692 153.313-2 3.465" stroke="#ff9fe5"/></g><g filter="url(#a)" opacity=".5"><path d="m202.5 87.5-12.5-12.5m12.5 0-12.5 12.5" stroke="#f4f4f4" stroke-linecap="round" stroke-linejoin="round" stroke-width="4"/></g><g filter="url(#b)" opacity=".4"><path d="m618.084 247.778-12.5-12.5m12.5 0-12.5 12.5" stroke="#f4f4f4" stroke-linecap="round" stroke-linejoin="round" stroke-width="4"/></g><g filter="url(#c)" opacity=".6"><path d="m360.979 495.556 4.597-12.556m3.98 8.576-12.556-4.596" stroke="#f4f4f4" stroke-linecap="round" stroke-linejoin="round" stroke-width="4"/></g><path d="m368.106 375.654c3.016 2.776 7.979 10.019 3.702 16.779-5.347 8.45-13.265 4.506-18.256 13.891-3.994 7.508-2.637 12.769-1.459 14.461" stroke="#06d6a0" stroke-linecap="round" stroke-linejoin="round" stroke-width="4"/><path d="m275.137 457c1.833 3.667 3.9 12.2-2.5 17-8 6-14-.5-22 6.5-6.4 5.6-7 11-6.5 13" stroke="#06d6a0" stroke-linecap="round" stroke-linejoin="round" stroke-width="3"/><g filter="url(#d)"><path d="m460.176 144.291-10.808-7.914 8.038 10.72c12.023 16.037 12.04 18.641.192 34.811l-7.914 10.808 10.717-8.039c16.039-12.024 18.642-12.038 34.814-.191l10.808 7.914-8.038-10.719c-12.027-16.036-12.041-18.639-.192-34.812l7.914-10.808-10.717 8.04c-16.039 12.023-18.641 12.038-34.814.19z" fill="#3b2a7f"/></g><path d="m348.303 304.63-6.204-10.087 3 11.459c4.485 17.142 3.63 19.279-11.469 28.559l-10.087 6.204 11.457-3.002c17.144-4.485 19.279-3.628 28.561 11.471l6.204 10.087-3-11.459c-4.489-17.142-3.632-19.278 11.469-28.559l10.087-6.204-11.457 3.002c-17.144 4.485-19.279 3.628-28.561-11.471z" fill="#ff858d"/><path d="m136.272 40.7439-9.272 7.3666 11.017-4.3499c16.482-6.5054 18.706-5.9119 29.727 7.9671l7.367 9.2721-4.352-11.0155c-6.505-16.4837-5.91-18.7062 7.969-29.7287l9.272-7.3666-11.017 4.3499c-16.482 6.5089-18.705 5.9137-29.727-7.9671l-7.367-9.2720465 4.352 11.0155465c6.505 16.4836 5.91 18.7061-7.969 29.7286z" fill="#ff858d"/><path d="m451.5 347.625c4.833-3.5 12.1-12.5 4.5-18.5s-15.833 2.167-19 6.5" stroke="#06d6a0" stroke-linecap="round" stroke-linejoin="round" stroke-width="4"/><g filter="url(#e)" opacity=".6"><path d="m409.489 499.778c3.468-2.546 8.683-9.091 3.229-13.455-5.453-4.363-11.361 1.576-13.634 4.727" stroke="#06d6a0" stroke-linecap="round" stroke-linejoin="round" stroke-width="2"/></g><path d="m523.205 429.324c4.608 1.828 10.895 4.276 9.067 8.884-1.828 4.609-8.083 2.082-12.691.254-4.609-1.827-10.895-4.276-9.067-8.884 1.827-4.608 8.083-2.082 12.691-.254z" fill="#06d6a0"/><path d="m485.315 234.096-10.456-9.414-12.184 7.034 5.723-12.852-10.455-9.414 13.991 1.47 5.723-12.852 2.925 13.761 13.992 1.471-12.184 7.034z" fill="#fff"/><g filter="url(#f)" opacity=".3"><path d="m74.6983 525.592 7.795-11.712-8.73-11.032 13.5475 3.794 7.795-11.712.5779 14.057 13.5473 3.794-13.1902 4.894.5779 14.057-8.73-11.033z" fill="#fff"/></g><g filter="url(#g)" opacity=".5"><path d="m291.598 523.878-5.291-4.764-6.165 3.56 2.895-6.504-5.29-4.764 7.08.744 2.896-6.504 1.48 6.964 7.081.744-6.166 3.56z" fill="#fff"/></g><path d="m571.035 516.031c-3.174-6.655-.352-14.622 6.303-17.796-6.655 3.174-14.622.352-17.796-6.303 3.174 6.655.352 14.622-6.303 17.796 6.655-3.174 14.622-.352 17.796 6.303z" fill="#ff9fe5"/><path d="m311.015 256.215c-.702-15.726 11.474-29.041 27.2-29.743-15.726.702-29.041-11.474-29.743-27.2.702 15.726-11.474 29.041-27.2 29.743 15.726-.702 29.041 11.474 29.743 27.2z" fill="#3b2a7f"/><g filter="url(#h)" opacity=".7"><path d="m530.371 298.557 1.967 14.718 14.718-1.967 1.968 14.718 14.718-1.967 1.967 14.719" stroke="#5db7de" stroke-linecap="round" stroke-linejoin="round" stroke-width="4"/></g><g filter="url(#i)"><path d="m321.557 395.112c5.936-.614 16.729-4.775 13.148-13.771-3.582-8.997-14.796-6.041-19.705-3.871" stroke="#fff" stroke-linecap="round" stroke-linejoin="round" stroke-width="4"/></g><g filter="url(#j)"><path d="m197.084 528.778h4" stroke="#ff9fe5" stroke-linecap="round" stroke-linejoin="round" stroke-width="3"/></g><g filter="url(#k)"><path d="m209.084 516.778v4" stroke="#ff9fe5" stroke-linecap="round" stroke-linejoin="round" stroke-width="3"/></g><g filter="url(#l)"><path d="m217.084 528.778h4" stroke="#ff9fe5" stroke-linecap="round" stroke-linejoin="round" stroke-width="3"/></g><g filter="url(#m)"><path d="m209.084 536.778v4" stroke="#ff9fe5" stroke-linecap="round" stroke-linejoin="round" stroke-width="3"/></g><path d="m521.359 409.703-7.333-12.007-13.685 3.264 9.153-10.684-7.333-12.007 12.99 5.403 9.153-10.684-1.125 14.024 12.99 5.403-13.685 3.264z" stroke="#a5a5a5" stroke-linejoin="round" stroke-width="2"/><circle cx="496.084" cy="450.778" r="9.5" stroke="#f4f4f4" stroke-width="3" transform="matrix(-1 0 0 -1 992.168 901.556)"/><path d="m430.73 417.968 4.468-5.161c3.317-3.83 5.862-6.917 7.622-9.654 1.767-2.748 2.787-5.211 2.984-7.795s-.439-5.173-1.769-8.156c-1.326-2.971-3.374-6.408-6.073-10.695l-3.637-5.774 5.158 4.465c3.83 3.317 6.917 5.863 9.654 7.623 2.748 1.767 5.21 2.788 7.794 2.984 2.585.197 5.173-.439 8.156-1.77 2.971-1.326 6.407-3.375 10.693-6.075l5.78-3.639-4.468 5.161v.001c-3.317 3.829-5.862 6.917-7.622 9.653-1.767 2.748-2.788 5.211-2.985 7.795-.196 2.584.44 5.173 1.77 8.156 1.325 2.972 3.374 6.408 6.072 10.695l.001.001 3.637 5.774-5.158-4.465c-3.829-3.317-6.916-5.863-9.653-7.622-2.748-1.767-5.21-2.787-7.795-2.984-2.584-.196-5.172.44-8.155 1.77-2.972 1.326-6.408 3.375-10.695 6.073z" stroke="#5db7de" stroke-width="2"/><path d="m397.704 213.805 1.389 1.065v.001c3.512 2.695 6.369 4.782 8.892 6.201 2.539 1.428 4.845 2.24 7.251 2.281 2.407.04 4.738-.695 7.323-2.037 2.568-1.334 5.493-3.324 9.092-5.9l1.432-1.025-1.07 1.395c-2.695 3.512-4.782 6.369-6.2 8.892-1.428 2.539-2.241 4.845-2.281 7.251-.04 2.407.694 4.738 2.036 7.324 1.333 2.568 3.323 5.494 5.898 9.093l1.021 1.426-1.39-1.066c-3.511-2.695-6.368-4.781-8.89-6.2-2.54-1.428-4.845-2.24-7.252-2.28-2.406-.04-4.737.694-7.323 2.037-2.568 1.333-5.493 3.322-9.092 5.897v.001l-1.433 1.024 1.07-1.395h.001c2.694-3.511 4.781-6.369 6.199-8.891 1.429-2.54 2.241-4.845 2.281-7.252.041-2.406-.694-4.737-2.036-7.323-1.333-2.569-3.322-5.494-5.898-9.093v-.001z" stroke="#ff858d" stroke-width="3"/><g filter="url(#n)" opacity=".6"><path d="m400.486 173.205.028-.081c1.312-3.837 2.764-8.082 4.762-11.081.998-1.497 2.05-2.554 3.163-3.116 1.056-.534 2.278-.681 3.816-.155 1.537.525 2.413 1.39 2.921 2.459.536 1.126.721 2.605.593 4.4-.257 3.595-1.708 7.839-3.021 11.677l-.028.081-.027.08c-1.312 3.838-2.764 8.082-4.762 11.082-.998 1.497-2.05 2.553-3.163 3.116-1.057.534-2.278.681-3.816.155-1.537-.526-2.413-1.39-2.921-2.459-.536-1.126-.721-2.606-.593-4.4.257-3.595 1.708-7.84 3.021-11.678z" stroke="#fff" stroke-width="3"/></g><path d="m401.147 446.529-9.71-13.34" stroke="#fff" stroke-linecap="round" stroke-linejoin="round" stroke-width="4"/><path d="m491.686 356.371v-13.371m6.685 6.685h-13.371" stroke="#3b2a7f" stroke-linecap="round" stroke-linejoin="round" stroke-width="4"/><g filter="url(#o)" opacity=".8"><path d="m42.4103 426.367c-5.6801-5.68-13.4582-13.362-7.7781-19.042s13.362 2.098 19.0421 7.778 13.4583 13.362 7.7782 19.042c-5.6801 5.681-13.3621-2.098-19.0422-7.778z" fill="#06d6a0"/></g><path d="m334.5 444c2.481 0 4.5 2.019 4.5 4.5s-2.019 4.5-4.5 4.5-4.5-2.019-4.5-4.5 2.019-4.5 4.5-4.5z" fill="#5db7de"/><g filter="url(#p)"><path d="m198.549 453.633 3.155-11.774-11.775-3.155 3.155-11.775-11.774-3.155 3.155-11.774" stroke="#fff" stroke-linecap="round" stroke-linejoin="round" stroke-width="2"/></g><g filter="url(#q)"><path d="m18.5 346.5-12.5-12.5m12.5 0-12.5 12.5" stroke="#f4f4f4" stroke-linecap="round" stroke-linejoin="round" stroke-width="4"/></g><g filter="url(#r)"><path d="m69.7871 244.99-14.8252.845.8443 14.825-14.8252.844.8443 14.826-14.8252.844" stroke="#5db7de" stroke-linecap="round" stroke-linejoin="round" stroke-width="4"/></g></svg>