<svg viewBox="0 0 575 195" fill="none" xmlns="http://www.w3.org/2000/svg"><path d="M426 77.668L437.667 66m-51.083 41.778h4m8-12v4m8 8h4m-12 8v4m94.5-60h4m8-12v4m8 8h4m-12 8v4M472.5 22.625c4.833-3.5 12.1-12.5 4.5-18.5s-15.834 2.167-19 6.5" stroke="#fff" stroke-width="4" stroke-linecap="round" stroke-linejoin="round"/><path d="M38.134 184.222l-10.456-9.414-12.184 7.034 5.723-12.852-10.455-9.414 13.991 1.47 5.723-12.852 2.925 13.761 13.991 1.471-12.184 7.034 2.926 13.762z" fill="#fff" opacity=".7" filter="url(#filter0_f_856_1489)"/><path d="M562.035 171.031c-3.174-6.655-.353-14.622 6.303-17.796-6.656 3.174-14.622.353-17.796-6.303 3.174 6.656.352 14.622-6.304 17.796 6.656-3.174 14.623-.352 17.797 6.303z" fill="#fff"/><defs><filter id="filter0_f_856_1489" x=".762" y="138.194" width="56.631" height="56.028" filterUnits="userSpaceOnUse" color-interpolation-filters="sRGB"><feFlood flood-opacity="0" result="BackgroundImageFix"/><feBlend in="SourceGraphic" in2="BackgroundImageFix" result="shape"/><feGaussianBlur stdDeviation="5" result="effect1_foregroundBlur_856_1489"/></filter></defs></svg>