<svg viewBox="0 0 1368 1344" fill="none" xmlns="http://www.w3.org/2000/svg"><g opacity=".8"><path d="M143.685 729v13.371M137 735.685h13.371" stroke="#F4F4F4" stroke-width="4" stroke-linecap="round" stroke-linejoin="round"/><path d="M251 667.5c-1.833-3.667-3.9-12.2 2.5-17 8-6 14 .5 22-6.5 6.4-5.6 7-11 6.5-13m-124.16 494.5c-1.834-3.67-3.9-12.2 2.5-17 8-6 14 .5 22-6.5 6.4-5.6 7-11 6.5-13m63-624.5c-1.834-3.667-3.9-12.2 2.5-17 8-6 14 .5 22-6.5 6.4-5.6 7-11 6.5-13M326 1032.84c3.667-1.83 12.2-3.9 17 2.5 6 8-.5 14 6.5 22 5.6 6.4 11 7 13 6.5M96.476 756.224c3.067-2.72 10.775-6.925 17.068-1.985 7.866 6.174 3.14 13.652 11.972 19.568 7.066 4.732 12.437 3.914 14.24 2.914M225.84 833.5c-1.834-3.667-3.9-12.2 2.5-17 8-6 14 .5 22-6.5 6.4-5.6 7-11 6.5-13" stroke="#FF9FE5" stroke-width="4" stroke-linecap="round" stroke-linejoin="round"/><path d="M223.776 658.889L237 648.383l-15.713 6.204c-23.507 9.278-26.679 8.432-42.398-11.363L168.383 630l6.206 15.711c9.279 23.509 8.43 26.679-11.365 42.4L150 698.617l15.713-6.204c23.507-9.283 26.677-8.434 42.398 11.363L218.617 717l-6.206-15.711c-9.279-23.509-8.43-26.679 11.365-42.4zm13-293L250 355.383l-15.713 6.204c-23.507 9.278-26.679 8.432-42.398-11.363L181.383 337l6.206 15.711c9.279 23.509 8.43 26.679-11.365 42.4L163 405.617l15.713-6.204c23.507-9.283 26.677-8.434 42.398 11.363L231.617 424l-6.206-15.711c-9.279-23.509-8.43-26.679 11.365-42.4zm40.657 702.291l16.611-3.06-16.785-1.91c-25.109-2.86-27.511-5.1-32.079-29.96l-3.056-16.61-1.908 16.79c-2.863 25.11-5.102 27.51-29.963 32.08l-16.611 3.05 16.785 1.91c25.111 2.86 27.51 5.1 32.079 29.96l3.056 16.61 1.908-16.78c2.863-25.11 5.102-27.51 29.963-32.08zm-82.921-179.268L205 880.58l-12.462 4.92c-18.644 7.359-21.16 6.687-33.626-9.012L150.58 866l4.922 12.46c7.359 18.646 6.685 21.16-9.014 33.628L136 920.42l12.462-4.92c18.644-7.363 21.158-6.689 33.626 9.012L190.42 935l-4.922-12.46c-7.359-18.646-6.685-21.16 9.014-33.628z" fill="#5DB7DE"/><path d="M181.728 493.256l9.272-7.367-11.017 4.35c-16.482 6.506-18.706 5.912-29.727-7.967L142.889 473l4.352 11.016c6.505 16.483 5.91 18.706-7.969 29.728L130 521.111l11.017-4.35c16.482-6.509 18.705-5.914 29.727 7.967l7.367 9.272-4.352-11.016c-6.505-16.483-5.91-18.706 7.969-29.728zm145.673 188.469l11.592 2.42-10.388-5.69c-15.54-8.515-16.506-10.604-12.88-27.952l2.42-11.592-5.688 10.389c-8.515 15.54-10.605 16.504-27.954 12.879l-11.592-2.42 10.388 5.69c15.543 8.512 16.506 10.602 12.88 27.952l-2.42 11.592 5.688-10.389c8.515-15.54 10.605-16.504 27.954-12.879zM129.728 848.256l9.272-7.367-11.017 4.35c-16.482 6.506-18.706 5.912-29.727-7.967L90.889 828l4.352 11.016c6.505 16.483 5.91 18.706-7.969 29.728L78 876.111l11.017-4.35c16.482-6.509 18.705-5.914 29.727 7.967l7.367 9.272-4.352-11.016c-6.505-16.483-5.91-18.706 7.969-29.728zm103 313.004l9.272-7.37-11.017 4.35c-16.482 6.5-18.706 5.91-29.727-7.97l-7.367-9.27 4.352 11.02c6.505 16.48 5.91 18.7-7.969 29.72l-9.272 7.37 11.017-4.35c16.482-6.51 18.705-5.91 29.727 7.97l7.367 9.27-4.352-11.02c-6.505-16.48-5.91-18.7 7.969-29.72z" fill="#FF858D"/><path d="M143 635c-4.411 0-8-3.589-8-8s3.589-8 8-8 8 3.589 8 8-3.589 8-8 8zm122 286c-4.411 0-8-3.589-8-8s3.589-8 8-8 8 3.589 8 8-3.589 8-8 8zm7-205c-4.411 0-8-3.589-8-8s3.589-8 8-8 8 3.589 8 8-3.589 8-8 8z" fill="#A5A5A5"/><path d="M183.797 713c-4.833 3.5-12.1 12.5-4.5 18.5s15.834-2.167 19-6.5m89.5-167c-4.833 3.5-12.1 12.5-4.5 18.5s15.834-2.167 19-6.5M115.403 958.706c-5.936.614-16.73 4.775-13.147 13.771 3.581 8.997 14.795 6.041 19.704 3.871m202.877-243.25c.943-5.893-.283-17.395-9.899-16.264-9.617 1.132-9.664 12.728-8.839 18.032" stroke="#A5A5A5" stroke-width="4" stroke-linecap="round" stroke-linejoin="round"/><circle cx="154.5" cy="594.5" r="8.5" fill="#FF858D"/><circle cx="144.5" cy="1017.5" r="8.5" fill="#FF858D"/><circle cx="173.5" cy="849.5" r="8.5" fill="#FF858D"/><path d="M235.965 519.93c-8.033 0-18.965.068-18.965-7.965S227.932 504 235.965 504s18.965-.068 18.965 7.965-10.932 7.965-18.965 7.965zm24.445 335.744c-5.68-5.68-13.458-13.362-7.778-19.042 5.68-5.68 13.362 2.098 19.042 7.778 5.68 5.68 13.458 13.362 7.778 19.042-5.68 5.68-13.362-2.098-19.042-7.778zM115.965 684.93c-8.033 0-18.965.068-18.965-7.965S107.932 669 115.965 669s18.965-.068 18.965 7.965-10.932 7.965-18.965 7.965zm36.709 260.48c5.68 5.68 13.458 13.362 7.778 19.042-5.68 5.68-13.362-2.098-19.042-7.778-5.68-5.68-13.458-13.362-7.778-19.042 5.68-5.68 13.362 2.098 19.042 7.778z" fill="#06D6A0"/><path d="M227.77 550.682l10.455 9.414 12.184-7.034-5.722 12.852 10.455 9.414-13.992-1.471-5.722 12.853-2.925-13.761-13.992-1.471 12.184-7.035-2.925-13.761zm-36 228l10.455 9.414 12.184-7.034-5.722 12.852 10.455 9.414-13.992-1.471-5.722 12.853-2.925-13.761-13.992-1.471 12.184-7.035-2.925-13.761zm121.867 93.754l-7.795 11.712 8.73 11.033-13.547-3.795-7.795 11.713-.578-14.057-13.548-3.795 13.191-4.893-.578-14.057 8.73 11.033 13.19-4.894zm-99.251 102.749l-7.795 11.712 8.73 11.033-13.547-3.794-7.795 11.714-.578-14.059-13.548-3.795 13.191-4.893-.578-14.057 8.73 11.033 13.19-4.894zM99.77 615.682l10.455 9.414 12.184-7.034-5.722 12.852 10.455 9.414-13.992-1.471-5.722 12.853-2.925-13.761-13.992-1.471 12.184-7.035-2.925-13.761z" fill="#A5A5A5"/><path d="M13.75 807.25h-16.5" stroke="#fff" stroke-width="4" stroke-linecap="round" stroke-linejoin="round"/><path d="M65.5 926H49m-.333 223L37 1160.67" stroke="#06D6A0" stroke-width="4" stroke-linecap="round" stroke-linejoin="round"/><path d="M73 1095h-4m-8 12v-4m-8-8h-4m12-8v-4" stroke="#FF9FE5" stroke-width="4" stroke-linecap="round" stroke-linejoin="round"/><path d="M82 943l12.5 12.5m-12.5 0L94.5 943M-3 1120l12.5 12.5m-12.5 0L9.5 1120M61 493l12.5 12.5m-12.5 0L73.5 493" stroke="#F4F4F4" stroke-width="4" stroke-linecap="round" stroke-linejoin="round"/><path d="M22.84 624.5c-1.834-3.667-3.9-12.2 2.5-17 8-6 14 .5 22-6.5 6.4-5.6 7-11 6.5-13M35 1310.84c3.667-1.83 12.2-3.9 17 2.5 6 8-.5 14 6.5 22 5.6 6.4 11 7 13 6.5m-46.175-327.72c-4.016.82-12.794.61-15.774-6.81-3.725-9.282 4.107-13.396-.584-22.935-3.753-7.631-8.814-9.608-10.875-9.643" stroke="#FF9FE5" stroke-width="4" stroke-linecap="round" stroke-linejoin="round"/><path d="M-4.224 525.889L9 515.383l-15.713 6.204c-23.507 9.278-26.68 8.432-42.398-11.363L-59.617 497l6.206 15.711c9.279 23.509 8.43 26.679-11.365 42.4L-78 565.617l15.713-6.204c23.507-9.283 26.677-8.434 42.398 11.363L-9.383 584l-6.207-15.711c-9.278-23.509-8.429-26.679 11.366-42.4zm40.657 702.291l16.611-3.06-16.785-1.91c-25.11-2.86-27.511-5.1-32.079-29.96l-3.056-16.61-1.908 16.79c-2.863 25.11-5.102 27.51-29.963 32.08l-16.611 3.05 16.785 1.91c25.112 2.86 27.51 5.1 32.079 29.96l3.056 16.61 1.908-16.78c2.863-25.11 5.102-27.51 29.963-32.08z" fill="#5DB7DE"/><path d="M150 809v-4m-36.608 101.464l2-3.464" stroke="#FF9FE5" stroke-width="4" stroke-linecap="round" stroke-linejoin="round"/><path d="M230.5 680l12.5 12.5m-12.5 0L243 680m80 103l12.5 12.5m-12.5 0l12.5-12.5M238 960l12.5 12.5m-12.5 0l12.5-12.5M105 800l12.5 12.5m-12.5 0l12.5-12.5M302 333l12.5 12.5m-12.5 0l12.5-12.5M186.685 551v13.371M180 557.685h13.371" stroke="#F4F4F4" stroke-width="4" stroke-linecap="round" stroke-linejoin="round"/><path d="M101.77 1112.68l10.455 9.42 12.184-7.04-5.722 12.85 10.455 9.42-13.992-1.47-5.722 12.85-2.925-13.76-13.992-1.47 12.184-7.04-2.925-13.76zm184-638.998l10.455 9.414 12.184-7.034-5.722 12.852 10.455 9.414-13.992-1.471-5.722 12.853-2.925-13.762-13.992-1.47 12.184-7.035-2.925-13.761z" fill="#A5A5A5"/><path d="M117.5 537c0 15.742-12.758 28.5-28.5 28.5 15.742 0 28.5 12.758 28.5 28.5 0-15.742 12.758-28.5 28.5-28.5-15.742 0-28.5-12.758-28.5-28.5zm179 252c0 15.742-12.758 28.5-28.5 28.5 15.742 0 28.5 12.758 28.5 28.5 0-15.742 12.758-28.5 28.5-28.5-15.742 0-28.5-12.758-28.5-28.5z" fill="#FF9FE5"/><path d="M60 440l10.5 10.5L81 440l10.5 10.5L102 440l10.5 10.5M300 610l10.5 10.5L321 610l10.5 10.5L342 610l10.5 10.5M99 1195l10.5 10.5L120 1195l10.5 10.5L141 1195l10.5 10.5M348 973l10.5 10.5L369 973l10.5 10.5L390 973l10.5 10.5M105.093 1024l-3.843 14.34 14.343 3.85-3.843 14.34 14.343 3.84-3.843 14.35M207 910.123h14.849v-14.849h14.849v-14.849h14.85M90 703l10.5 10.5L111 703l10.5 10.5L132 703l10.5 10.5" stroke="#5DB7DE" stroke-width="4" stroke-linecap="round" stroke-linejoin="round"/><path d="M86.4 841.725l11.593 2.42-10.388-5.69c-15.54-8.515-16.506-10.604-12.88-27.952l2.42-11.592-5.688 10.389c-8.515 15.54-10.605 16.504-27.954 12.879l-11.592-2.42 10.388 5.69c15.543 8.512 16.506 10.602 12.88 27.952l-2.42 11.592 5.688-10.389c8.516-15.54 10.605-16.504 27.954-12.879z" fill="#FF858D"/><path d="M12 1081c-4.411 0-8-3.59-8-8s3.589-8 8-8 8 3.59 8 8-3.589 8-8 8zm19-205c-4.412 0-8-3.589-8-8s3.588-8 8-8c4.411 0 8 3.589 8 8s-3.589 8-8 8z" fill="#A5A5A5"/><path d="M46.797 718c-4.833 3.5-12.1 12.5-4.5 18.5s15.834-2.167 19-6.5m22.54 163.098c.943-5.893-.283-17.395-9.9-16.264-9.616 1.132-9.663 12.728-8.838 18.032" stroke="#A5A5A5" stroke-width="4" stroke-linecap="round" stroke-linejoin="round"/><path d="M-5.035 679.93c-8.033 0-18.965.068-18.965-7.965S-13.068 664-5.035 664s18.965-.068 18.965 7.965-10.932 7.965-18.965 7.965zM49.41 995.674c-5.68-5.68-13.458-13.362-7.778-19.042 5.68-5.68 13.362 2.098 19.042 7.778 5.68 5.68 13.458 13.362 7.778 19.04-5.68 5.68-13.362-2.1-19.042-7.776z" fill="#06D6A0"/><path d="M72.637 1032.44l-7.795 11.71 8.73 11.03-13.547-3.79-7.795 11.71-.578-14.06-13.548-3.79 13.19-4.9-.577-14.05 8.73 11.03 13.19-4.89zM44.77 633.682l10.455 9.414 12.184-7.034-5.722 12.852 10.455 9.414-13.992-1.471-5.722 12.853-2.925-13.761-13.992-1.471 12.184-7.035-2.925-13.761z" fill="#A5A5A5"/><path d="M4.5 877c0 15.742-12.758 28.5-28.5 28.5 15.742 0 28.5 12.758 28.5 28.5 0-15.742 12.758-28.5 28.5-28.5-15.742 0-28.5-12.758-28.5-28.5z" fill="#FF9FE5"/><path d="M59 770l10.5 10.5L80 770l10.5 10.5L101 770l10.5 10.5M21 543l10.5 10.5L42 543l10.5 10.5L63 543l10.5 10.5" stroke="#5DB7DE" stroke-width="4" stroke-linecap="round" stroke-linejoin="round"/><path d="M30.5 442c0 15.742-12.758 28.5-28.5 28.5 15.742 0 28.5 12.758 28.5 28.5 0-15.742 12.758-28.5 28.5-28.5-15.742 0-28.5-12.758-28.5-28.5z" fill="#FF9FE5"/><path d="M43.77 1243.68l10.455 9.42 12.184-7.04-5.722 12.85 10.455 9.42-13.992-1.47-5.722 12.85-2.925-13.76-13.992-1.47 12.184-7.04-2.925-13.76z" fill="#A5A5A5"/><path d="M151 654.5V671m16 90v16.5m87.75-150.25h-16.5M124.5 407H108m198.5 359H290m-70.5 88H203m-2.5 177H184m28.084-282.834l-11.668 11.668M289.667 989L278 1000.67" stroke="#06D6A0" stroke-width="4" stroke-linecap="round" stroke-linejoin="round"/><path d="M214.5 615h-4M329 1156h-4m-11-221h-4M162 817h-4m-38.215 102.392l-3.465-2M202.5 627v-4M317 1168v-4m-15-217v-4M150 829v-4m-46.608 98.785l2-3.464M194.5 615h-4M309 1156h-4m-11-221h-4M142 817h-4m-35.536 92.392l-3.464-2M202.5 607v-4M317 1148v-4m-15-217v-4" stroke="#FF9FE5" stroke-width="4" stroke-linecap="round" stroke-linejoin="round"/></g><g opacity=".7" filter="url(#filter0_f_858_1492)"><path d="M378 830.5V847m122.5-36H484m-55.5-249H412" stroke="#06D6A0" stroke-width="3" stroke-linecap="round" stroke-linejoin="round"/><path d="M384 662h-4m161 107h-4m-165-95v-4m156 113v-5M364 662h-4m159 107h-5M372 654v-4m156 111v-5" stroke="#FF9FE5" stroke-width="3" stroke-linecap="round" stroke-linejoin="round"/><path d="M485 890l12.5 12.5m-12.5 0l12.5-12.5M355 921l12.5 12.5m-12.5 0l12.5-12.5m57.185-175v13.371M418 752.685h13.371m7.106 42.4L428 803.392m1.085-9.392l8.307 10.477" stroke="#F4F4F4" stroke-width="3" stroke-linecap="round" stroke-linejoin="round"/><path d="M500.84 870.5c-1.834-3.667-3.9-12.2 2.5-17 8-6 14 .5 22-6.5 6.4-5.6 7-11 6.5-13m-151-207.5c-1.834-3.667-3.9-12.2 2.5-17 8-6 14 .5 22-6.5 6.4-5.6 7-11 6.5-13" stroke="#FF9FE5" stroke-width="3" stroke-linecap="round" stroke-linejoin="round"/><path d="M380.514 562.166l-4.229-5.323c-3.927-4.946-7.133-8.789-10.095-11.59-2.976-2.814-5.794-4.661-8.97-5.512-3.176-.852-6.539-.661-10.524.288-3.965.944-8.661 2.67-14.534 4.989l-6.334 2.501 5.329-4.234c4.945-3.927 8.788-7.133 11.589-10.095 2.814-2.977 4.661-5.794 5.512-8.97.851-3.176.661-6.54-.287-10.524-.944-3.966-2.668-8.663-4.986-14.536l-2.499-6.326 4.229 5.323c3.927 4.945 7.132 8.788 10.094 11.588 2.976 2.814 5.794 4.661 8.97 5.512 3.176.851 6.54.66 10.524-.288 3.965-.944 8.662-2.669 14.535-4.987l6.334-2.501-5.329 4.234c-4.945 3.927-8.788 7.133-11.589 10.095-2.814 2.977-4.661 5.794-5.512 8.97-.851 3.176-.661 6.54.287 10.524.944 3.966 2.668 8.663 4.986 14.536v.001l2.499 6.325z" stroke="#5DB7DE" stroke-width="3"/><path d="M473.643 1008.7l-.256-1.73v-.01c-.644-4.37-1.242-7.862-2.065-10.637-.828-2.793-1.917-4.982-3.617-6.686-1.699-1.704-3.884-2.8-6.674-3.636-2.772-.831-6.257-1.439-10.634-2.096l-1.741-.261 1.739-.257c4.379-.644 7.867-1.242 10.641-2.065 2.793-.829 4.982-1.918 6.686-3.617 1.705-1.7 2.801-3.884 3.638-6.675.831-2.771 1.44-6.257 2.097-10.633v-.001l.26-1.734.256 1.733c.644 4.379 1.242 7.866 2.065 10.641.828 2.793 1.918 4.981 3.617 6.685 1.7 1.704 3.884 2.8 6.675 3.637 2.772.831 6.256 1.439 10.633 2.097l1.741.261-1.739.257c-4.379.644-7.867 1.242-10.641 2.065-2.793.829-4.982 1.918-6.686 3.617-1.705 1.7-2.8 3.884-3.638 6.675-.831 2.772-1.439 6.26-2.097 10.63l-.26 1.74z" stroke="#FF858D" stroke-width="3"/><path d="M418.797 918c-4.833 3.5-12.1 12.5-4.5 18.5s15.834-2.167 19-6.5" stroke="#A5A5A5" stroke-width="3" stroke-linecap="round" stroke-linejoin="round"/><path d="M489.965 729.43h-.085c-4.056 0-8.542 0-12.027-.921-1.739-.459-3.079-1.113-3.971-1.984-.847-.827-1.382-1.935-1.382-3.56s.535-2.733 1.382-3.56c.892-.872 2.232-1.525 3.971-1.985 3.485-.92 7.971-.92 12.027-.92h.17c4.056 0 8.542 0 12.027.92 1.739.46 3.079 1.113 3.971 1.985.847.827 1.382 1.935 1.382 3.56s-.535 2.733-1.382 3.56c-.892.871-2.232 1.525-3.971 1.984-3.485.921-7.971.921-12.027.921h-.085zm-137-141h-.085c-4.056 0-8.542 0-12.027-.921-1.739-.459-3.079-1.113-3.971-1.984-.847-.827-1.382-1.935-1.382-3.56s.535-2.733 1.382-3.56c.892-.871 2.232-1.525 3.971-1.985 3.485-.92 7.971-.92 12.027-.92h.17c4.056 0 8.542 0 12.027.92 1.739.46 3.079 1.114 3.971 1.985.847.827 1.382 1.935 1.382 3.56s-.535 2.733-1.382 3.56c-.892.871-2.232 1.525-3.971 1.984-3.485.921-7.971.921-12.027.921h-.085z" stroke="#06D6A0" stroke-width="3"/><path d="M328.77 831.682l10.455 9.414 12.184-7.034-5.722 12.852 10.455 9.414-13.992-1.471-5.722 12.853-2.925-13.761-13.992-1.471 12.184-7.035-2.925-13.761z" stroke="#A5A5A5" stroke-width="3" stroke-linejoin="round"/><path d="M346 701l10.5 10.5L367 701l10.5 10.5L388 701l10.5 10.5" stroke="#5DB7DE" stroke-width="3" stroke-linecap="round" stroke-linejoin="round"/><path d="M420.84 445.5c-1.834-3.667-3.9-12.2 2.5-17 8-6 14 .5 22-6.5 6.4-5.6 7-11 6.5-13m-106.491-49.434c4.083.365 12.43 3.086 13.155 11.053.906 9.959-7.776 11.653-6.019 22.137 1.405 8.387 5.686 11.733 7.65 12.357" stroke="#FF9FE5" stroke-width="3" stroke-linecap="round" stroke-linejoin="round"/><path d="M440.514 884.166l-4.229-5.323c-3.927-4.946-7.133-8.789-10.095-11.59-2.976-2.814-5.794-4.661-8.97-5.513-3.176-.851-6.539-.66-10.524.289-3.965.944-8.661 2.67-14.534 4.989l-6.334 2.501 5.329-4.234c4.945-3.927 8.788-7.133 11.589-10.095 2.814-2.977 4.661-5.794 5.512-8.97.851-3.176.661-6.54-.287-10.524-.944-3.966-2.668-8.663-4.986-14.536l-2.499-6.326 4.229 5.323c3.927 4.945 7.132 8.788 10.094 11.588 2.976 2.814 5.794 4.661 8.97 5.512 3.176.851 6.54.66 10.524-.288 3.965-.944 8.662-2.669 14.535-4.987l6.334-2.501-5.329 4.234c-4.945 3.927-8.788 7.133-11.589 10.095-2.814 2.977-4.661 5.794-5.512 8.97-.851 3.176-.661 6.54.287 10.524.944 3.966 2.668 8.663 4.986 14.536l2.499 6.326z" stroke="#5DB7DE" stroke-width="3"/><path d="M495.816 640.248L506 632.157l-12.101 4.778c-18.103 7.145-20.546 6.493-32.651-8.751L453.157 618l4.78 12.099c7.145 18.105 6.491 20.546-8.753 32.653L439 670.843l12.101-4.778c18.103-7.149 20.544-6.495 32.651 8.751L491.843 685l-4.78-12.099c-7.145-18.105-6.491-20.546 8.753-32.653z" fill="#5DB7DE"/><path d="M645.514 792.166l-4.229-5.323c-3.927-4.946-7.133-8.789-10.095-11.59-2.976-2.814-5.794-4.661-8.97-5.513-3.176-.851-6.539-.66-10.524.289-3.965.944-8.661 2.67-14.534 4.989l-6.334 2.501 5.329-4.234c4.945-3.927 8.788-7.133 11.589-10.095 2.814-2.977 4.661-5.794 5.512-8.97.851-3.176.661-6.54-.287-10.524-.944-3.966-2.668-8.663-4.986-14.536l-2.499-6.326 4.229 5.323c3.927 4.945 7.132 8.788 10.094 11.588 2.976 2.814 5.794 4.661 8.97 5.512 3.176.851 6.54.66 10.524-.288 3.965-.944 8.662-2.669 14.535-4.987l6.334-2.501-5.329 4.234c-4.945 3.927-8.788 7.133-11.589 10.095-2.814 2.977-4.661 5.794-5.512 8.97-.851 3.176-.661 6.54.287 10.524.944 3.966 2.668 8.663 4.986 14.536l2.499 6.326z" stroke="#5DB7DE" stroke-width="3"/><path d="M447.008 732.167l-1.089-1.372c-2.753-3.467-5.019-6.185-7.121-8.173-2.118-2.002-4.157-3.349-6.482-3.972-2.325-.623-4.764-.476-7.598.199-2.815.67-6.135 1.891-10.252 3.517l-1.638.647 1.377-1.094c3.466-2.753 6.184-5.018 8.172-7.121 2.002-2.118 3.349-4.157 3.972-6.482.624-2.325.477-4.764-.198-7.598-.67-2.816-1.89-6.136-3.515-10.253l-.644-1.631 1.089 1.371c2.753 3.466 5.018 6.184 7.121 8.172 2.117 2.002 4.156 3.349 6.481 3.972 2.325.623 4.765.475 7.599-.199 2.815-.67 6.135-1.891 10.251-3.515h.001l1.638-.647-1.377 1.093v.001c-3.466 2.752-6.184 5.018-8.172 7.121-2.002 2.117-3.349 4.156-3.972 6.481-.624 2.325-.477 4.765.198 7.599.67 2.815 1.89 6.136 3.515 10.252v.001l.644 1.631zm-22-370.001l-1.089-1.371c-2.753-3.467-5.019-6.185-7.121-8.173-2.118-2.002-4.157-3.35-6.482-3.973-2.325-.623-4.764-.475-7.598.2-2.815.67-6.135 1.891-10.252 3.517l-1.638.646 1.377-1.093c3.466-2.753 6.184-5.019 8.172-7.122 2.002-2.117 3.349-4.156 3.972-6.481.624-2.325.477-4.764-.198-7.599-.67-2.815-1.89-6.135-3.515-10.252v-.001l-.644-1.63 1.089 1.371c2.753 3.466 5.018 6.184 7.121 8.172 2.117 2.001 4.156 3.349 6.481 3.972 2.325.623 4.765.475 7.599-.199 2.815-.67 6.135-1.891 10.251-3.516h.001l1.638-.646-1.377 1.093c-3.466 2.753-6.184 5.019-8.172 7.122-2.002 2.117-3.349 4.156-3.972 6.481-.624 2.325-.477 4.764.198 7.599.67 2.815 1.89 6.135 3.515 10.252v.001l.644 1.63z" stroke="#FF858D" stroke-width="3"/><path d="M370 811c-4.411 0-8-3.589-8-8s3.589-8 8-8 8 3.589 8 8-3.589 8-8 8zm-67-414c-4.411 0-8-3.589-8-8s3.589-8 8-8 8 3.589 8 8-3.589 8-8 8z" fill="#A5A5A5"/><circle cx="400.5" cy="778.5" r="7" stroke="#FF858D" stroke-width="3"/><circle cx="416.5" cy="643.5" r="7" stroke="#FF858D" stroke-width="3"/><circle cx="558.5" cy="727.5" r="7" stroke="#FF858D" stroke-width="3"/><path d="M406.613 406.614l-.06.06c-2.868 2.868-6.04 6.04-9.155 7.853-1.554.905-2.964 1.39-4.211 1.405-1.184.014-2.345-.391-3.494-1.54s-1.555-2.311-1.541-3.495c.015-1.247.5-2.656 1.405-4.211 1.814-3.115 4.986-6.287 7.854-9.155l.06-.06.06-.06c2.868-2.868 6.04-6.04 9.155-7.854 1.555-.905 2.964-1.39 4.211-1.405 1.184-.014 2.346.392 3.495 1.541s1.554 2.31 1.54 3.494c-.015 1.247-.5 2.657-1.405 4.211-1.813 3.115-4.985 6.287-7.853 9.155l-.061.061z" stroke="#06D6A0" stroke-width="3"/><path d="M466.704 751.819l10.455 9.413 12.184-7.034-5.722 12.853 10.455 9.413-13.992-1.47-5.722 12.852-2.925-13.761-13.992-1.471 12.184-7.034-2.925-13.761zM348.77 438.682l10.455 9.414 12.184-7.035-5.722 12.853 10.455 9.414-13.992-1.471-5.722 12.853-2.925-13.762-13.992-1.47 12.184-7.035-2.925-13.761zm219 374l10.455 9.414 12.184-7.034-5.722 12.852 10.455 9.414-13.992-1.471-5.722 12.853-2.925-13.761-13.992-1.471 12.184-7.035-2.925-13.761z" stroke="#A5A5A5" stroke-width="3" stroke-linejoin="round"/><path d="M364.5 726c0 15.742-12.758 28.5-28.5 28.5 15.742 0 28.5 12.758 28.5 28.5 0-15.742 12.758-28.5 28.5-28.5-15.742 0-28.5-12.758-28.5-28.5z" fill="#FF9FE5"/><path d="M394 466l10.5 10.5L415 466l10.5 10.5L436 466l10.5 10.5M536 896l10.5 10.5L557 896l10.5 10.5L578 896l10.5 10.5" stroke="#5DB7DE" stroke-width="3" stroke-linecap="round" stroke-linejoin="round"/></g><g opacity=".4" filter="url(#filter1_f_858_1492)"><path d="M724 570.5V587m-39.5-56H668m35.5 89H687" stroke="#06D6A0" stroke-width="2" stroke-linecap="round" stroke-linejoin="round"/><path d="M585 287h-4m-92 169h-4m88-177v-4m51 409v-4" stroke="#FF9FE5" stroke-width="2" stroke-linecap="round" stroke-linejoin="round"/><path d="M609 235l12.5 12.5m-12.5 0l12.5-12.5M468 524l12.5 12.5m-12.5 0l12.5-12.5m185.185-30v13.371M659 500.685h13.371M575.685 451v13.371M569 457.686h13.371" stroke="#F4F4F4" stroke-width="2" stroke-linecap="round" stroke-linejoin="round"/><path d="M850.462 605.28c-4.091-.262-12.505-2.773-13.429-10.72-1.156-9.933 7.481-11.844 5.461-22.28-1.616-8.35-5.979-11.587-7.959-12.162M666.917 341.897c-3.352-2.36-9.216-8.895-5.855-16.155 4.202-9.075 12.565-6.194 16.293-16.149 2.982-7.965.951-13.004-.437-14.528" stroke="#FF9FE5" stroke-width="2" stroke-linecap="round" stroke-linejoin="round"/><path d="M787.215 638.111l-6.321-7.957h-.001c-3.928-4.947-7.113-8.764-10.047-11.538-2.942-2.782-5.689-4.571-8.755-5.393-3.067-.821-6.34-.646-10.279.292-3.926.935-8.592 2.648-14.466 4.968l-9.46 3.735 7.96-6.324c4.946-3.929 8.763-7.114 11.536-10.048 2.782-2.942 4.571-5.689 5.393-8.756.822-3.066.647-6.339-.291-10.279-.934-3.926-2.646-8.593-4.964-14.467v-.001l-3.735-9.454 6.321 7.957h.001c3.927 4.946 7.112 8.763 10.046 11.536 2.942 2.782 5.689 4.57 8.756 5.392 3.066.821 6.339.646 10.278-.292 3.927-.934 8.593-2.646 14.467-4.965l9.46-3.735-7.96 6.324v.001c-4.946 3.928-8.763 7.113-11.536 10.047-2.782 2.942-4.571 5.689-5.393 8.756-.822 3.066-.647 6.339.291 10.279.934 3.926 2.646 8.593 4.964 14.467v.001l3.735 9.454zm-281.931-25.83l-1.822-9.998c-1.131-6.215-2.139-11.083-3.418-14.912-1.282-3.841-2.861-6.714-5.177-8.885-2.316-2.171-5.285-3.56-9.201-4.591-3.903-1.027-8.825-1.717-15.099-2.442l-10.104-1.169 10.003-1.822c6.214-1.131 11.082-2.14 14.911-3.418 3.841-1.283 6.714-2.861 8.885-5.178 2.171-2.316 3.56-5.285 4.592-9.201 1.028-3.903 1.719-8.825 2.446-15.099l1.165-10.098 1.822 9.998c1.13 6.214 2.139 11.082 3.418 14.91 1.282 3.841 2.861 6.713 5.177 8.884 2.317 2.171 5.286 3.56 9.201 4.591 3.903 1.028 8.826 1.719 15.099 2.445l10.104 1.169-10.003 1.822c-6.214 1.131-11.082 2.14-14.911 3.418-3.841 1.283-6.714 2.861-8.885 5.178-2.171 2.316-3.56 5.285-4.592 9.201-1.028 3.903-1.719 8.825-2.446 15.099l-1.165 10.098z" stroke="#5DB7DE" stroke-width="2"/><path d="M588.487 418.028l4.195 2.939-4.866-1.59h-.001c-4.208-1.376-7.565-2.385-10.376-2.878-2.824-.496-5.177-.487-7.353.239-2.176.725-4.064 2.13-6.025 4.22-1.953 2.082-4.033 4.903-6.574 8.528l-2.935 4.192 1.588-4.862c1.377-4.209 2.386-7.567 2.879-10.378.496-2.824.487-5.177-.239-7.353-.725-2.176-2.13-4.063-4.221-6.024-2.081-1.952-4.903-4.031-8.529-6.571l-4.195-2.939 4.866 1.589h.001c4.208 1.376 7.565 2.385 10.377 2.878 2.824.496 5.176.487 7.352-.238 2.176-.726 4.064-2.13 6.025-4.221 1.953-2.081 4.033-4.902 6.574-8.528l2.935-4.191-1.588 4.861v.001c-1.376 4.208-2.385 7.565-2.878 10.376-.496 2.824-.487 5.176.239 7.352s2.13 4.064 4.221 6.025c2.081 1.952 4.902 4.032 8.528 6.573z" stroke="#FF858D" stroke-width="2"/><path d="M635 555c-3.86 0-7-3.364-7-7.5s3.14-7.5 7-7.5 7 3.364 7 7.5-3.14 7.5-7 7.5zM518.5 288a4.505 4.505 0 0 1-4.5-4.5c0-2.481 2.019-4.5 4.5-4.5s4.5 2.019 4.5 4.5-2.019 4.5-4.5 4.5zm-77 314a4.505 4.505 0 0 1-4.5-4.5c0-2.481 2.019-4.5 4.5-4.5s4.5 2.019 4.5 4.5-2.019 4.5-4.5 4.5z" fill="#A5A5A5"/><path d="M573.03 669.416c-.329 5.958 2.08 17.272 11.528 15.152 9.448-2.119 8.296-13.659 6.927-18.848m-86.901-190.399c-5.598 2.069-15.02 8.778-9.318 16.604 5.703 7.825 15.832 2.179 20.049-1.141" stroke="#A5A5A5" stroke-width="2" stroke-linecap="round" stroke-linejoin="round"/><circle cx="734.5" cy="528.5" r="7.5" stroke="#FF858D" stroke-width="2"/><circle cx="586.5" cy="537.5" r="7.5" stroke="#FF858D" stroke-width="2"/><circle cx="553.5" cy="327.5" r="7.5" stroke="#FF858D" stroke-width="2"/><circle cx="656.5" cy="610.5" r="7.5" stroke="#FF858D" stroke-width="2"/><path d="M621.965 649.93h-.126c-4.027 0-8.566 0-12.114-.937-1.782-.471-3.214-1.155-4.193-2.11-.948-.926-1.532-2.166-1.532-3.918 0-1.753.584-2.992 1.532-3.918.979-.955 2.411-1.639 4.193-2.11 3.548-.937 8.087-.937 12.114-.937h.252c4.027 0 8.565 0 12.113.937 1.783.471 3.215 1.155 4.193 2.11.949.926 1.533 2.165 1.533 3.918 0 1.752-.584 2.992-1.533 3.918-.978.955-2.41 1.639-4.193 2.11-3.548.937-8.086.937-12.113.937h-.126zm-137-324h-.126c-4.027 0-8.566 0-12.114-.937-1.782-.471-3.214-1.155-4.193-2.11-.948-.926-1.532-2.166-1.532-3.918 0-1.753.584-2.992 1.532-3.918.979-.955 2.411-1.639 4.193-2.11 3.548-.937 8.087-.937 12.114-.937h.252c4.027 0 8.565 0 12.113.937 1.783.471 3.215 1.155 4.193 2.11.949.926 1.533 2.165 1.533 3.918 0 1.752-.584 2.992-1.533 3.918-.978.955-2.41 1.639-4.193 2.11-3.548.937-8.086.937-12.113.937h-.126z" stroke="#06D6A0" stroke-width="2"/><path d="M720.5 713c0 21.5-5.5 28.5-28.5 28.5 23 0 28.5 6.5 28.5 28.5 0-22 5-28.5 28.5-28.5-23.5 0-28.5-7-28.5-28.5zm-199-381c0 21.5-5.5 28.5-28.5 28.5 23 0 28.5 6.5 28.5 28.5 0-22 5-28.5 28.5-28.5-23.5 0-28.5-7-28.5-28.5z" fill="#FF9FE5"/><path d="M640 469l10.5 10.5L661 469l10.5 10.5L682 469l10.5 10.5M454 382l10.5 10.5L475 382l10.5 10.5L496 382l10.5 10.5" stroke="#5DB7DE" stroke-width="2" stroke-linecap="round" stroke-linejoin="round"/><path d="M611.77 359.682l10.455 9.414 12.184-7.034-5.722 12.852 10.455 9.414-13.992-1.471-5.722 12.853-2.925-13.762-13.992-1.47 12.184-7.035-2.925-13.761z" stroke="#A5A5A5" stroke-width="2" stroke-linejoin="round"/><path d="M471 593v16.5M633.5 416H617m-70.5 121H530" stroke="#06D6A0" stroke-width="2" stroke-linecap="round" stroke-linejoin="round"/><path d="M636 692h-4m-59-393v-4m-96 173v-4m147 240v-4m-59-413h-4m-92 169h-4m151 236h-4M477 448v-4" stroke="#FF9FE5" stroke-width="2" stroke-linecap="round" stroke-linejoin="round"/><path d="M825 635l12.5 12.5m-12.5 0l12.5-12.5M538 599l12.5 12.5m-12.5 0l12.5-12.5m30.185-247v13.371M574 358.685h13.371M721.685 659v13.371M715 665.685h13.371" stroke="#F4F4F4" stroke-width="2" stroke-linecap="round" stroke-linejoin="round"/><path d="M661.84 708.5c-1.834-3.667-3.9-12.2 2.5-17 8-6 14 .5 22-6.5 6.4-5.6 7-11 6.5-13m-178 32.5c-1.834-3.667-3.9-12.2 2.5-17 8-6 14 .5 22-6.5 6.4-5.6 7-11 6.5-13" stroke="#FF9FE5" stroke-width="2" stroke-linecap="round" stroke-linejoin="round"/><path d="M642.215 348.111l-6.321-7.957h-.001c-3.928-4.947-7.113-8.764-10.047-11.538-2.942-2.782-5.689-4.571-8.755-5.393-3.067-.821-6.34-.646-10.279.292-3.926.935-8.592 2.648-14.466 4.968l-9.46 3.735 7.96-6.324c4.946-3.929 8.763-7.114 11.536-10.048 2.782-2.942 4.571-5.689 5.393-8.756.822-3.066.647-6.339-.291-10.279-.934-3.926-2.646-8.593-4.964-14.467v-.001l-3.735-9.454 6.321 7.957h.001c3.927 4.946 7.112 8.763 10.046 11.536 2.942 2.782 5.689 4.57 8.756 5.392 3.066.821 6.339.646 10.278-.292 3.927-.934 8.593-2.646 14.467-4.965l9.46-3.735-7.96 6.324c-4.946 3.929-8.763 7.114-11.536 10.048-2.782 2.942-4.571 5.689-5.393 8.756-.822 3.066-.647 6.339.291 10.279.934 3.926 2.646 8.593 4.964 14.467v.001l3.735 9.454z" stroke="#5DB7DE" stroke-width="2"/><path d="M685.35 411.169l4.764-1.881-4.008 3.185c-3.467 2.754-6.159 4.999-8.12 7.073-1.97 2.084-3.259 4.052-3.853 6.267-.593 2.216-.461 4.565.202 7.354.661 2.776 1.869 6.066 3.494 10.185l1.88 4.759-3.182-4.005c-2.754-3.468-4.999-6.16-7.073-8.121-2.083-1.97-4.052-3.259-6.267-3.853-2.216-.593-4.565-.461-7.353.203-2.776.661-6.066 1.87-10.184 3.496l-4.764 1.881 4.008-3.185c3.467-2.754 6.159-4.999 8.12-7.073 1.97-2.084 3.259-4.052 3.853-6.267.593-2.216.461-4.565-.202-7.354-.661-2.776-1.869-6.066-3.494-10.185l-1.88-4.759 3.182 4.005c2.753 3.467 4.998 6.159 7.072 8.12 2.084 1.969 4.052 3.258 6.268 3.852 2.215.593 4.564.461 7.353-.203 2.776-.661 6.066-1.868 10.184-3.494zm-69.971 166.299l4.459-2.522-3.529 3.708h-.001c-3.053 3.207-5.408 5.804-7.063 8.129-1.662 2.336-2.667 4.464-2.948 6.74-.282 2.276.174 4.584 1.217 7.255 1.038 2.658 2.69 5.75 4.869 9.603v.001l2.52 4.453-3.705-3.526v-.001c-3.207-3.053-5.803-5.409-8.129-7.064-2.336-1.662-4.463-2.667-6.74-2.948-2.276-.282-4.584.174-7.254 1.217-2.658 1.039-5.749 2.691-9.602 4.871l-4.458 2.523 3.529-3.709c3.053-3.207 5.408-5.803 7.063-8.129 1.663-2.336 2.667-4.463 2.949-6.74.281-2.276-.174-4.584-1.217-7.255-1.039-2.658-2.69-5.749-4.87-9.603l-2.52-4.453 3.705 3.526c3.207 3.053 5.803 5.408 8.128 7.063 2.336 1.662 4.464 2.667 6.74 2.948 2.276.281 4.584-.175 7.255-1.218 2.658-1.038 5.749-2.69 9.602-4.869z" stroke="#FF858D" stroke-width="2"/><path d="M674 381c-3.86 0-7-3.364-7-7.5s3.14-7.5 7-7.5 7 3.364 7 7.5-3.14 7.5-7 7.5zm172-3c-3.86 0-7-3.364-7-7.5s3.14-7.5 7-7.5 7 3.364 7 7.5-3.14 7.5-7 7.5z" fill="#A5A5A5"/><path d="M777.797 673c-4.833 3.5-12.1 12.5-4.5 18.5s15.834-2.167 19-6.5M498.018 425.006c2.13 5.575 8.943 14.923 16.705 9.135 7.763-5.788 2.005-15.855-1.361-20.035" stroke="#A5A5A5" stroke-width="2" stroke-linecap="round" stroke-linejoin="round"/><circle cx="531.5" cy="458.5" r="7.5" stroke="#FF858D" stroke-width="2"/><path d="M619.329 458.183l-.032.122c-1.042 3.889-2.217 8.273-4.04 11.458-.916 1.599-1.948 2.806-3.124 3.504-1.139.676-2.488.919-4.181.466-1.693-.454-2.739-1.339-3.388-2.494-.669-1.192-.959-2.753-.952-4.597.013-3.669 1.187-8.053 2.23-11.943l.032-.122.033-.121c1.042-3.89 2.217-8.274 4.04-11.458.916-1.6 1.948-2.807 3.124-3.505 1.139-.676 2.488-.919 4.181-.466 1.692.454 2.739 1.339 3.387 2.494.67 1.193.96 2.753.953 4.597-.013 3.67-1.188 8.053-2.23 11.943l-.033.122z" stroke="#06D6A0" stroke-width="2"/><path d="M636.116 485.648c-11.805 17.969-20.245 20.8-39.468 8.172 19.223 12.628 20.251 21.081 8.172 39.468 12.079-18.387 19.827-21.075 39.468-8.172-19.641-12.903-19.977-21.499-8.172-39.468z" fill="#FF9FE5"/><path d="M654 581.673l14.838.569.57-14.838 14.838.569.569-14.838 14.838.569M524 638l10.5 10.5L545 638l10.5 10.5L566 638l10.5 10.5" stroke="#5DB7DE" stroke-width="2" stroke-linecap="round" stroke-linejoin="round"/><path d="M546.77 485.682l10.455 9.414 12.184-7.034-5.722 12.852 10.455 9.414-13.992-1.471-5.722 12.853-2.925-13.761-13.992-1.471 12.184-7.034-2.925-13.762z" stroke="#A5A5A5" stroke-width="2" stroke-linejoin="round"/></g><g opacity=".3" filter="url(#filter2_f_858_1492)"><path d="M738.5 399H722" stroke="#06D6A0" stroke-width="1.5" stroke-linecap="round" stroke-linejoin="round"/><path d="M994 526h-4M823 419h-4m86-24h-4m81 143v-4M811 431v-4m82-20v-4m81 123h-4M803 419h-4m86-24h-4m101 123v-4M811 411v-4m82-20v-4" stroke="#FF9FE5" stroke-width="1.5" stroke-linecap="round" stroke-linejoin="round"/><path d="M708 420l12.5 12.5m-12.5 0l12.5-12.5m40.185-113v13.371M754 313.685h13.371M770.685 193v13.371M764 199.685h13.371" stroke="#F4F4F4" stroke-width="1.5" stroke-linecap="round" stroke-linejoin="round"/><path d="M909.84 466.5c-1.834-3.667-3.9-12.2 2.5-17 8-6 14 .5 22-6.5 6.4-5.6 7-11 6.5-13" stroke="#FF9FE5" stroke-width="1.5" stroke-linecap="round" stroke-linejoin="round"/><path d="M853.066 264.583l-7.368-9.273v-.001c-3.929-4.947-7.105-8.751-10.023-11.511-2.926-2.766-5.637-4.526-8.649-5.333-3.012-.807-6.239-.639-10.156.294-3.906.93-8.558 2.636-14.432 4.956l-11.024 4.353 9.276-7.37c4.947-3.929 8.751-7.105 11.511-10.023 2.766-2.926 4.525-5.637 5.333-8.649.807-3.012.639-6.24-.293-10.157-.93-3.907-2.635-8.558-4.954-14.434l-4.353-11.018 7.368 9.273v.001c3.928 4.946 7.104 8.75 10.022 11.509 2.926 2.766 5.637 4.525 8.649 5.332 3.012.807 6.24.639 10.156-.293 3.907-.93 8.559-2.636 14.433-4.954l11.024-4.353-9.276 7.37c-4.947 3.929-8.751 7.105-11.511 10.023-2.766 2.926-4.525 5.637-5.333 8.649-.807 3.012-.639 6.24.293 10.157.93 3.907 2.635 8.558 4.954 14.434l4.353 11.018zm93.643 268.27l-10.026-6.307c-5.347-3.365-9.604-5.901-13.273-7.537-3.677-1.64-6.818-2.401-9.927-2.164-3.11.237-6.099 1.466-9.484 3.644-3.378 2.173-7.2 5.325-11.973 9.462l-8.957 7.761 6.308-10.029c3.365-5.347 5.9-9.604 7.536-13.272 1.64-3.678 2.401-6.819 2.164-9.928-.237-3.11-1.466-6.099-3.643-9.485-2.173-3.378-5.324-7.201-9.46-11.975l-7.759-8.952 10.025 6.306h.001c5.346 3.365 9.602 5.9 13.271 7.536 3.677 1.639 6.818 2.4 9.927 2.163 3.109-.237 6.099-1.466 9.485-3.644 3.377-2.173 7.2-5.324 11.974-9.459l8.957-7.761-6.308 10.028c-3.365 5.347-5.901 9.604-7.536 13.273-1.64 3.677-2.401 6.818-2.164 9.928.237 3.109 1.465 6.098 3.643 9.485 2.172 3.377 5.324 7.2 9.459 11.975l7.76 8.952z" stroke="#5DB7DE" stroke-width="1.5"/><path d="M786.346 460.428l-5.81-3.527h-.001c-3.785-2.299-6.811-4.037-9.417-5.15-2.616-1.117-4.865-1.629-7.093-1.423-2.228.206-4.345 1.121-6.712 2.698-2.358 1.571-5.013 3.833-8.313 6.786l-5.069 4.537 3.528-5.813c2.299-3.786 4.037-6.811 5.149-9.418 1.117-2.616 1.629-4.865 1.423-7.093-.206-2.228-1.121-4.345-2.697-6.712-1.571-2.359-3.833-5.014-6.785-8.315l-4.535-5.065 5.811 3.526c3.785 2.299 6.81 4.037 9.416 5.149 2.616 1.117 4.865 1.628 7.093 1.422 2.228-.205 4.345-1.121 6.712-2.697 2.358-1.571 5.014-3.833 8.314-6.785l5.069-4.536-3.528 5.813c-2.298 3.785-4.036 6.81-5.149 9.417-1.116 2.616-1.628 4.865-1.423 7.093.206 2.228 1.121 4.346 2.697 6.712 1.571 2.359 3.833 5.015 6.785 8.315l4.535 5.066zm214.624 40.101l-5.209-4.367c-3.393-2.846-6.12-5.023-8.528-6.519-2.416-1.5-4.562-2.347-6.795-2.482-2.233-.135-4.465.449-7.043 1.648-2.569 1.196-5.537 3.029-9.246 5.448l-5.699 3.715 4.369-5.211c2.846-3.393 5.023-6.12 6.518-8.528 1.5-2.416 2.348-4.562 2.482-6.795.135-2.233-.448-4.465-1.647-7.043-1.195-2.57-3.028-5.538-5.446-9.248l-3.714-5.695 5.208 4.367h.001c3.392 2.846 6.119 5.023 8.526 6.518 2.416 1.5 4.562 2.347 6.795 2.482 2.233.134 4.465-.449 7.044-1.649 2.569-1.195 5.537-3.028 9.246-5.445l5.698-3.715-4.368 5.21c-2.846 3.394-5.023 6.12-6.518 8.528-1.5 2.416-2.347 4.562-2.482 6.795-.135 2.233.449 4.465 1.648 7.044 1.195 2.569 3.028 5.537 5.445 9.247l3.715 5.695z" stroke="#FF858D" stroke-width="1.5"/><path d="M733 306c-1.654 0-3-1.346-3-3s1.346-3 3-3 3 1.346 3 3-1.346 3-3 3zm294 168c-1.65 0-3-1.346-3-3s1.35-3 3-3 3 1.346 3 3-1.35 3-3 3zM816 324c-1.654 0-3-1.346-3-3s1.346-3 3-3 3 1.346 3 3-1.346 3-3 3zm71 292c-1.654 0-3-1.346-3-3s1.346-3 3-3 3 1.346 3 3-1.346 3-3 3z" fill="#A5A5A5"/><path d="M825.797 266c-4.833 3.5-12.1 12.5-4.5 18.5s15.834-2.167 19-6.5" stroke="#A5A5A5" stroke-width="1.5" stroke-linecap="round" stroke-linejoin="round"/><circle cx="694.5" cy="344.5" r="7.75" stroke="#FF858D" stroke-width="1.5"/><circle cx="800.5" cy="356.5" r="7.75" stroke="#FF858D" stroke-width="1.5"/><path d="M683 270l10.5 10.5L704 270l10.5 10.5L725 270l10.5 10.5" stroke="#5DB7DE" stroke-width="1.5" stroke-linecap="round" stroke-linejoin="round"/><path d="M700 298v16.5M754 490v16.5" stroke="#06D6A0" stroke-width="1.5" stroke-linecap="round" stroke-linejoin="round"/><path d="M893 277h-4m-72-122h-4m68 134v-4m-76-118v-4m68 114h-4m-72-122h-4m88 114v-4m-76-118v-4" stroke="#FF9FE5" stroke-width="1.5" stroke-linecap="round" stroke-linejoin="round"/><path d="M719.685 178v13.371M713 184.685h13.371M856.685 497v13.371M850 503.685h13.371" stroke="#F4F4F4" stroke-width="1.5" stroke-linecap="round" stroke-linejoin="round"/><path d="M698.84 519.5c-1.834-3.667-3.9-12.2 2.5-17 8-6 14 .5 22-6.5 6.4-5.6 7-11 6.5-13" stroke="#FF9FE5" stroke-width="1.5" stroke-linecap="round" stroke-linejoin="round"/><path d="M764.066 397.583l-7.368-9.273v-.001c-3.929-4.947-7.105-8.751-10.023-11.511-2.926-2.766-5.637-4.526-8.649-5.333-3.012-.807-6.239-.639-10.156.294-3.906.93-8.558 2.636-14.432 4.956l-11.024 4.353 9.276-7.37c4.947-3.929 8.751-7.105 11.511-10.023 2.766-2.926 4.525-5.637 5.333-8.649.807-3.012.639-6.24-.293-10.157-.93-3.907-2.635-8.558-4.954-14.434l-4.353-11.018 7.368 9.273v.001c3.928 4.946 7.104 8.75 10.022 11.509 2.926 2.766 5.637 4.525 8.649 5.332 3.012.807 6.24.639 10.156-.293 3.907-.93 8.559-2.636 14.433-4.954l11.024-4.353-9.276 7.37c-4.947 3.929-8.751 7.105-11.511 10.023-2.766 2.926-4.525 5.637-5.333 8.649-.807 3.012-.639 6.24.293 10.157.93 3.907 2.635 8.558 4.954 14.434l4.353 11.018z" stroke="#5DB7DE" stroke-width="1.5"/><path d="M700.395 250.559l-6.48-2.053c-4.222-1.339-7.572-2.312-10.368-2.777-2.806-.467-5.113-.432-7.228.294-2.116.727-3.957 2.117-5.884 4.208-1.92 2.085-3.965 4.911-6.472 8.56l-3.853 5.607 2.053-6.483c1.338-4.221 2.312-7.572 2.776-10.368.467-2.805.432-5.112-.294-7.228-.727-2.116-2.117-3.957-4.208-5.884-2.084-1.921-4.91-3.966-8.559-6.475l-5.603-3.849 6.479 2.052c4.221 1.339 7.571 2.312 10.367 2.777 2.805.466 5.112.431 7.228-.296 2.116-.726 3.957-2.116 5.884-4.208 1.92-2.084 3.965-4.909 6.473-8.558l3.854-5.607-2.054 6.483c-1.338 4.222-2.312 7.572-2.776 10.368-.467 2.805-.432 5.112.294 7.228.727 2.116 2.117 3.957 4.208 5.884 2.084 1.921 4.91 3.966 8.559 6.475l5.604 3.85zm216.965-77.046l-2.897-6.149c-1.887-4.007-3.449-7.126-5.008-9.493-1.564-2.376-3.157-4.045-5.128-5.103-1.97-1.059-4.241-1.465-7.085-1.457-2.834.007-6.297.428-10.678 1.068l-6.732.983 6.152-2.899c4.007-1.887 7.126-3.449 9.493-5.008 2.375-1.564 4.044-3.157 5.103-5.128 1.058-1.971 1.465-4.242 1.458-7.086-.008-2.833-.427-6.297-1.066-10.678l-.984-6.728 2.897 6.149c1.887 4.006 3.449 7.126 5.008 9.492 1.564 2.375 3.157 4.044 5.128 5.103 1.971 1.058 4.242 1.464 7.085 1.457 2.834-.008 6.297-.427 10.678-1.066l6.732-.983-6.152 2.898c-4.006 1.887-7.126 3.45-9.493 5.009-2.375 1.564-4.044 3.157-5.102 5.128-1.059 1.97-1.465 4.241-1.458 7.085.007 2.834.427 6.297 1.066 10.679l.983 6.727z" stroke="#FF858D" stroke-width="1.5"/><path d="M786 386c-1.654 0-3-1.346-3-3s1.346-3 3-3 3 1.346 3 3-1.346 3-3 3zm63-210c-1.654 0-3-1.346-3-3s1.346-3 3-3 3 1.346 3 3-1.346 3-3 3z" fill="#A5A5A5"/><path d="M710.797 449c-4.833 3.5-12.1 12.5-4.5 18.5s15.834-2.167 19-6.5m254.5-35c-4.833 3.5-12.1 12.5-4.5 18.5s15.834-2.167 19-6.5" stroke="#A5A5A5" stroke-width="1.5" stroke-linecap="round" stroke-linejoin="round"/><circle cx="855.5" cy="128.5" r="7.75" stroke="#FF858D" stroke-width="1.5"/><circle cx="921.5" cy="264.5" r="7.75" stroke="#FF858D" stroke-width="1.5"/><path d="M730.274 155.283l-.139-.045c-3.817-1.236-8.161-2.642-11.275-4.644-1.57-1.009-2.761-2.129-3.426-3.393-.649-1.235-.827-2.664-.267-4.392.559-1.729 1.541-2.783 2.791-3.403 1.279-.634 2.901-.844 4.764-.741 3.697.203 8.04 1.609 11.858 2.845l.138.045.139.045c3.818 1.236 8.161 2.642 11.275 4.644 1.57 1.009 2.761 2.13 3.426 3.393.65 1.235.827 2.665.267 4.393-.559 1.728-1.541 2.782-2.791 3.402-1.279.634-2.901.844-4.764.742-3.697-.203-8.04-1.61-11.858-2.846l-.138-.045zM918.6 579.25l-.141-.035c-3.898-.953-8.333-2.037-11.585-3.806-1.639-.891-2.91-1.921-3.665-3.133-.739-1.184-1.02-2.596-.589-4.361.432-1.764 1.334-2.888 2.535-3.598 1.229-.726 2.832-1.054 4.697-1.088 3.702-.068 8.137 1.016 12.034 1.97l.142.034.141.035c3.898.953 8.333 2.037 11.585 3.806 1.639.891 2.91 1.922 3.665 3.133.738 1.184 1.02 2.597.589 4.361-.432 1.765-1.334 2.888-2.535 3.598-1.229.726-2.832 1.054-4.697 1.088-3.702.068-8.137-1.016-12.034-1.969l-.142-.035zm-37.635-137.07h-.146c-4.012 0-8.578 0-12.157-.946-1.804-.476-3.283-1.175-4.304-2.172-.999-.975-1.608-2.281-1.608-4.097 0-1.817.609-3.122 1.608-4.097 1.021-.997 2.5-1.696 4.304-2.173 3.579-.945 8.145-.945 12.157-.945h.292c4.012 0 8.577 0 12.157.945 1.804.477 3.283 1.176 4.304 2.173.999.975 1.608 2.28 1.608 4.097 0 1.816-.609 3.122-1.608 4.097-1.021.997-2.5 1.696-4.304 2.172-3.58.946-8.145.946-12.157.946h-.146z" stroke="#06D6A0" stroke-width="1.5"/><path d="M726.5 200c0 25-2 28.5-28.5 28.5 26.5 0 28.5 3.5 28.5 28.5 0-25 1.5-28.5 28.5-28.5-27 0-28.5-3.5-28.5-28.5zm111 229c0 25-2 28.5-28.5 28.5 26.5 0 28.5 3.5 28.5 28.5 0-25 1.5-28.5 28.5-28.5-27 0-28.5-3.5-28.5-28.5zm-59 88c0 25-2 28.5-28.5 28.5 26.5 0 28.5 3.5 28.5 28.5 0-25 1.5-28.5 28.5-28.5-27 0-28.5-3.5-28.5-28.5zm21.276-251.914c-6.215 24.215-9.022 27.108-34.69 20.519 25.668 6.589 26.735 10.476 20.519 34.691 6.216-24.215 8.539-27.232 34.691-20.52-26.152-6.712-26.735-10.475-20.52-34.69zm234.394 139.823c-2.55 24.87-4.9 28.147-31.26 25.442 26.36 2.705 27.99 6.391 25.44 31.261 2.55-24.87 4.4-28.198 31.26-25.442-26.86-2.756-27.99-6.391-25.44-31.261z" fill="#FF9FE5"/><path d="M1015 488l10.5 10.5L1036 488l10.5 10.5L1057 488l10.5 10.5M850 328l10.5 10.5L871 328l10.5 10.5L892 328l10.5 10.5M814.689 524l7.461 12.839 12.839-7.462 7.461 12.839 12.838-7.461 7.462 12.838M847.425 63v14.85h14.849v14.849h14.849v14.849" stroke="#5DB7DE" stroke-width="1.5" stroke-linecap="round" stroke-linejoin="round"/><path d="M752.77 238.682l10.455 9.414 12.184-7.034-5.722 12.852 10.455 9.414-13.992-1.471-5.722 12.853-2.925-13.761-13.992-1.471 12.184-7.035-2.925-13.761zm34 242l10.455 9.414 12.184-7.034-5.722 12.852 10.455 9.414-13.992-1.471-5.722 12.853-2.925-13.761-13.992-1.471 12.184-7.034-2.925-13.762z" stroke="#A5A5A5" stroke-width="1.5" stroke-linejoin="round"/></g><g opacity=".2" filter="url(#filter3_f_858_1492)"><path d="M958 327v16.5" stroke="#06D6A0" stroke-linecap="round" stroke-linejoin="round"/><path d="M995 96h-4m168 335h-4M983 108v-4m164 339v-4M975 96h-4m168 335h-4M983 88v-4m164 339v-4" stroke="#FF9FE5" stroke-linecap="round" stroke-linejoin="round"/><path d="M932.685 100v13.371M926 106.685h13.371" stroke="#F4F4F4" stroke-linecap="round" stroke-linejoin="round"/><path d="M1010.34 410.041l-4.58-12.725c-2.14-5.945-3.93-10.549-5.803-14.08-1.876-3.536-3.858-6.031-6.407-7.728-2.548-1.697-5.614-2.562-9.6-2.929-3.979-.366-8.916-.237-15.224.082l-13.515.683 12.727-4.586c5.944-2.14 10.548-3.928 14.078-5.801 3.536-1.877 6.032-3.859 7.728-6.407 1.697-2.549 2.563-5.615 2.93-9.601.367-3.979.24-8.916-.078-15.225l-.686-13.511 4.585 12.725c2.141 5.944 3.925 10.548 5.805 14.078 1.87 3.535 3.85 6.03 6.4 7.727 2.55 1.696 5.62 2.562 9.6 2.929 3.98.366 8.92.239 15.23-.079l-.03-.5.03.5 13.51-.684-12.72 4.586c-5.95 2.141-10.55 3.928-14.08 5.802-3.54 1.877-6.03 3.859-7.73 6.407-1.7 2.549-2.56 5.615-2.93 9.601-.37 3.979-.24 8.916.08 15.225l.68 13.511z" stroke="#5DB7DE"/><path d="M1201.52 23.343l-.02-.25.02.25 15.19-.768-14.31 5.156c-5.94 2.14-10.53 3.922-14.05 5.787-3.51 1.866-5.97 3.823-7.63 6.325-1.67 2.501-2.53 5.522-2.89 9.485-.37 3.96-.24 8.88.08 15.189l.77 15.19-5.16-14.306c-2.14-5.946-3.92-10.535-5.78-14.048-1.87-3.515-3.83-5.972-6.33-7.637-2.5-1.665-5.52-2.523-9.48-2.888-3.96-.364-8.88-.237-15.19.083l-15.2.768 14.31-5.156c5.95-2.14 10.54-3.923 14.05-5.787 3.51-1.866 5.97-3.823 7.64-6.325 1.66-2.501 2.52-5.522 2.89-9.485.36-3.96.23-8.88-.08-15.19l-.77-15.19 5.15 14.307c2.14 5.945 3.92 10.533 5.79 14.045 1.86 3.516 3.82 5.971 6.32 7.637 2.5 1.665 5.52 2.523 9.49 2.888 3.96.365 8.88.238 15.19-.08z" stroke="#5DB7DE" stroke-width=".5"/><path d="M984.5 145H968" stroke="#06D6A0" stroke-linecap="round" stroke-linejoin="round"/><path d="M1050.84 408.5c-1.83-3.667-3.9-12.2 2.5-17 8-6 14 .5 22-6.5 6.4-5.6 7-11 6.5-13" stroke="#FF9FE5" stroke-linecap="round" stroke-linejoin="round"/><path d="M970.057 35.589l-6.64 5.275c-3.469 2.755-6.134 4.98-8.068 7.026-1.937 2.05-3.168 3.947-3.733 6.053-.564 2.106-.447 4.364.206 7.108.651 2.738 1.846 5.998 3.472 10.117l3.116 7.887-5.274-6.638c-2.755-3.469-4.981-6.135-7.026-8.069-2.049-1.938-3.946-3.168-6.053-3.733-2.106-.564-4.364-.447-7.108.206-2.737.652-5.996 1.848-10.115 3.475l-7.891 3.115 6.64-5.275c3.469-2.755 6.134-4.98 8.068-7.026 1.937-2.05 3.168-3.947 3.733-6.053.564-2.106.447-4.364-.206-7.108-.651-2.738-1.846-5.997-3.472-10.117l-3.116-7.887 5.274 6.638c2.755 3.469 4.98 6.134 7.025 8.067 2.049 1.938 3.947 3.168 6.053 3.733 2.106.564 4.365.447 7.108-.206 2.738-.652 5.997-1.847 10.116-3.473l7.891-3.115zm63.003 230l-6.64 5.275c-3.47 2.755-6.14 4.981-8.07 7.026-1.94 2.049-3.17 3.947-3.73 6.053-.57 2.106-.45 4.364.2 7.108.65 2.738 1.85 5.998 3.47 10.117l3.12 7.887-5.27-6.638c-2.76-3.469-4.98-6.135-7.03-8.068-2.05-1.938-3.95-3.169-6.05-3.734-2.11-.564-4.367-.447-7.111.206-2.737.652-5.996 1.848-10.115 3.475l-7.891 3.115 6.64-5.275c3.469-2.755 6.134-4.981 8.068-7.026 1.937-2.049 3.168-3.947 3.733-6.053.564-2.106.447-4.364-.206-7.108-.651-2.738-1.846-5.998-3.472-10.117l-3.116-7.887 5.274 6.638c2.755 3.469 4.98 6.134 7.026 8.067 2.05 1.938 3.95 3.168 6.05 3.733 2.11.564 4.37.447 7.11-.206 2.74-.652 6-1.847 10.12-3.473l7.89-3.115z" stroke="#FF858D"/><path d="M890 239c-1.103 0-2-.897-2-2s.897-2 2-2 2 .897 2 2-.897 2-2 2zm293-6c-1.1 0-2-.897-2-2s.9-2 2-2 2 .897 2 2-.9 2-2 2zm-32-163c-1.1 0-2-.897-2-2s.9-2 2-2 2 .897 2 2-.9 2-2 2zm211 67c-1.1 0-2-.897-2-2s.9-2 2-2 2 .897 2 2-.9 2-2 2z" fill="#A5A5A5"/><path d="M1084.8 423c-4.84 3.5-12.1 12.5-4.5 18.5s15.83-2.167 19-6.5" stroke="#A5A5A5" stroke-linecap="round" stroke-linejoin="round"/><circle cx="927.5" cy="362.5" r="8" stroke="#FF858D"/><path d="M987.557 188.208l-.027-.163c-.646-3.946-1.388-8.478-1.03-12.196.181-1.879.64-3.5 1.493-4.718.842-1.201 2.092-2.047 3.948-2.351 1.856-.304 3.311.1 4.491.97 1.198.883 2.149 2.272 2.92 3.996 1.528 3.41 2.268 7.942 2.908 11.888l.03.163.03.162c.64 3.947 1.38 8.478 1.03 12.196-.18 1.88-.64 3.5-1.5 4.718-.84 1.201-2.089 2.048-3.944 2.352-1.856.303-3.311-.101-4.492-.971-1.197-.882-2.148-2.272-2.919-3.995-1.525-3.41-2.266-7.942-2.912-11.889l-.026-.162z" stroke="#06D6A0"/><path d="M925.5 278c0 25-2 28.5-28.5 28.5 26.5 0 28.5 3.5 28.5 28.5 0-25 1.5-28.5 28.5-28.5-27 0-28.5-3.5-28.5-28.5z" fill="#FF9FE5"/><path d="M1063 346l10.5 10.5L1084 346l10.5 10.5L1105 346l10.5 10.5" stroke="#5DB7DE" stroke-linecap="round" stroke-linejoin="round"/><path d="M952.77 199.682l10.455 9.414 12.184-7.034-5.722 12.852 10.455 9.414-13.992-1.471-5.722 12.853-2.925-13.762-13.992-1.47 12.184-7.035-2.925-13.761z" stroke="#A5A5A5" stroke-linejoin="round"/></g><g opacity=".2" filter="url(#filter4_f_858_1492)"><path d="M1085 10h-4m200 175h-4m-140-93h-4m-60-70v-4m196 179v-4m-144-89v-4m-60-90h-4m200 175h-4m-140-93h-4m-40-90v-4m196 179v-4m-144-89v-4" stroke="#FF9FE5" stroke-width=".5" stroke-linecap="round" stroke-linejoin="round"/><path d="M1212.69 98v13.371m-6.69-6.686h13.37" stroke="#F4F4F4" stroke-width=".5" stroke-linecap="round" stroke-linejoin="round"/><path d="M1101.84 184.5c-1.83-3.667-3.9-12.2 2.5-17 8-6 14 .5 22-6.5 6.4-5.6 7-11 6.5-13" stroke="#FF9FE5" stroke-width=".5" stroke-linecap="round" stroke-linejoin="round"/><path d="M1051.53 97.513l-4.92 3.906c-2.33 1.852-4.12 3.344-5.41 4.713-1.3 1.372-2.12 2.635-2.49 4.032-.37 1.397-.3 2.899.14 4.736.44 1.833 1.24 4.019 2.33 6.788l2.31 5.84-3.91-4.915c-1.85-2.332-3.34-4.12-4.71-5.415-1.37-1.297-2.64-2.114-4.03-2.488-1.4-.375-2.9-.298-4.74.139-1.83.436-4.02 1.238-6.79 2.332l-5.84 2.306 4.92-3.906c2.33-1.852 4.12-3.344 5.41-4.713 1.3-1.372 2.12-2.635 2.49-4.032.37-1.397.3-2.899-.14-4.736-.44-1.833-1.24-4.019-2.33-6.788l-2.31-5.84 3.91 4.916c1.85 2.331 3.34 4.118 4.71 5.413 1.37 1.297 2.64 2.114 4.03 2.488 1.4.374 2.9.298 4.74-.139 1.83-.436 4.02-1.238 6.79-2.33l-.09-.217.09.217 5.84-2.307zm103.9 137.015l-4.51-5.676c-2.08-2.616-3.75-4.62-5.28-6.071-1.54-1.453-2.95-2.366-4.51-2.784-1.57-.419-3.25-.334-5.3.156-2.06.489-4.51 1.388-7.61 2.614l-6.75 2.663 5.68-4.509c2.61-2.078 4.62-3.751 6.07-5.286 1.45-1.537 2.36-2.949 2.78-4.51.42-1.561.34-3.24-.15-5.298-.49-2.055-1.39-4.505-2.62-7.612l-2.66-6.743 4.51 5.675c2.08 2.616 3.75 4.62 5.28 6.071 1.54 1.453 2.95 2.366 4.51 2.784 1.56.418 3.24.334 5.3-.156 2.06-.489 4.51-1.387 7.61-2.613l-.09-.233.09.233 6.75-2.663-5.68 4.509c-2.61 2.078-4.62 3.751-6.07 5.286-1.45 1.537-2.36 2.949-2.78 4.51-.42 1.561-.34 3.24.15 5.298.49 2.055 1.39 4.505 2.62 7.612l2.66 6.743zm127.83-88l-6.32-7.956c-2.76-3.469-4.97-6.122-7-8.042-2.03-1.922-3.9-3.123-5.95-3.673-2.05-.55-4.26-.44-6.98.208-2.72.647-5.96 1.836-10.08 3.463l-9.46 3.733 7.96-6.321c3.47-2.755 6.12-4.971 8.04-7.001 1.92-2.033 3.12-3.895 3.67-5.947.55-2.051.44-4.264-.2-6.985-.65-2.718-1.84-5.963-3.47-10.083l-3.73-9.452 6.32 7.956c2.75 3.469 4.97 6.121 7 8.041 2.03 1.921 3.9 3.123 5.95 3.672 2.05.55 4.26.44 6.98-.207 2.72-.647 5.96-1.836 10.08-3.462l-.09-.23.09.23 9.46-3.733-7.96 6.321c-3.47 2.755-6.12 4.971-8.04 7.001-1.92 2.033-3.12 3.895-3.67 5.947-.55 2.051-.44 4.264.2 6.985.65 2.718 1.84 5.963 3.47 10.083l3.73 9.452z" stroke="#FF858D" stroke-width=".5"/><circle cx="1227.5" cy="59.5" r="8.25" stroke="#FF858D" stroke-width=".5"/><path d="M998.965 58.68h-.183c-3.986 0-8.605 0-12.248-.962-1.847-.488-3.418-1.217-4.526-2.299-1.1-1.073-1.758-2.51-1.758-4.454 0-1.945.658-3.38 1.758-4.455 1.108-1.08 2.679-1.81 4.526-2.298 3.643-.963 8.262-.962 12.248-.962h.366c3.982 0 8.602 0 12.252.962 1.84.488 3.41 1.217 4.52 2.298 1.1 1.074 1.76 2.51 1.76 4.455 0 1.944-.66 3.38-1.76 4.454-1.11 1.082-2.68 1.811-4.52 2.299-3.65.962-8.27.962-12.252.962h-.183zm231.995 176h-.18c-3.98 0-8.6 0-12.25-.962-1.84-.488-3.41-1.217-4.52-2.299-1.1-1.074-1.76-2.51-1.76-4.454s.66-3.381 1.76-4.455c1.11-1.081 2.68-1.81 4.52-2.298 3.65-.962 8.27-.962 12.25-.962h.37c3.98 0 8.6 0 12.25.962 1.84.488 3.41 1.217 4.52 2.298 1.1 1.074 1.76 2.511 1.76 4.455s-.66 3.38-1.76 4.454c-1.11 1.082-2.68 1.811-4.52 2.299-3.65.962-8.27.962-12.25.962h-.19z" stroke="#06D6A0" stroke-width=".5"/><path d="M1050.5 212c0 25-2 28.5-28.5 28.5 26.5 0 28.5 3.5 28.5 28.5 0-25 1.5-28.5 28.5-28.5-27 0-28.5-3.5-28.5-28.5zm130 115c0 25-2 28.5-28.5 28.5 26.5 0 28.5 3.5 28.5 28.5 0-25 1.5-28.5 28.5-28.5-27 0-28.5-3.5-28.5-28.5z" fill="#FF9FE5"/><path d="M1083 261v16.5M1163 94v16.5m-66.5-5.5H1080" stroke="#06D6A0" stroke-width=".5" stroke-linecap="round" stroke-linejoin="round"/><path d="M1300.69 247v13.371m-6.69-6.686h13.37" stroke="#F4F4F4" stroke-width=".5" stroke-linecap="round" stroke-linejoin="round"/><path d="M1282.84 231.5c-1.83-3.667-3.9-12.2 2.5-17 8-6 14 .5 22-6.5 6.4-5.6 7-11 6.5-13" stroke="#FF9FE5" stroke-width=".5" stroke-linecap="round" stroke-linejoin="round"/><path d="M1158.52 289.343l-.02-.25.02.25 15.19-.768-14.31 5.156c-5.94 2.141-10.53 3.922-14.05 5.787-3.51 1.866-5.97 3.823-7.63 6.325-1.67 2.501-2.53 5.522-2.89 9.485-.37 3.959-.24 8.879.08 15.189l.77 15.191-5.16-14.307c-2.14-5.946-3.92-10.535-5.78-14.048-1.87-3.515-3.83-5.972-6.33-7.637-2.5-1.665-5.52-2.523-9.48-2.888-3.96-.364-8.88-.237-15.19.083l-15.2.768 14.31-5.156c5.95-2.141 10.54-3.923 14.05-5.787 3.51-1.866 5.97-3.823 7.64-6.325 1.66-2.501 2.52-5.522 2.89-9.485.36-3.96.23-8.88-.08-15.189l-.77-15.191 5.15 14.307c2.14 5.945 3.92 10.533 5.79 14.045 1.86 3.516 3.82 5.971 6.32 7.637 2.5 1.665 5.52 2.523 9.49 2.888 3.96.365 8.88.238 15.19-.08z" stroke="#5DB7DE" stroke-width=".5"/><path d="M1047 193c-1.1 0-2-.897-2-2s.9-2 2-2 2 .897 2 2-.9 2-2 2z" fill="#A5A5A5"/><path d="M1080.55 38.425h-14.85v14.849h-14.85v14.85H1036m161.55 69.301h-14.85v14.849h-14.85v14.849H1153M1166 258l10.5 10.5L1187 258l10.5 10.5L1208 258l10.5 10.5" stroke="#5DB7DE" stroke-width=".5" stroke-linecap="round" stroke-linejoin="round"/><path d="M1059.77 133.682l10.46 9.414 12.18-7.034-5.72 12.852 10.45 9.414-13.99-1.471-5.72 12.853-2.93-13.762-13.99-1.47 12.18-7.035-2.92-13.761zm144 29l10.46 9.414 12.18-7.034-5.72 12.852 10.45 9.414-13.99-1.471-5.72 12.853-2.93-13.762-13.99-1.47 12.18-7.035-2.92-13.761zm60-150l10.46 9.414 12.18-7.034-5.72 12.852 10.45 9.414-13.99-1.47-5.72 12.852-2.93-13.761-13.99-1.471 12.18-7.035-2.92-13.76z" stroke="#A5A5A5" stroke-width=".5" stroke-linejoin="round"/></g><defs><filter id="filter0_f_858_1492" x="294" y="309" width="376" height="710.899" filterUnits="userSpaceOnUse" color-interpolation-filters="sRGB"><feFlood flood-opacity="0" result="BackgroundImageFix"/><feBlend in="SourceGraphic" in2="BackgroundImageFix" result="shape"/><feGaussianBlur stdDeviation=".5" result="effect1_foregroundBlur_858_1492"/></filter><filter id="filter1_f_858_1492" x="435" y="232" width="420" height="540" filterUnits="userSpaceOnUse" color-interpolation-filters="sRGB"><feFlood flood-opacity="0" result="BackgroundImageFix"/><feBlend in="SourceGraphic" in2="BackgroundImageFix" result="shape"/><feGaussianBlur stdDeviation="1" result="effect1_foregroundBlur_858_1492"/></filter><filter id="filter2_f_858_1492" x="638.691" y="59.25" width="432.559" height="559.75" filterUnits="userSpaceOnUse" color-interpolation-filters="sRGB"><feFlood flood-opacity="0" result="BackgroundImageFix"/><feBlend in="SourceGraphic" in2="BackgroundImageFix" result="shape"/><feGaussianBlur stdDeviation="1.5" result="effect1_foregroundBlur_858_1492"/></filter><filter id="filter3_f_858_1492" x="884" y="-21.121" width="484" height="469.246" filterUnits="userSpaceOnUse" color-interpolation-filters="sRGB"><feFlood flood-opacity="0" result="BackgroundImageFix"/><feBlend in="SourceGraphic" in2="BackgroundImageFix" result="shape"/><feGaussianBlur stdDeviation="2" result="effect1_foregroundBlur_858_1492"/></filter><filter id="filter4_f_858_1492" x="975" y="-7.25" width="344.226" height="396.25" filterUnits="userSpaceOnUse" color-interpolation-filters="sRGB"><feFlood flood-opacity="0" result="BackgroundImageFix"/><feBlend in="SourceGraphic" in2="BackgroundImageFix" result="shape"/><feGaussianBlur stdDeviation="2.5" result="effect1_foregroundBlur_858_1492"/></filter></defs></svg>