<svg viewBox="0 0 88 88" fill="none" xmlns="http://www.w3.org/2000/svg"><path d="M65.59 81.485l-6.322-7.957c-3.928-4.947-7.114-8.764-10.047-11.537-2.943-2.782-5.69-4.571-8.756-5.393-3.067-.822-6.34-.646-10.278.292-3.926.935-8.593 2.648-14.467 4.967l-9.46 3.736 7.96-6.325c4.947-3.928 8.763-7.114 11.537-10.047 2.782-2.943 4.57-5.69 5.392-8.756.822-3.067.647-6.34-.29-10.28-.935-3.926-2.646-8.592-4.965-14.467l-3.735-9.454 6.322 7.956c3.928 4.947 7.113 8.763 10.046 11.536 2.943 2.782 5.69 4.57 8.756 5.392 3.067.822 6.34.646 10.279-.291 3.926-.935 8.593-2.647 14.466-4.965l9.46-3.736-7.96 6.325c-4.946 3.928-8.763 7.114-11.536 10.047-2.782 2.943-4.57 5.69-5.392 8.756-.822 3.067-.647 6.34.29 10.279.934 3.926 2.646 8.593 4.965 14.468l3.735 9.454z" stroke="#FF858D" stroke-width="4"/></svg>