<svg viewBox="0 0 39 39" fill="none" xmlns="http://www.w3.org/2000/svg"><path d="M23.613 23.613l-.06.06c-2.868 2.869-6.04 6.04-9.155 7.854-1.554.905-2.964 1.39-4.211 1.405-1.184.014-2.345-.392-3.494-1.54-1.15-1.15-1.555-2.311-1.54-3.495.014-1.247.5-2.656 1.404-4.211 1.814-3.115 4.986-6.287 7.854-9.155l.06-.06.06-.06c2.868-2.868 6.04-6.04 9.155-7.854 1.555-.905 2.964-1.39 4.211-1.405 1.184-.014 2.346.392 3.495 1.54 1.149 1.15 1.554 2.311 1.54 3.495-.015 1.247-.5 2.657-1.405 4.211-1.813 3.115-4.985 6.287-7.853 9.155l-.06.06z" stroke="#06D6A0" stroke-width="3"/></svg>